G75*
%MOIN*%
%OFA0B0*%
%FSLAX25Y25*%
%IPPOS*%
%LPD*%
%AMOC8*
5,1,8,0,0,1.08239X$1,22.5*
%
%ADD10C,0.00400*%
D10*
X0078804Y0097000D02*
X0078804Y0100069D01*
X0078804Y0098535D02*
X0077269Y0100069D01*
X0076502Y0100069D01*
X0080339Y0099302D02*
X0080339Y0097767D01*
X0081106Y0097000D01*
X0082640Y0097000D01*
X0083408Y0097767D01*
X0083408Y0099302D01*
X0082640Y0100069D01*
X0081106Y0100069D01*
X0080339Y0099302D01*
X0084942Y0097000D02*
X0086477Y0097000D01*
X0085710Y0097000D02*
X0085710Y0100069D01*
X0086477Y0100069D01*
X0088012Y0099302D02*
X0088012Y0097000D01*
X0091081Y0097000D02*
X0091081Y0100069D01*
X0088779Y0100069D01*
X0088012Y0099302D01*
X0085710Y0101604D02*
X0085710Y0102371D01*
X0092616Y0100069D02*
X0092616Y0097000D01*
X0094918Y0097000D01*
X0095685Y0097767D01*
X0095685Y0100069D01*
X0097220Y0101604D02*
X0098754Y0101604D01*
X0097987Y0101604D02*
X0097987Y0097767D01*
X0098754Y0097000D01*
X0099522Y0097000D01*
X0100289Y0097767D01*
X0106427Y0097767D02*
X0106427Y0097000D01*
X0107195Y0097000D01*
X0107195Y0097767D01*
X0106427Y0097767D01*
X0110264Y0097000D02*
X0110264Y0101604D01*
X0111799Y0101604D02*
X0108729Y0101604D01*
X0109497Y0107000D02*
X0109497Y0109302D01*
X0110264Y0110069D01*
X0112566Y0110069D01*
X0112566Y0107000D01*
X0114101Y0108535D02*
X0117170Y0108535D01*
X0117170Y0109302D02*
X0116403Y0110069D01*
X0114868Y0110069D01*
X0114101Y0109302D01*
X0114101Y0108535D01*
X0114868Y0107000D02*
X0116403Y0107000D01*
X0117170Y0107767D01*
X0117170Y0109302D01*
X0117170Y0111604D02*
X0115635Y0113139D01*
X0114101Y0111604D01*
X0119472Y0111604D02*
X0119472Y0112371D01*
X0121774Y0110837D02*
X0122541Y0111604D01*
X0124076Y0111604D01*
X0124843Y0110837D01*
X0124843Y0107767D01*
X0124076Y0107000D01*
X0122541Y0107000D01*
X0121774Y0107767D01*
X0120239Y0107000D02*
X0118705Y0107000D01*
X0119472Y0107000D02*
X0119472Y0110069D01*
X0120239Y0110069D01*
X0123308Y0101604D02*
X0123308Y0097000D01*
X0120239Y0097000D01*
X0118705Y0097000D02*
X0118705Y0097767D01*
X0117937Y0097767D01*
X0117937Y0097000D01*
X0118705Y0097000D01*
X0129447Y0097000D02*
X0130982Y0097000D01*
X0130214Y0097000D02*
X0130214Y0100069D01*
X0130982Y0100069D01*
X0132516Y0100069D02*
X0134818Y0100069D01*
X0135586Y0099302D01*
X0135586Y0097767D01*
X0134818Y0097000D01*
X0132516Y0097000D01*
X0137120Y0100069D02*
X0137888Y0100069D01*
X0139422Y0098535D01*
X0139422Y0100069D02*
X0139422Y0097000D01*
X0140957Y0097000D02*
X0143259Y0097000D01*
X0144026Y0097767D01*
X0143259Y0098535D01*
X0140957Y0098535D01*
X0140957Y0099302D02*
X0140957Y0097000D01*
X0140957Y0099302D02*
X0141724Y0100069D01*
X0143259Y0100069D01*
X0145561Y0100837D02*
X0145561Y0097767D01*
X0146328Y0097000D01*
X0148630Y0097000D01*
X0148630Y0101604D01*
X0146328Y0101604D01*
X0145561Y0100837D01*
X0154769Y0100069D02*
X0155536Y0100069D01*
X0157071Y0098535D01*
X0157071Y0100069D02*
X0157071Y0097000D01*
X0158605Y0097767D02*
X0158605Y0099302D01*
X0159373Y0100069D01*
X0160907Y0100069D01*
X0161674Y0099302D01*
X0161674Y0097767D01*
X0160907Y0097000D01*
X0159373Y0097000D01*
X0158605Y0097767D01*
X0163209Y0097767D02*
X0163976Y0097000D01*
X0166278Y0097000D01*
X0165511Y0098535D02*
X0163976Y0098535D01*
X0163209Y0097767D01*
X0163209Y0100069D02*
X0165511Y0100069D01*
X0166278Y0099302D01*
X0165511Y0098535D01*
X0167813Y0097767D02*
X0168580Y0097000D01*
X0170882Y0097000D01*
X0170115Y0098535D02*
X0170882Y0099302D01*
X0170115Y0100069D01*
X0167813Y0100069D01*
X0168580Y0098535D02*
X0170115Y0098535D01*
X0168580Y0098535D02*
X0167813Y0097767D01*
X0172417Y0098535D02*
X0172417Y0099302D01*
X0173184Y0100069D01*
X0174719Y0100069D01*
X0175486Y0099302D01*
X0175486Y0097767D01*
X0174719Y0097000D01*
X0173184Y0097000D01*
X0172417Y0098535D02*
X0175486Y0098535D01*
X0177021Y0099302D02*
X0178556Y0099302D01*
X0180090Y0099302D02*
X0180090Y0097767D01*
X0180858Y0097000D01*
X0182392Y0097000D01*
X0183159Y0097767D01*
X0183159Y0099302D01*
X0182392Y0100069D01*
X0180858Y0100069D01*
X0180090Y0099302D01*
X0177788Y0100837D02*
X0177021Y0101604D01*
X0177788Y0100837D02*
X0177788Y0097000D01*
X0184694Y0100069D02*
X0185461Y0100069D01*
X0186996Y0098535D01*
X0186996Y0100069D02*
X0186996Y0097000D01*
X0188531Y0099302D02*
X0189298Y0098535D01*
X0191600Y0098535D01*
X0191600Y0097000D02*
X0191600Y0101604D01*
X0189298Y0101604D01*
X0188531Y0100837D01*
X0188531Y0099302D01*
X0189298Y0107000D02*
X0191600Y0107000D01*
X0191600Y0111604D01*
X0189298Y0111604D01*
X0188531Y0110837D01*
X0188531Y0110069D01*
X0189298Y0109302D01*
X0191600Y0109302D01*
X0189298Y0109302D02*
X0188531Y0108535D01*
X0188531Y0107767D01*
X0189298Y0107000D01*
X0186996Y0107767D02*
X0186229Y0108535D01*
X0183927Y0108535D01*
X0183927Y0109302D02*
X0183927Y0107000D01*
X0186229Y0107000D01*
X0186996Y0107767D01*
X0186229Y0110069D02*
X0184694Y0110069D01*
X0183927Y0109302D01*
X0182392Y0109302D02*
X0182392Y0107767D01*
X0181625Y0107000D01*
X0179323Y0107000D01*
X0177788Y0107000D02*
X0177788Y0111604D01*
X0177021Y0110069D02*
X0175486Y0110069D01*
X0174719Y0109302D01*
X0174719Y0107000D01*
X0173184Y0107767D02*
X0172417Y0108535D01*
X0170115Y0108535D01*
X0170115Y0109302D02*
X0170115Y0107000D01*
X0172417Y0107000D01*
X0173184Y0107767D01*
X0172417Y0110069D02*
X0170882Y0110069D01*
X0170115Y0109302D01*
X0168580Y0110069D02*
X0168580Y0107000D01*
X0168580Y0108535D02*
X0167046Y0110069D01*
X0166278Y0110069D01*
X0164744Y0109302D02*
X0163976Y0110069D01*
X0162442Y0110069D01*
X0161674Y0109302D01*
X0161674Y0108535D01*
X0164744Y0108535D01*
X0164744Y0109302D02*
X0164744Y0107767D01*
X0163976Y0107000D01*
X0162442Y0107000D01*
X0160140Y0107000D02*
X0158605Y0107000D01*
X0159373Y0107000D02*
X0159373Y0111604D01*
X0160140Y0111604D01*
X0156303Y0110069D02*
X0154769Y0110069D01*
X0154001Y0109302D01*
X0154001Y0107000D01*
X0156303Y0107000D01*
X0157071Y0107767D01*
X0156303Y0108535D01*
X0154001Y0108535D01*
X0152467Y0107767D02*
X0152467Y0109302D01*
X0151699Y0110069D01*
X0149397Y0110069D01*
X0149397Y0111604D02*
X0149397Y0107000D01*
X0151699Y0107000D01*
X0152467Y0107767D01*
X0147863Y0107767D02*
X0147863Y0109302D01*
X0147095Y0110069D01*
X0145561Y0110069D01*
X0144793Y0109302D01*
X0144793Y0107767D01*
X0145561Y0107000D01*
X0147095Y0107000D01*
X0147863Y0107767D01*
X0138655Y0107767D02*
X0138655Y0109302D01*
X0137888Y0110069D01*
X0136353Y0110069D01*
X0135586Y0109302D01*
X0135586Y0108535D01*
X0138655Y0108535D01*
X0138655Y0107767D02*
X0137888Y0107000D01*
X0136353Y0107000D01*
X0134051Y0107000D02*
X0134051Y0110069D01*
X0133284Y0110069D01*
X0132516Y0109302D01*
X0131749Y0110069D01*
X0130982Y0109302D01*
X0130982Y0107000D01*
X0132516Y0107000D02*
X0132516Y0109302D01*
X0130214Y0102371D02*
X0130214Y0101604D01*
X0107962Y0107767D02*
X0107195Y0107000D01*
X0104893Y0107000D01*
X0103358Y0107000D02*
X0101823Y0107000D01*
X0102591Y0107000D02*
X0102591Y0110069D01*
X0103358Y0110069D01*
X0104893Y0110069D02*
X0107195Y0110069D01*
X0107962Y0109302D01*
X0107962Y0107767D01*
X0102591Y0111604D02*
X0102591Y0112371D01*
X0099522Y0110069D02*
X0097987Y0110069D01*
X0097220Y0109302D01*
X0097220Y0107000D01*
X0099522Y0107000D01*
X0100289Y0107767D01*
X0099522Y0108535D01*
X0097220Y0108535D01*
X0091081Y0107767D02*
X0091081Y0109302D01*
X0090314Y0110069D01*
X0088012Y0110069D01*
X0088012Y0111604D02*
X0088012Y0107000D01*
X0090314Y0107000D01*
X0091081Y0107767D01*
X0086477Y0107767D02*
X0085710Y0108535D01*
X0083408Y0108535D01*
X0083408Y0109302D02*
X0083408Y0107000D01*
X0085710Y0107000D01*
X0086477Y0107767D01*
X0085710Y0110069D02*
X0084175Y0110069D01*
X0083408Y0109302D01*
X0077269Y0110837D02*
X0077269Y0107767D01*
X0076502Y0107000D01*
X0074967Y0107000D01*
X0074200Y0107767D01*
X0072665Y0107767D02*
X0072665Y0109302D01*
X0071898Y0110069D01*
X0070363Y0110069D01*
X0069596Y0109302D01*
X0069596Y0107767D01*
X0070363Y0107000D01*
X0071898Y0107000D01*
X0072665Y0107767D01*
X0074200Y0110837D02*
X0074967Y0111604D01*
X0076502Y0111604D01*
X0077269Y0110837D01*
X0068061Y0110069D02*
X0068061Y0107000D01*
X0066527Y0107000D02*
X0066527Y0109302D01*
X0065759Y0110069D01*
X0064992Y0109302D01*
X0064992Y0107000D01*
X0063457Y0107000D02*
X0061155Y0107000D01*
X0060388Y0107767D01*
X0060388Y0109302D01*
X0061155Y0110069D01*
X0063457Y0110069D01*
X0063457Y0105465D01*
X0066527Y0109302D02*
X0067294Y0110069D01*
X0068061Y0110069D01*
X0058854Y0110069D02*
X0058854Y0107767D01*
X0058086Y0107000D01*
X0055784Y0107000D01*
X0055784Y0110069D01*
X0054250Y0110069D02*
X0052715Y0110069D01*
X0053482Y0110837D02*
X0053482Y0107767D01*
X0052715Y0107000D01*
X0051180Y0107767D02*
X0050413Y0108535D01*
X0048111Y0108535D01*
X0048111Y0109302D02*
X0048111Y0107000D01*
X0050413Y0107000D01*
X0051180Y0107767D01*
X0050413Y0110069D02*
X0048878Y0110069D01*
X0048111Y0109302D01*
X0046576Y0109302D02*
X0046576Y0108535D01*
X0045809Y0107767D01*
X0044274Y0107767D01*
X0045042Y0107767D02*
X0045042Y0107000D01*
X0044274Y0106233D01*
X0045042Y0105465D01*
X0045809Y0105465D01*
X0046576Y0106233D01*
X0046576Y0107000D01*
X0046576Y0109302D02*
X0045809Y0110069D01*
X0044274Y0110069D01*
X0042740Y0109302D02*
X0041205Y0109302D01*
X0041205Y0107767D01*
X0040438Y0107000D01*
X0038903Y0107000D01*
X0038136Y0107767D01*
X0038136Y0109302D01*
X0038903Y0110069D01*
X0040438Y0110069D01*
X0041205Y0109302D01*
X0041205Y0108535D02*
X0042740Y0108535D01*
X0042740Y0106233D02*
X0042740Y0111604D01*
X0068829Y0127000D02*
X0071131Y0127000D01*
X0071898Y0127767D01*
X0071131Y0128535D01*
X0068829Y0128535D01*
X0068829Y0129302D02*
X0068829Y0127000D01*
X0068829Y0129302D02*
X0069596Y0130069D01*
X0071131Y0130069D01*
X0071131Y0131604D02*
X0069596Y0132371D01*
X0073433Y0129302D02*
X0073433Y0127000D01*
X0073433Y0129302D02*
X0074200Y0130069D01*
X0076502Y0130069D01*
X0076502Y0127000D01*
X0078037Y0127000D02*
X0078037Y0129302D01*
X0078804Y0130069D01*
X0080339Y0130069D01*
X0080339Y0128535D02*
X0078037Y0128535D01*
X0078037Y0127000D02*
X0080339Y0127000D01*
X0081106Y0127767D01*
X0080339Y0128535D01*
X0082640Y0130069D02*
X0083408Y0130069D01*
X0084942Y0128535D01*
X0084942Y0130069D02*
X0084942Y0127000D01*
X0086477Y0127000D02*
X0086477Y0129302D01*
X0087244Y0130069D01*
X0088779Y0130069D01*
X0088779Y0128535D02*
X0086477Y0128535D01*
X0086477Y0127000D02*
X0088779Y0127000D01*
X0089546Y0127767D01*
X0088779Y0128535D01*
X0091081Y0129302D02*
X0091081Y0130837D01*
X0091848Y0131604D01*
X0094150Y0131604D01*
X0094150Y0127000D01*
X0094150Y0128535D02*
X0091848Y0128535D01*
X0091081Y0129302D01*
X0100289Y0129302D02*
X0100289Y0127767D01*
X0101056Y0127000D01*
X0102591Y0127000D01*
X0103358Y0127767D01*
X0103358Y0129302D01*
X0102591Y0130069D01*
X0101056Y0130069D01*
X0100289Y0129302D01*
X0104893Y0130069D02*
X0107195Y0130069D01*
X0107962Y0129302D01*
X0107962Y0127767D01*
X0107195Y0127000D01*
X0104893Y0127000D01*
X0104893Y0131604D01*
X0114868Y0131604D02*
X0114868Y0132371D01*
X0117937Y0130837D02*
X0117937Y0127767D01*
X0117170Y0127000D01*
X0115635Y0127000D02*
X0114101Y0127000D01*
X0114868Y0127000D02*
X0114868Y0130069D01*
X0115635Y0130069D01*
X0117170Y0130069D02*
X0118705Y0130069D01*
X0120239Y0130069D02*
X0120239Y0127000D01*
X0122541Y0127000D01*
X0123308Y0127767D01*
X0123308Y0130069D01*
X0125610Y0130069D02*
X0125610Y0127000D01*
X0124843Y0127000D02*
X0126378Y0127000D01*
X0127912Y0127000D02*
X0127912Y0130069D01*
X0126378Y0130069D02*
X0125610Y0130069D01*
X0125610Y0131604D02*
X0125610Y0132371D01*
X0130982Y0130069D02*
X0130982Y0127767D01*
X0130214Y0127000D01*
X0127912Y0127000D01*
X0134051Y0127000D02*
X0134051Y0131604D01*
X0135586Y0131604D02*
X0132516Y0131604D01*
X0141724Y0129302D02*
X0141724Y0128535D01*
X0144793Y0128535D01*
X0144793Y0129302D02*
X0144026Y0130069D01*
X0142491Y0130069D01*
X0141724Y0129302D01*
X0142491Y0127000D02*
X0144026Y0127000D01*
X0144793Y0127767D01*
X0144793Y0129302D01*
X0146328Y0130069D02*
X0148630Y0130069D01*
X0149397Y0129302D01*
X0149397Y0127767D01*
X0148630Y0127000D01*
X0146328Y0127000D01*
X0146328Y0131604D01*
X0150932Y0129302D02*
X0150932Y0127000D01*
X0153234Y0127000D01*
X0154001Y0127767D01*
X0153234Y0128535D01*
X0150932Y0128535D01*
X0150932Y0129302D02*
X0151699Y0130069D01*
X0153234Y0130069D01*
X0155536Y0130069D02*
X0157838Y0130069D01*
X0158605Y0129302D01*
X0158605Y0127767D01*
X0157838Y0127000D01*
X0155536Y0127000D01*
X0155536Y0131604D01*
X0160907Y0131604D02*
X0160907Y0132371D01*
X0160907Y0130069D02*
X0160907Y0127000D01*
X0161674Y0127000D02*
X0160140Y0127000D01*
X0163209Y0127767D02*
X0163976Y0128535D01*
X0165511Y0128535D01*
X0166278Y0129302D01*
X0165511Y0130069D01*
X0163209Y0130069D01*
X0161674Y0130069D02*
X0160907Y0130069D01*
X0163209Y0127767D02*
X0163976Y0127000D01*
X0166278Y0127000D01*
X0167813Y0130069D02*
X0168580Y0130069D01*
X0170115Y0128535D01*
X0170115Y0130069D02*
X0170115Y0127000D01*
X0171650Y0128535D02*
X0174719Y0128535D01*
X0174719Y0129302D02*
X0173952Y0130069D01*
X0172417Y0130069D01*
X0171650Y0129302D01*
X0171650Y0128535D01*
X0172417Y0127000D02*
X0173952Y0127000D01*
X0174719Y0127767D01*
X0174719Y0129302D01*
X0176254Y0130069D02*
X0177788Y0127000D01*
X0179323Y0130069D01*
X0181625Y0130069D02*
X0181625Y0127000D01*
X0182392Y0127000D02*
X0180858Y0127000D01*
X0183927Y0127000D02*
X0183927Y0129302D01*
X0184694Y0130069D01*
X0186996Y0130069D01*
X0186996Y0127000D01*
X0188531Y0127767D02*
X0188531Y0131604D01*
X0191600Y0131604D02*
X0191600Y0127767D01*
X0190833Y0127000D01*
X0189298Y0127000D01*
X0188531Y0127767D01*
X0182392Y0130069D02*
X0181625Y0130069D01*
X0181625Y0131604D02*
X0181625Y0132371D01*
X0185461Y0121604D02*
X0186996Y0121604D01*
X0186229Y0121604D02*
X0186229Y0117000D01*
X0186996Y0117000D02*
X0185461Y0117000D01*
X0183927Y0117000D02*
X0183927Y0117767D01*
X0183159Y0117767D01*
X0183159Y0117000D01*
X0183927Y0117000D01*
X0183927Y0119302D02*
X0183927Y0120069D01*
X0183159Y0120069D01*
X0183159Y0119302D01*
X0183927Y0119302D01*
X0188531Y0119302D02*
X0189298Y0118535D01*
X0191600Y0118535D01*
X0191600Y0117000D02*
X0191600Y0121604D01*
X0189298Y0121604D01*
X0188531Y0120837D01*
X0188531Y0119302D01*
X0177021Y0118535D02*
X0174719Y0118535D01*
X0173952Y0119302D01*
X0173952Y0120837D01*
X0174719Y0121604D01*
X0177021Y0121604D01*
X0177021Y0117000D01*
X0175486Y0118535D02*
X0173952Y0117000D01*
X0172417Y0117767D02*
X0171650Y0117000D01*
X0170115Y0117000D01*
X0169348Y0117767D01*
X0169348Y0119302D01*
X0170115Y0120069D01*
X0171650Y0120069D01*
X0172417Y0119302D01*
X0172417Y0117767D01*
X0167813Y0117000D02*
X0165511Y0117000D01*
X0164744Y0117767D01*
X0164744Y0119302D01*
X0165511Y0120069D01*
X0167813Y0120069D01*
X0167813Y0121604D02*
X0167813Y0117000D01*
X0163209Y0117767D02*
X0162442Y0117000D01*
X0160907Y0117000D01*
X0160140Y0117767D01*
X0160140Y0119302D01*
X0160907Y0120069D01*
X0162442Y0120069D01*
X0163209Y0119302D01*
X0163209Y0117767D01*
X0162442Y0121604D02*
X0160907Y0122371D01*
X0158605Y0120069D02*
X0157071Y0120069D01*
X0157838Y0120837D02*
X0157838Y0117767D01*
X0157071Y0117000D01*
X0155536Y0117000D02*
X0154001Y0117000D01*
X0154769Y0117000D02*
X0154769Y0120069D01*
X0155536Y0120069D01*
X0154769Y0121604D02*
X0154769Y0122371D01*
X0152467Y0119302D02*
X0151699Y0120069D01*
X0149397Y0120069D01*
X0147095Y0120069D02*
X0145561Y0120069D01*
X0144793Y0119302D01*
X0144793Y0117000D01*
X0147095Y0117000D01*
X0147863Y0117767D01*
X0147095Y0118535D01*
X0144793Y0118535D01*
X0149397Y0117000D02*
X0151699Y0117000D01*
X0152467Y0117767D01*
X0152467Y0119302D01*
X0177021Y0110069D02*
X0177788Y0109302D01*
X0179323Y0110069D02*
X0181625Y0110069D01*
X0182392Y0109302D01*
M02*
