%
M48
M72
T01C0.02400
T02C0.03543
T03C0.04000
T04C0.07874
%
T01
X116800Y74300
X136800Y64300
X141800Y69300
X161800Y79300
X189300Y106800
X204300Y101800
X244300Y136800
X146800Y111800
X134300Y116800
X104300Y121800
X234300Y56800
X229300Y26800
T02
X211800Y46800
X201800Y46800
X191800Y46800
X181800Y46800
X171800Y46800
X161800Y46800
X151800Y46800
X141800Y46800
X131800Y46800
X121800Y46800
X111800Y46800
X101800Y46800
X91800Y46800
X81800Y46800
X71800Y46800
X141800Y26800
X141800Y11800
X171800Y11800
X171800Y26800
X171800Y146800
X161800Y146800
X151800Y146800
X141800Y146800
X131800Y146800
X121800Y146800
X111800Y146800
X101800Y146800
X91800Y146800
X81800Y146800
X71800Y146800
X181800Y146800
X191800Y146800
X201800Y146800
X211800Y146800
T03
X211800Y172300
X221800Y171300
X231800Y172300
X241800Y171300
X267300Y146800
X266300Y136800
X267300Y126800
X266300Y116800
X267300Y106800
X266300Y96800
X267300Y86800
X266300Y76800
X267300Y66800
X266300Y56800
X267300Y46800
X241800Y11300
X231800Y12300
X221800Y11300
X211800Y12300
X116800Y11100
X116800Y22500
X91800Y22500
X91800Y11100
X61800Y17300
X51800Y16300
X41800Y17300
X20800Y71800
X21800Y81800
X20800Y91800
X21800Y101800
X20800Y111800
X21800Y121800
X131100Y171800
X142500Y171800
T04
X11800Y11800
X11800Y171800
X271800Y171800
X271800Y11800
M30
