G75*
%MOIN*%
%OFA0B0*%
%FSLAX25Y25*%
%IPPOS*%
%LPD*%
%AMOC8*
5,1,8,0,0,1.08239X$1,22.5*
%
%ADD10C,0.08674*%
%ADD11C,0.08200*%
%ADD12C,0.08400*%
%ADD13C,0.05200*%
D10*
X0011800Y0011800D03*
X0011800Y0171800D03*
X0271800Y0171800D03*
X0271800Y0011800D03*
D11*
X0241800Y0011300D03*
X0231800Y0012300D03*
X0221800Y0011300D03*
X0211800Y0012300D03*
X0171800Y0011800D03*
X0171800Y0026800D03*
X0141800Y0026800D03*
X0141800Y0011800D03*
X0116800Y0011100D03*
X0116800Y0022500D03*
X0091800Y0022500D03*
X0091800Y0011100D03*
X0061800Y0017300D03*
X0051800Y0016300D03*
X0041800Y0017300D03*
X0020800Y0071800D03*
X0021800Y0081800D03*
X0020800Y0091800D03*
X0021800Y0101800D03*
X0020800Y0111800D03*
X0021800Y0121800D03*
X0131100Y0171800D03*
X0142500Y0171800D03*
X0211800Y0172300D03*
X0221800Y0171300D03*
X0231800Y0172300D03*
X0241800Y0171300D03*
X0267300Y0146800D03*
X0266300Y0136800D03*
X0267300Y0126800D03*
X0266300Y0116800D03*
X0267300Y0106800D03*
X0266300Y0096800D03*
X0267300Y0086800D03*
X0266300Y0076800D03*
X0267300Y0066800D03*
X0266300Y0056800D03*
X0267300Y0046800D03*
D12*
X0211800Y0043000D02*
X0211800Y0050600D01*
X0201800Y0050600D02*
X0201800Y0043000D01*
X0191800Y0043000D02*
X0191800Y0050600D01*
X0181800Y0050600D02*
X0181800Y0043000D01*
X0171800Y0043000D02*
X0171800Y0050600D01*
X0161800Y0050600D02*
X0161800Y0043000D01*
X0151800Y0043000D02*
X0151800Y0050600D01*
X0141800Y0050600D02*
X0141800Y0043000D01*
X0131800Y0043000D02*
X0131800Y0050600D01*
X0121800Y0050600D02*
X0121800Y0043000D01*
X0111800Y0043000D02*
X0111800Y0050600D01*
X0101800Y0050600D02*
X0101800Y0043000D01*
X0091800Y0043000D02*
X0091800Y0050600D01*
X0081800Y0050600D02*
X0081800Y0043000D01*
X0071800Y0043000D02*
X0071800Y0050600D01*
X0071800Y0143000D02*
X0071800Y0150600D01*
X0081800Y0150600D02*
X0081800Y0143000D01*
X0091800Y0143000D02*
X0091800Y0150600D01*
X0101800Y0150600D02*
X0101800Y0143000D01*
X0111800Y0143000D02*
X0111800Y0150600D01*
X0121800Y0150600D02*
X0121800Y0143000D01*
X0131800Y0143000D02*
X0131800Y0150600D01*
X0141800Y0150600D02*
X0141800Y0143000D01*
X0151800Y0143000D02*
X0151800Y0150600D01*
X0161800Y0150600D02*
X0161800Y0143000D01*
X0171800Y0143000D02*
X0171800Y0150600D01*
X0181800Y0150600D02*
X0181800Y0143000D01*
X0191800Y0143000D02*
X0191800Y0150600D01*
X0201800Y0150600D02*
X0201800Y0143000D01*
X0211800Y0143000D02*
X0211800Y0150600D01*
D13*
X0244300Y0136800D03*
X0204300Y0101800D03*
X0189300Y0106800D03*
X0161800Y0079300D03*
X0141800Y0069300D03*
X0136800Y0064300D03*
X0116800Y0074300D03*
X0146800Y0111800D03*
X0134300Y0116800D03*
X0104300Y0121800D03*
X0234300Y0056800D03*
X0229300Y0026800D03*
M02*
