G75*
%MOIN*%
%OFA0B0*%
%FSLAX25Y25*%
%IPPOS*%
%LPD*%
%AMOC8*
5,1,8,0,0,1.08239X$1,22.5*
%
%ADD10C,0.07400*%
%ADD11C,0.07600*%
%ADD12C,0.02000*%
%ADD13C,0.04000*%
%ADD14C,0.04400*%
D10*
X0041800Y0017300D03*
X0051800Y0016300D03*
X0061800Y0017300D03*
X0091800Y0022500D03*
X0091800Y0011100D03*
X0116800Y0011100D03*
X0116800Y0022500D03*
X0141800Y0026800D03*
X0141800Y0011800D03*
X0171800Y0011800D03*
X0171800Y0026800D03*
X0211800Y0012300D03*
X0221800Y0011300D03*
X0231800Y0012300D03*
X0241800Y0011300D03*
X0267300Y0046800D03*
X0266300Y0056800D03*
X0267300Y0066800D03*
X0266300Y0076800D03*
X0267300Y0086800D03*
X0266300Y0096800D03*
X0267300Y0106800D03*
X0266300Y0116800D03*
X0267300Y0126800D03*
X0266300Y0136800D03*
X0267300Y0146800D03*
X0241800Y0171300D03*
X0231800Y0172300D03*
X0221800Y0171300D03*
X0211800Y0172300D03*
X0142500Y0171800D03*
X0131100Y0171800D03*
X0021800Y0121800D03*
X0020800Y0111800D03*
X0021800Y0101800D03*
X0020800Y0091800D03*
X0021800Y0081800D03*
X0020800Y0071800D03*
D11*
X0071800Y0050600D02*
X0071800Y0043000D01*
X0081800Y0043000D02*
X0081800Y0050600D01*
X0091800Y0050600D02*
X0091800Y0043000D01*
X0101800Y0043000D02*
X0101800Y0050600D01*
X0111800Y0050600D02*
X0111800Y0043000D01*
X0121800Y0043000D02*
X0121800Y0050600D01*
X0131800Y0050600D02*
X0131800Y0043000D01*
X0141800Y0043000D02*
X0141800Y0050600D01*
X0151800Y0050600D02*
X0151800Y0043000D01*
X0161800Y0043000D02*
X0161800Y0050600D01*
X0171800Y0050600D02*
X0171800Y0043000D01*
X0181800Y0043000D02*
X0181800Y0050600D01*
X0191800Y0050600D02*
X0191800Y0043000D01*
X0201800Y0043000D02*
X0201800Y0050600D01*
X0211800Y0050600D02*
X0211800Y0043000D01*
X0211800Y0143000D02*
X0211800Y0150600D01*
X0201800Y0150600D02*
X0201800Y0143000D01*
X0191800Y0143000D02*
X0191800Y0150600D01*
X0181800Y0150600D02*
X0181800Y0143000D01*
X0171800Y0143000D02*
X0171800Y0150600D01*
X0161800Y0150600D02*
X0161800Y0143000D01*
X0151800Y0143000D02*
X0151800Y0150600D01*
X0141800Y0150600D02*
X0141800Y0143000D01*
X0131800Y0143000D02*
X0131800Y0150600D01*
X0121800Y0150600D02*
X0121800Y0143000D01*
X0111800Y0143000D02*
X0111800Y0150600D01*
X0101800Y0150600D02*
X0101800Y0143000D01*
X0091800Y0143000D02*
X0091800Y0150600D01*
X0081800Y0150600D02*
X0081800Y0143000D01*
X0071800Y0143000D02*
X0071800Y0150600D01*
D12*
X0081800Y0146800D02*
X0081800Y0144300D01*
X0104300Y0121800D01*
X0121800Y0129300D02*
X0121800Y0146800D01*
X0131800Y0146800D02*
X0131800Y0126800D01*
X0146800Y0111800D01*
X0134300Y0116800D02*
X0121800Y0129300D01*
X0151800Y0144300D02*
X0151800Y0146800D01*
X0151800Y0144300D02*
X0189300Y0106800D01*
X0204300Y0101800D02*
X0161800Y0144300D01*
X0161800Y0146800D01*
X0171800Y0146800D02*
X0171800Y0144300D01*
X0219300Y0096800D01*
X0219300Y0021800D01*
X0211800Y0014300D01*
X0211800Y0012300D01*
X0221800Y0011800D02*
X0221800Y0011300D01*
X0221800Y0011800D02*
X0224300Y0014300D01*
X0224300Y0101800D01*
X0181800Y0144300D01*
X0181800Y0146800D01*
X0211800Y0146800D02*
X0211800Y0159300D01*
X0221800Y0169300D01*
X0221800Y0171300D01*
X0231800Y0171800D02*
X0231800Y0172300D01*
X0231800Y0171800D02*
X0234300Y0169300D01*
X0234300Y0056800D01*
X0266800Y0046800D02*
X0266800Y0036800D01*
X0241800Y0011800D01*
X0241800Y0011300D01*
X0231800Y0012300D02*
X0231800Y0014300D01*
X0229300Y0016800D01*
X0229300Y0026800D01*
X0229300Y0129300D01*
X0211800Y0146800D01*
X0244300Y0136800D02*
X0264300Y0116800D01*
X0266300Y0116800D01*
X0191800Y0049300D02*
X0161800Y0079300D01*
X0141800Y0069300D02*
X0161800Y0049300D01*
X0161800Y0046800D01*
X0151800Y0046800D02*
X0151800Y0049300D01*
X0136800Y0064300D01*
X0141800Y0049300D02*
X0116800Y0074300D01*
X0141800Y0049300D02*
X0141800Y0046800D01*
X0111800Y0046800D02*
X0111800Y0044300D01*
X0111800Y0041800D01*
X0141800Y0011800D01*
X0116800Y0016800D02*
X0116800Y0022500D01*
X0116800Y0016800D02*
X0089300Y0016800D01*
X0084300Y0021800D01*
X0084300Y0024300D01*
X0099300Y0039300D01*
X0099300Y0044300D01*
X0101800Y0046800D01*
X0111800Y0044300D02*
X0091800Y0024300D01*
X0091800Y0022500D01*
X0171800Y0026800D02*
X0171800Y0011800D01*
X0191800Y0046800D02*
X0191800Y0049300D01*
X0266800Y0046800D02*
X0267300Y0046800D01*
X0021800Y0091800D02*
X0020800Y0091800D01*
D13*
X0034300Y0011800D02*
X0036800Y0009300D01*
X0061800Y0009300D01*
X0061800Y0017300D01*
X0041800Y0017300D02*
X0041800Y0019300D01*
X0049300Y0036800D01*
X0049300Y0099300D01*
X0049300Y0171800D01*
X0131100Y0171800D01*
X0049300Y0099300D02*
X0021800Y0101800D01*
X0021800Y0091800D02*
X0034300Y0089300D01*
X0034300Y0011800D01*
D14*
X0116800Y0074300D03*
X0136800Y0064300D03*
X0141800Y0069300D03*
X0161800Y0079300D03*
X0189300Y0106800D03*
X0204300Y0101800D03*
X0244300Y0136800D03*
X0146800Y0111800D03*
X0134300Y0116800D03*
X0104300Y0121800D03*
X0234300Y0056800D03*
X0229300Y0026800D03*
M02*
