G75*
%MOIN*%
%OFA0B0*%
%FSLAX25Y25*%
%IPPOS*%
%LPD*%
%AMOC8*
5,1,8,0,0,1.08239X$1,22.5*
%
%ADD10C,0.00000*%
%ADD11C,0.01600*%
%ADD12C,0.07400*%
%ADD13C,0.07600*%
%ADD14C,0.02000*%
%ADD15C,0.04000*%
%ADD16C,0.04400*%
D10*
X0007863Y0011800D02*
X0007865Y0011925D01*
X0007871Y0012050D01*
X0007881Y0012174D01*
X0007895Y0012298D01*
X0007912Y0012422D01*
X0007934Y0012545D01*
X0007960Y0012667D01*
X0007989Y0012789D01*
X0008022Y0012909D01*
X0008060Y0013028D01*
X0008100Y0013147D01*
X0008145Y0013263D01*
X0008193Y0013378D01*
X0008245Y0013492D01*
X0008301Y0013604D01*
X0008360Y0013714D01*
X0008422Y0013822D01*
X0008488Y0013929D01*
X0008557Y0014033D01*
X0008630Y0014134D01*
X0008705Y0014234D01*
X0008784Y0014331D01*
X0008866Y0014425D01*
X0008951Y0014517D01*
X0009038Y0014606D01*
X0009129Y0014692D01*
X0009222Y0014775D01*
X0009318Y0014856D01*
X0009416Y0014933D01*
X0009516Y0015007D01*
X0009619Y0015078D01*
X0009724Y0015145D01*
X0009832Y0015210D01*
X0009941Y0015270D01*
X0010052Y0015328D01*
X0010165Y0015381D01*
X0010279Y0015431D01*
X0010395Y0015478D01*
X0010512Y0015520D01*
X0010631Y0015559D01*
X0010751Y0015595D01*
X0010872Y0015626D01*
X0010994Y0015654D01*
X0011116Y0015677D01*
X0011240Y0015697D01*
X0011364Y0015713D01*
X0011488Y0015725D01*
X0011613Y0015733D01*
X0011738Y0015737D01*
X0011862Y0015737D01*
X0011987Y0015733D01*
X0012112Y0015725D01*
X0012236Y0015713D01*
X0012360Y0015697D01*
X0012484Y0015677D01*
X0012606Y0015654D01*
X0012728Y0015626D01*
X0012849Y0015595D01*
X0012969Y0015559D01*
X0013088Y0015520D01*
X0013205Y0015478D01*
X0013321Y0015431D01*
X0013435Y0015381D01*
X0013548Y0015328D01*
X0013659Y0015270D01*
X0013769Y0015210D01*
X0013876Y0015145D01*
X0013981Y0015078D01*
X0014084Y0015007D01*
X0014184Y0014933D01*
X0014282Y0014856D01*
X0014378Y0014775D01*
X0014471Y0014692D01*
X0014562Y0014606D01*
X0014649Y0014517D01*
X0014734Y0014425D01*
X0014816Y0014331D01*
X0014895Y0014234D01*
X0014970Y0014134D01*
X0015043Y0014033D01*
X0015112Y0013929D01*
X0015178Y0013822D01*
X0015240Y0013714D01*
X0015299Y0013604D01*
X0015355Y0013492D01*
X0015407Y0013378D01*
X0015455Y0013263D01*
X0015500Y0013147D01*
X0015540Y0013028D01*
X0015578Y0012909D01*
X0015611Y0012789D01*
X0015640Y0012667D01*
X0015666Y0012545D01*
X0015688Y0012422D01*
X0015705Y0012298D01*
X0015719Y0012174D01*
X0015729Y0012050D01*
X0015735Y0011925D01*
X0015737Y0011800D01*
X0015735Y0011675D01*
X0015729Y0011550D01*
X0015719Y0011426D01*
X0015705Y0011302D01*
X0015688Y0011178D01*
X0015666Y0011055D01*
X0015640Y0010933D01*
X0015611Y0010811D01*
X0015578Y0010691D01*
X0015540Y0010572D01*
X0015500Y0010453D01*
X0015455Y0010337D01*
X0015407Y0010222D01*
X0015355Y0010108D01*
X0015299Y0009996D01*
X0015240Y0009886D01*
X0015178Y0009778D01*
X0015112Y0009671D01*
X0015043Y0009567D01*
X0014970Y0009466D01*
X0014895Y0009366D01*
X0014816Y0009269D01*
X0014734Y0009175D01*
X0014649Y0009083D01*
X0014562Y0008994D01*
X0014471Y0008908D01*
X0014378Y0008825D01*
X0014282Y0008744D01*
X0014184Y0008667D01*
X0014084Y0008593D01*
X0013981Y0008522D01*
X0013876Y0008455D01*
X0013768Y0008390D01*
X0013659Y0008330D01*
X0013548Y0008272D01*
X0013435Y0008219D01*
X0013321Y0008169D01*
X0013205Y0008122D01*
X0013088Y0008080D01*
X0012969Y0008041D01*
X0012849Y0008005D01*
X0012728Y0007974D01*
X0012606Y0007946D01*
X0012484Y0007923D01*
X0012360Y0007903D01*
X0012236Y0007887D01*
X0012112Y0007875D01*
X0011987Y0007867D01*
X0011862Y0007863D01*
X0011738Y0007863D01*
X0011613Y0007867D01*
X0011488Y0007875D01*
X0011364Y0007887D01*
X0011240Y0007903D01*
X0011116Y0007923D01*
X0010994Y0007946D01*
X0010872Y0007974D01*
X0010751Y0008005D01*
X0010631Y0008041D01*
X0010512Y0008080D01*
X0010395Y0008122D01*
X0010279Y0008169D01*
X0010165Y0008219D01*
X0010052Y0008272D01*
X0009941Y0008330D01*
X0009831Y0008390D01*
X0009724Y0008455D01*
X0009619Y0008522D01*
X0009516Y0008593D01*
X0009416Y0008667D01*
X0009318Y0008744D01*
X0009222Y0008825D01*
X0009129Y0008908D01*
X0009038Y0008994D01*
X0008951Y0009083D01*
X0008866Y0009175D01*
X0008784Y0009269D01*
X0008705Y0009366D01*
X0008630Y0009466D01*
X0008557Y0009567D01*
X0008488Y0009671D01*
X0008422Y0009778D01*
X0008360Y0009886D01*
X0008301Y0009996D01*
X0008245Y0010108D01*
X0008193Y0010222D01*
X0008145Y0010337D01*
X0008100Y0010453D01*
X0008060Y0010572D01*
X0008022Y0010691D01*
X0007989Y0010811D01*
X0007960Y0010933D01*
X0007934Y0011055D01*
X0007912Y0011178D01*
X0007895Y0011302D01*
X0007881Y0011426D01*
X0007871Y0011550D01*
X0007865Y0011675D01*
X0007863Y0011800D01*
X0007863Y0171800D02*
X0007865Y0171925D01*
X0007871Y0172050D01*
X0007881Y0172174D01*
X0007895Y0172298D01*
X0007912Y0172422D01*
X0007934Y0172545D01*
X0007960Y0172667D01*
X0007989Y0172789D01*
X0008022Y0172909D01*
X0008060Y0173028D01*
X0008100Y0173147D01*
X0008145Y0173263D01*
X0008193Y0173378D01*
X0008245Y0173492D01*
X0008301Y0173604D01*
X0008360Y0173714D01*
X0008422Y0173822D01*
X0008488Y0173929D01*
X0008557Y0174033D01*
X0008630Y0174134D01*
X0008705Y0174234D01*
X0008784Y0174331D01*
X0008866Y0174425D01*
X0008951Y0174517D01*
X0009038Y0174606D01*
X0009129Y0174692D01*
X0009222Y0174775D01*
X0009318Y0174856D01*
X0009416Y0174933D01*
X0009516Y0175007D01*
X0009619Y0175078D01*
X0009724Y0175145D01*
X0009832Y0175210D01*
X0009941Y0175270D01*
X0010052Y0175328D01*
X0010165Y0175381D01*
X0010279Y0175431D01*
X0010395Y0175478D01*
X0010512Y0175520D01*
X0010631Y0175559D01*
X0010751Y0175595D01*
X0010872Y0175626D01*
X0010994Y0175654D01*
X0011116Y0175677D01*
X0011240Y0175697D01*
X0011364Y0175713D01*
X0011488Y0175725D01*
X0011613Y0175733D01*
X0011738Y0175737D01*
X0011862Y0175737D01*
X0011987Y0175733D01*
X0012112Y0175725D01*
X0012236Y0175713D01*
X0012360Y0175697D01*
X0012484Y0175677D01*
X0012606Y0175654D01*
X0012728Y0175626D01*
X0012849Y0175595D01*
X0012969Y0175559D01*
X0013088Y0175520D01*
X0013205Y0175478D01*
X0013321Y0175431D01*
X0013435Y0175381D01*
X0013548Y0175328D01*
X0013659Y0175270D01*
X0013769Y0175210D01*
X0013876Y0175145D01*
X0013981Y0175078D01*
X0014084Y0175007D01*
X0014184Y0174933D01*
X0014282Y0174856D01*
X0014378Y0174775D01*
X0014471Y0174692D01*
X0014562Y0174606D01*
X0014649Y0174517D01*
X0014734Y0174425D01*
X0014816Y0174331D01*
X0014895Y0174234D01*
X0014970Y0174134D01*
X0015043Y0174033D01*
X0015112Y0173929D01*
X0015178Y0173822D01*
X0015240Y0173714D01*
X0015299Y0173604D01*
X0015355Y0173492D01*
X0015407Y0173378D01*
X0015455Y0173263D01*
X0015500Y0173147D01*
X0015540Y0173028D01*
X0015578Y0172909D01*
X0015611Y0172789D01*
X0015640Y0172667D01*
X0015666Y0172545D01*
X0015688Y0172422D01*
X0015705Y0172298D01*
X0015719Y0172174D01*
X0015729Y0172050D01*
X0015735Y0171925D01*
X0015737Y0171800D01*
X0015735Y0171675D01*
X0015729Y0171550D01*
X0015719Y0171426D01*
X0015705Y0171302D01*
X0015688Y0171178D01*
X0015666Y0171055D01*
X0015640Y0170933D01*
X0015611Y0170811D01*
X0015578Y0170691D01*
X0015540Y0170572D01*
X0015500Y0170453D01*
X0015455Y0170337D01*
X0015407Y0170222D01*
X0015355Y0170108D01*
X0015299Y0169996D01*
X0015240Y0169886D01*
X0015178Y0169778D01*
X0015112Y0169671D01*
X0015043Y0169567D01*
X0014970Y0169466D01*
X0014895Y0169366D01*
X0014816Y0169269D01*
X0014734Y0169175D01*
X0014649Y0169083D01*
X0014562Y0168994D01*
X0014471Y0168908D01*
X0014378Y0168825D01*
X0014282Y0168744D01*
X0014184Y0168667D01*
X0014084Y0168593D01*
X0013981Y0168522D01*
X0013876Y0168455D01*
X0013768Y0168390D01*
X0013659Y0168330D01*
X0013548Y0168272D01*
X0013435Y0168219D01*
X0013321Y0168169D01*
X0013205Y0168122D01*
X0013088Y0168080D01*
X0012969Y0168041D01*
X0012849Y0168005D01*
X0012728Y0167974D01*
X0012606Y0167946D01*
X0012484Y0167923D01*
X0012360Y0167903D01*
X0012236Y0167887D01*
X0012112Y0167875D01*
X0011987Y0167867D01*
X0011862Y0167863D01*
X0011738Y0167863D01*
X0011613Y0167867D01*
X0011488Y0167875D01*
X0011364Y0167887D01*
X0011240Y0167903D01*
X0011116Y0167923D01*
X0010994Y0167946D01*
X0010872Y0167974D01*
X0010751Y0168005D01*
X0010631Y0168041D01*
X0010512Y0168080D01*
X0010395Y0168122D01*
X0010279Y0168169D01*
X0010165Y0168219D01*
X0010052Y0168272D01*
X0009941Y0168330D01*
X0009831Y0168390D01*
X0009724Y0168455D01*
X0009619Y0168522D01*
X0009516Y0168593D01*
X0009416Y0168667D01*
X0009318Y0168744D01*
X0009222Y0168825D01*
X0009129Y0168908D01*
X0009038Y0168994D01*
X0008951Y0169083D01*
X0008866Y0169175D01*
X0008784Y0169269D01*
X0008705Y0169366D01*
X0008630Y0169466D01*
X0008557Y0169567D01*
X0008488Y0169671D01*
X0008422Y0169778D01*
X0008360Y0169886D01*
X0008301Y0169996D01*
X0008245Y0170108D01*
X0008193Y0170222D01*
X0008145Y0170337D01*
X0008100Y0170453D01*
X0008060Y0170572D01*
X0008022Y0170691D01*
X0007989Y0170811D01*
X0007960Y0170933D01*
X0007934Y0171055D01*
X0007912Y0171178D01*
X0007895Y0171302D01*
X0007881Y0171426D01*
X0007871Y0171550D01*
X0007865Y0171675D01*
X0007863Y0171800D01*
X0001800Y0181761D02*
X0280501Y0181761D01*
X0280501Y0001800D01*
X0267863Y0011800D02*
X0267865Y0011925D01*
X0267871Y0012050D01*
X0267881Y0012174D01*
X0267895Y0012298D01*
X0267912Y0012422D01*
X0267934Y0012545D01*
X0267960Y0012667D01*
X0267989Y0012789D01*
X0268022Y0012909D01*
X0268060Y0013028D01*
X0268100Y0013147D01*
X0268145Y0013263D01*
X0268193Y0013378D01*
X0268245Y0013492D01*
X0268301Y0013604D01*
X0268360Y0013714D01*
X0268422Y0013822D01*
X0268488Y0013929D01*
X0268557Y0014033D01*
X0268630Y0014134D01*
X0268705Y0014234D01*
X0268784Y0014331D01*
X0268866Y0014425D01*
X0268951Y0014517D01*
X0269038Y0014606D01*
X0269129Y0014692D01*
X0269222Y0014775D01*
X0269318Y0014856D01*
X0269416Y0014933D01*
X0269516Y0015007D01*
X0269619Y0015078D01*
X0269724Y0015145D01*
X0269832Y0015210D01*
X0269941Y0015270D01*
X0270052Y0015328D01*
X0270165Y0015381D01*
X0270279Y0015431D01*
X0270395Y0015478D01*
X0270512Y0015520D01*
X0270631Y0015559D01*
X0270751Y0015595D01*
X0270872Y0015626D01*
X0270994Y0015654D01*
X0271116Y0015677D01*
X0271240Y0015697D01*
X0271364Y0015713D01*
X0271488Y0015725D01*
X0271613Y0015733D01*
X0271738Y0015737D01*
X0271862Y0015737D01*
X0271987Y0015733D01*
X0272112Y0015725D01*
X0272236Y0015713D01*
X0272360Y0015697D01*
X0272484Y0015677D01*
X0272606Y0015654D01*
X0272728Y0015626D01*
X0272849Y0015595D01*
X0272969Y0015559D01*
X0273088Y0015520D01*
X0273205Y0015478D01*
X0273321Y0015431D01*
X0273435Y0015381D01*
X0273548Y0015328D01*
X0273659Y0015270D01*
X0273769Y0015210D01*
X0273876Y0015145D01*
X0273981Y0015078D01*
X0274084Y0015007D01*
X0274184Y0014933D01*
X0274282Y0014856D01*
X0274378Y0014775D01*
X0274471Y0014692D01*
X0274562Y0014606D01*
X0274649Y0014517D01*
X0274734Y0014425D01*
X0274816Y0014331D01*
X0274895Y0014234D01*
X0274970Y0014134D01*
X0275043Y0014033D01*
X0275112Y0013929D01*
X0275178Y0013822D01*
X0275240Y0013714D01*
X0275299Y0013604D01*
X0275355Y0013492D01*
X0275407Y0013378D01*
X0275455Y0013263D01*
X0275500Y0013147D01*
X0275540Y0013028D01*
X0275578Y0012909D01*
X0275611Y0012789D01*
X0275640Y0012667D01*
X0275666Y0012545D01*
X0275688Y0012422D01*
X0275705Y0012298D01*
X0275719Y0012174D01*
X0275729Y0012050D01*
X0275735Y0011925D01*
X0275737Y0011800D01*
X0275735Y0011675D01*
X0275729Y0011550D01*
X0275719Y0011426D01*
X0275705Y0011302D01*
X0275688Y0011178D01*
X0275666Y0011055D01*
X0275640Y0010933D01*
X0275611Y0010811D01*
X0275578Y0010691D01*
X0275540Y0010572D01*
X0275500Y0010453D01*
X0275455Y0010337D01*
X0275407Y0010222D01*
X0275355Y0010108D01*
X0275299Y0009996D01*
X0275240Y0009886D01*
X0275178Y0009778D01*
X0275112Y0009671D01*
X0275043Y0009567D01*
X0274970Y0009466D01*
X0274895Y0009366D01*
X0274816Y0009269D01*
X0274734Y0009175D01*
X0274649Y0009083D01*
X0274562Y0008994D01*
X0274471Y0008908D01*
X0274378Y0008825D01*
X0274282Y0008744D01*
X0274184Y0008667D01*
X0274084Y0008593D01*
X0273981Y0008522D01*
X0273876Y0008455D01*
X0273768Y0008390D01*
X0273659Y0008330D01*
X0273548Y0008272D01*
X0273435Y0008219D01*
X0273321Y0008169D01*
X0273205Y0008122D01*
X0273088Y0008080D01*
X0272969Y0008041D01*
X0272849Y0008005D01*
X0272728Y0007974D01*
X0272606Y0007946D01*
X0272484Y0007923D01*
X0272360Y0007903D01*
X0272236Y0007887D01*
X0272112Y0007875D01*
X0271987Y0007867D01*
X0271862Y0007863D01*
X0271738Y0007863D01*
X0271613Y0007867D01*
X0271488Y0007875D01*
X0271364Y0007887D01*
X0271240Y0007903D01*
X0271116Y0007923D01*
X0270994Y0007946D01*
X0270872Y0007974D01*
X0270751Y0008005D01*
X0270631Y0008041D01*
X0270512Y0008080D01*
X0270395Y0008122D01*
X0270279Y0008169D01*
X0270165Y0008219D01*
X0270052Y0008272D01*
X0269941Y0008330D01*
X0269831Y0008390D01*
X0269724Y0008455D01*
X0269619Y0008522D01*
X0269516Y0008593D01*
X0269416Y0008667D01*
X0269318Y0008744D01*
X0269222Y0008825D01*
X0269129Y0008908D01*
X0269038Y0008994D01*
X0268951Y0009083D01*
X0268866Y0009175D01*
X0268784Y0009269D01*
X0268705Y0009366D01*
X0268630Y0009466D01*
X0268557Y0009567D01*
X0268488Y0009671D01*
X0268422Y0009778D01*
X0268360Y0009886D01*
X0268301Y0009996D01*
X0268245Y0010108D01*
X0268193Y0010222D01*
X0268145Y0010337D01*
X0268100Y0010453D01*
X0268060Y0010572D01*
X0268022Y0010691D01*
X0267989Y0010811D01*
X0267960Y0010933D01*
X0267934Y0011055D01*
X0267912Y0011178D01*
X0267895Y0011302D01*
X0267881Y0011426D01*
X0267871Y0011550D01*
X0267865Y0011675D01*
X0267863Y0011800D01*
X0267863Y0171800D02*
X0267865Y0171925D01*
X0267871Y0172050D01*
X0267881Y0172174D01*
X0267895Y0172298D01*
X0267912Y0172422D01*
X0267934Y0172545D01*
X0267960Y0172667D01*
X0267989Y0172789D01*
X0268022Y0172909D01*
X0268060Y0173028D01*
X0268100Y0173147D01*
X0268145Y0173263D01*
X0268193Y0173378D01*
X0268245Y0173492D01*
X0268301Y0173604D01*
X0268360Y0173714D01*
X0268422Y0173822D01*
X0268488Y0173929D01*
X0268557Y0174033D01*
X0268630Y0174134D01*
X0268705Y0174234D01*
X0268784Y0174331D01*
X0268866Y0174425D01*
X0268951Y0174517D01*
X0269038Y0174606D01*
X0269129Y0174692D01*
X0269222Y0174775D01*
X0269318Y0174856D01*
X0269416Y0174933D01*
X0269516Y0175007D01*
X0269619Y0175078D01*
X0269724Y0175145D01*
X0269832Y0175210D01*
X0269941Y0175270D01*
X0270052Y0175328D01*
X0270165Y0175381D01*
X0270279Y0175431D01*
X0270395Y0175478D01*
X0270512Y0175520D01*
X0270631Y0175559D01*
X0270751Y0175595D01*
X0270872Y0175626D01*
X0270994Y0175654D01*
X0271116Y0175677D01*
X0271240Y0175697D01*
X0271364Y0175713D01*
X0271488Y0175725D01*
X0271613Y0175733D01*
X0271738Y0175737D01*
X0271862Y0175737D01*
X0271987Y0175733D01*
X0272112Y0175725D01*
X0272236Y0175713D01*
X0272360Y0175697D01*
X0272484Y0175677D01*
X0272606Y0175654D01*
X0272728Y0175626D01*
X0272849Y0175595D01*
X0272969Y0175559D01*
X0273088Y0175520D01*
X0273205Y0175478D01*
X0273321Y0175431D01*
X0273435Y0175381D01*
X0273548Y0175328D01*
X0273659Y0175270D01*
X0273769Y0175210D01*
X0273876Y0175145D01*
X0273981Y0175078D01*
X0274084Y0175007D01*
X0274184Y0174933D01*
X0274282Y0174856D01*
X0274378Y0174775D01*
X0274471Y0174692D01*
X0274562Y0174606D01*
X0274649Y0174517D01*
X0274734Y0174425D01*
X0274816Y0174331D01*
X0274895Y0174234D01*
X0274970Y0174134D01*
X0275043Y0174033D01*
X0275112Y0173929D01*
X0275178Y0173822D01*
X0275240Y0173714D01*
X0275299Y0173604D01*
X0275355Y0173492D01*
X0275407Y0173378D01*
X0275455Y0173263D01*
X0275500Y0173147D01*
X0275540Y0173028D01*
X0275578Y0172909D01*
X0275611Y0172789D01*
X0275640Y0172667D01*
X0275666Y0172545D01*
X0275688Y0172422D01*
X0275705Y0172298D01*
X0275719Y0172174D01*
X0275729Y0172050D01*
X0275735Y0171925D01*
X0275737Y0171800D01*
X0275735Y0171675D01*
X0275729Y0171550D01*
X0275719Y0171426D01*
X0275705Y0171302D01*
X0275688Y0171178D01*
X0275666Y0171055D01*
X0275640Y0170933D01*
X0275611Y0170811D01*
X0275578Y0170691D01*
X0275540Y0170572D01*
X0275500Y0170453D01*
X0275455Y0170337D01*
X0275407Y0170222D01*
X0275355Y0170108D01*
X0275299Y0169996D01*
X0275240Y0169886D01*
X0275178Y0169778D01*
X0275112Y0169671D01*
X0275043Y0169567D01*
X0274970Y0169466D01*
X0274895Y0169366D01*
X0274816Y0169269D01*
X0274734Y0169175D01*
X0274649Y0169083D01*
X0274562Y0168994D01*
X0274471Y0168908D01*
X0274378Y0168825D01*
X0274282Y0168744D01*
X0274184Y0168667D01*
X0274084Y0168593D01*
X0273981Y0168522D01*
X0273876Y0168455D01*
X0273768Y0168390D01*
X0273659Y0168330D01*
X0273548Y0168272D01*
X0273435Y0168219D01*
X0273321Y0168169D01*
X0273205Y0168122D01*
X0273088Y0168080D01*
X0272969Y0168041D01*
X0272849Y0168005D01*
X0272728Y0167974D01*
X0272606Y0167946D01*
X0272484Y0167923D01*
X0272360Y0167903D01*
X0272236Y0167887D01*
X0272112Y0167875D01*
X0271987Y0167867D01*
X0271862Y0167863D01*
X0271738Y0167863D01*
X0271613Y0167867D01*
X0271488Y0167875D01*
X0271364Y0167887D01*
X0271240Y0167903D01*
X0271116Y0167923D01*
X0270994Y0167946D01*
X0270872Y0167974D01*
X0270751Y0168005D01*
X0270631Y0168041D01*
X0270512Y0168080D01*
X0270395Y0168122D01*
X0270279Y0168169D01*
X0270165Y0168219D01*
X0270052Y0168272D01*
X0269941Y0168330D01*
X0269831Y0168390D01*
X0269724Y0168455D01*
X0269619Y0168522D01*
X0269516Y0168593D01*
X0269416Y0168667D01*
X0269318Y0168744D01*
X0269222Y0168825D01*
X0269129Y0168908D01*
X0269038Y0168994D01*
X0268951Y0169083D01*
X0268866Y0169175D01*
X0268784Y0169269D01*
X0268705Y0169366D01*
X0268630Y0169466D01*
X0268557Y0169567D01*
X0268488Y0169671D01*
X0268422Y0169778D01*
X0268360Y0169886D01*
X0268301Y0169996D01*
X0268245Y0170108D01*
X0268193Y0170222D01*
X0268145Y0170337D01*
X0268100Y0170453D01*
X0268060Y0170572D01*
X0268022Y0170691D01*
X0267989Y0170811D01*
X0267960Y0170933D01*
X0267934Y0171055D01*
X0267912Y0171178D01*
X0267895Y0171302D01*
X0267881Y0171426D01*
X0267871Y0171550D01*
X0267865Y0171675D01*
X0267863Y0171800D01*
D11*
X0001800Y0181761D02*
X0001800Y0001800D01*
X0280501Y0001800D01*
X0281800Y0001800D01*
X0281800Y0181800D01*
X0001800Y0181800D01*
X0001800Y0181761D01*
D12*
X0021800Y0121800D03*
X0020800Y0111800D03*
X0021800Y0101800D03*
X0020800Y0091800D03*
X0021800Y0081800D03*
X0020800Y0071800D03*
X0091800Y0022500D03*
X0091800Y0011100D03*
X0116800Y0011100D03*
X0116800Y0022500D03*
X0141800Y0026800D03*
X0141800Y0011800D03*
X0171800Y0011800D03*
X0171800Y0026800D03*
X0211800Y0012300D03*
X0221800Y0011300D03*
X0231800Y0012300D03*
X0241800Y0011300D03*
X0267300Y0046800D03*
X0266300Y0056800D03*
X0267300Y0066800D03*
X0266300Y0076800D03*
X0267300Y0086800D03*
X0266300Y0096800D03*
X0267300Y0106800D03*
X0266300Y0116800D03*
X0267300Y0126800D03*
X0266300Y0136800D03*
X0267300Y0146800D03*
X0241800Y0171300D03*
X0231800Y0172300D03*
X0221800Y0171300D03*
X0211800Y0172300D03*
X0142500Y0171800D03*
X0131100Y0171800D03*
X0061800Y0017300D03*
X0051800Y0016300D03*
X0041800Y0017300D03*
D13*
X0071800Y0043000D02*
X0071800Y0050600D01*
X0081800Y0050600D02*
X0081800Y0043000D01*
X0091800Y0043000D02*
X0091800Y0050600D01*
X0101800Y0050600D02*
X0101800Y0043000D01*
X0111800Y0043000D02*
X0111800Y0050600D01*
X0121800Y0050600D02*
X0121800Y0043000D01*
X0131800Y0043000D02*
X0131800Y0050600D01*
X0141800Y0050600D02*
X0141800Y0043000D01*
X0151800Y0043000D02*
X0151800Y0050600D01*
X0161800Y0050600D02*
X0161800Y0043000D01*
X0171800Y0043000D02*
X0171800Y0050600D01*
X0181800Y0050600D02*
X0181800Y0043000D01*
X0191800Y0043000D02*
X0191800Y0050600D01*
X0201800Y0050600D02*
X0201800Y0043000D01*
X0211800Y0043000D02*
X0211800Y0050600D01*
X0211800Y0143000D02*
X0211800Y0150600D01*
X0201800Y0150600D02*
X0201800Y0143000D01*
X0191800Y0143000D02*
X0191800Y0150600D01*
X0181800Y0150600D02*
X0181800Y0143000D01*
X0171800Y0143000D02*
X0171800Y0150600D01*
X0161800Y0150600D02*
X0161800Y0143000D01*
X0151800Y0143000D02*
X0151800Y0150600D01*
X0141800Y0150600D02*
X0141800Y0143000D01*
X0131800Y0143000D02*
X0131800Y0150600D01*
X0121800Y0150600D02*
X0121800Y0143000D01*
X0111800Y0143000D02*
X0111800Y0150600D01*
X0101800Y0150600D02*
X0101800Y0143000D01*
X0091800Y0143000D02*
X0091800Y0150600D01*
X0081800Y0150600D02*
X0081800Y0143000D01*
X0071800Y0143000D02*
X0071800Y0150600D01*
D14*
X0071800Y0146800D02*
X0071800Y0144300D01*
X0089300Y0126800D01*
X0254300Y0126800D01*
X0264300Y0136800D01*
X0266300Y0136800D01*
X0266800Y0126800D02*
X0267300Y0126800D01*
X0266800Y0126800D02*
X0261800Y0121800D01*
X0104300Y0121800D01*
X0119300Y0136800D02*
X0111800Y0144300D01*
X0111800Y0146800D01*
X0119300Y0136800D02*
X0244300Y0136800D01*
X0267300Y0146800D02*
X0211800Y0146800D01*
X0199300Y0156800D02*
X0191800Y0149300D01*
X0191800Y0146800D01*
X0199300Y0156800D02*
X0229300Y0156800D01*
X0241800Y0169300D01*
X0241800Y0171300D01*
X0211800Y0171800D02*
X0211800Y0172300D01*
X0211800Y0171800D02*
X0142500Y0171800D01*
X0141800Y0171800D01*
X0134300Y0116800D02*
X0256800Y0116800D01*
X0266800Y0106800D01*
X0267300Y0106800D01*
X0266300Y0096800D02*
X0264300Y0096800D01*
X0249300Y0111800D01*
X0146800Y0111800D01*
X0189300Y0106800D02*
X0246800Y0106800D01*
X0266800Y0086800D01*
X0267300Y0086800D01*
X0266300Y0076800D02*
X0264300Y0076800D01*
X0239300Y0101800D01*
X0204300Y0101800D01*
X0161800Y0079300D02*
X0064300Y0079300D01*
X0021800Y0121800D01*
X0021800Y0111800D02*
X0020800Y0111800D01*
X0021800Y0111800D02*
X0059300Y0074300D01*
X0116800Y0074300D01*
X0136800Y0064300D02*
X0029300Y0064300D01*
X0021800Y0071800D01*
X0020800Y0071800D01*
X0021800Y0081800D02*
X0034300Y0069300D01*
X0141800Y0069300D01*
X0144300Y0061800D02*
X0131800Y0049300D01*
X0131800Y0046800D01*
X0144300Y0061800D02*
X0259300Y0061800D01*
X0264300Y0056800D01*
X0266300Y0056800D01*
X0269300Y0061800D02*
X0274300Y0056800D01*
X0274300Y0031800D01*
X0184300Y0031800D01*
X0171800Y0044300D01*
X0171800Y0046800D01*
X0181800Y0046800D02*
X0181800Y0049300D01*
X0189300Y0056800D01*
X0234300Y0056800D01*
X0256800Y0036800D02*
X0266800Y0046800D01*
X0267300Y0046800D01*
X0256800Y0036800D02*
X0201800Y0036800D01*
X0201800Y0046800D01*
X0229300Y0026800D02*
X0171800Y0026800D01*
X0164300Y0034300D01*
X0069300Y0034300D01*
X0051800Y0016800D01*
X0051800Y0016300D01*
X0061800Y0016800D02*
X0061800Y0017300D01*
X0061800Y0016800D02*
X0066800Y0011800D01*
X0091800Y0011800D01*
X0091800Y0011100D01*
X0091800Y0011800D02*
X0116800Y0011800D01*
X0116800Y0011100D01*
X0116800Y0011800D02*
X0124300Y0019300D01*
X0234300Y0019300D01*
X0241800Y0011800D01*
X0241800Y0011300D01*
X0269300Y0061800D02*
X0269300Y0066800D01*
X0267300Y0066800D01*
X0141800Y0026800D02*
X0119300Y0026800D01*
X0116800Y0024300D01*
X0116800Y0022500D01*
D15*
X0020800Y0091800D02*
X0009300Y0091800D01*
X0009300Y0124300D01*
X0046800Y0161800D01*
X0141800Y0161800D01*
X0141800Y0171800D01*
D16*
X0104300Y0121800D03*
X0134300Y0116800D03*
X0146800Y0111800D03*
X0189300Y0106800D03*
X0204300Y0101800D03*
X0161800Y0079300D03*
X0141800Y0069300D03*
X0136800Y0064300D03*
X0116800Y0074300D03*
X0229300Y0026800D03*
X0234300Y0056800D03*
X0244300Y0136800D03*
M02*
