G75*
%MOIN*%
%OFA0B0*%
%FSLAX25Y25*%
%IPPOS*%
%LPD*%
%AMOC8*
5,1,8,0,0,1.08239X$1,22.5*
%
%ADD10C,0.00600*%
%ADD11C,0.00300*%
%ADD12C,0.00400*%
%ADD13C,0.00200*%
%ADD14C,0.00800*%
D10*
X0212100Y0022100D02*
X0216370Y0022100D01*
X0218545Y0022100D02*
X0218545Y0028505D01*
X0222816Y0022100D01*
X0222816Y0028505D01*
X0224991Y0027438D02*
X0224991Y0023168D01*
X0226059Y0022100D01*
X0228194Y0022100D01*
X0229261Y0023168D01*
X0231436Y0021032D02*
X0235707Y0021032D01*
X0237882Y0022100D02*
X0241085Y0022100D01*
X0242152Y0023168D01*
X0242152Y0027438D01*
X0241085Y0028505D01*
X0237882Y0028505D01*
X0237882Y0022100D01*
X0229261Y0027438D02*
X0228194Y0028505D01*
X0226059Y0028505D01*
X0224991Y0027438D01*
X0216370Y0028505D02*
X0212100Y0028505D01*
X0212100Y0022100D01*
X0212100Y0025303D02*
X0214235Y0025303D01*
X0231436Y0156032D02*
X0235707Y0156032D01*
X0237882Y0157100D02*
X0242152Y0157100D01*
X0240017Y0160303D02*
X0237882Y0160303D01*
X0237882Y0163505D02*
X0237882Y0157100D01*
X0229261Y0158168D02*
X0228194Y0157100D01*
X0226059Y0157100D01*
X0224991Y0158168D01*
X0224991Y0162438D01*
X0226059Y0163505D01*
X0228194Y0163505D01*
X0229261Y0162438D01*
X0222816Y0163505D02*
X0222816Y0157100D01*
X0218545Y0163505D01*
X0218545Y0157100D01*
X0216370Y0157100D02*
X0212100Y0157100D01*
X0212100Y0163505D01*
X0216370Y0163505D01*
X0214235Y0160303D02*
X0212100Y0160303D01*
X0237882Y0163505D02*
X0242152Y0163505D01*
D11*
X0261950Y0155653D02*
X0261950Y0153184D01*
X0263184Y0151950D01*
X0264419Y0153184D01*
X0264419Y0155653D01*
X0265633Y0155036D02*
X0265633Y0152567D01*
X0266250Y0151950D01*
X0267485Y0151950D01*
X0268102Y0152567D01*
X0269316Y0152567D02*
X0269933Y0151950D01*
X0271168Y0151950D01*
X0271785Y0152567D01*
X0269316Y0152567D02*
X0269316Y0155036D01*
X0269933Y0155653D01*
X0271168Y0155653D01*
X0271785Y0155036D01*
X0268102Y0155036D02*
X0267485Y0155653D01*
X0266250Y0155653D01*
X0265633Y0155036D01*
X0257485Y0135653D02*
X0258102Y0135036D01*
X0258102Y0134419D01*
X0257485Y0133802D01*
X0256250Y0133802D01*
X0255633Y0134419D01*
X0255633Y0135036D01*
X0256250Y0135653D01*
X0257485Y0135653D01*
X0257485Y0133802D02*
X0258102Y0133184D01*
X0258102Y0132567D01*
X0257485Y0131950D01*
X0256250Y0131950D01*
X0255633Y0132567D01*
X0255633Y0133184D01*
X0256250Y0133802D01*
X0254419Y0135036D02*
X0253802Y0135653D01*
X0251950Y0135653D01*
X0251950Y0131950D01*
X0253802Y0131950D01*
X0254419Y0132567D01*
X0254419Y0135036D01*
X0253802Y0125653D02*
X0251950Y0125653D01*
X0251950Y0121950D01*
X0253802Y0121950D01*
X0254419Y0122567D01*
X0254419Y0125036D01*
X0253802Y0125653D01*
X0255633Y0125653D02*
X0258102Y0125653D01*
X0258102Y0125036D01*
X0255633Y0122567D01*
X0255633Y0121950D01*
X0253802Y0115653D02*
X0251950Y0115653D01*
X0251950Y0111950D01*
X0253802Y0111950D01*
X0254419Y0112567D01*
X0254419Y0115036D01*
X0253802Y0115653D01*
X0255633Y0113802D02*
X0257485Y0113802D01*
X0258102Y0113184D01*
X0258102Y0112567D01*
X0257485Y0111950D01*
X0256250Y0111950D01*
X0255633Y0112567D01*
X0255633Y0113802D01*
X0256868Y0115036D01*
X0258102Y0115653D01*
X0258102Y0105653D02*
X0255633Y0105653D01*
X0255633Y0103802D01*
X0256868Y0104419D01*
X0257485Y0104419D01*
X0258102Y0103802D01*
X0258102Y0102567D01*
X0257485Y0101950D01*
X0256250Y0101950D01*
X0255633Y0102567D01*
X0254419Y0102567D02*
X0254419Y0105036D01*
X0253802Y0105653D01*
X0251950Y0105653D01*
X0251950Y0101950D01*
X0253802Y0101950D01*
X0254419Y0102567D01*
X0253802Y0095653D02*
X0251950Y0095653D01*
X0251950Y0091950D01*
X0253802Y0091950D01*
X0254419Y0092567D01*
X0254419Y0095036D01*
X0253802Y0095653D01*
X0255633Y0093802D02*
X0258102Y0093802D01*
X0257485Y0095653D02*
X0257485Y0091950D01*
X0255633Y0093802D02*
X0257485Y0095653D01*
X0257485Y0085653D02*
X0258102Y0085036D01*
X0258102Y0084419D01*
X0257485Y0083802D01*
X0258102Y0083184D01*
X0258102Y0082567D01*
X0257485Y0081950D01*
X0256250Y0081950D01*
X0255633Y0082567D01*
X0254419Y0082567D02*
X0254419Y0085036D01*
X0253802Y0085653D01*
X0251950Y0085653D01*
X0251950Y0081950D01*
X0253802Y0081950D01*
X0254419Y0082567D01*
X0256868Y0083802D02*
X0257485Y0083802D01*
X0257485Y0085653D02*
X0256250Y0085653D01*
X0255633Y0085036D01*
X0256250Y0075653D02*
X0255633Y0075036D01*
X0256250Y0075653D02*
X0257485Y0075653D01*
X0258102Y0075036D01*
X0258102Y0074419D01*
X0255633Y0071950D01*
X0258102Y0071950D01*
X0254419Y0072567D02*
X0254419Y0075036D01*
X0253802Y0075653D01*
X0251950Y0075653D01*
X0251950Y0071950D01*
X0253802Y0071950D01*
X0254419Y0072567D01*
X0253802Y0065653D02*
X0251950Y0065653D01*
X0251950Y0061950D01*
X0253802Y0061950D01*
X0254419Y0062567D01*
X0254419Y0065036D01*
X0253802Y0065653D01*
X0255633Y0064419D02*
X0256868Y0065653D01*
X0256868Y0061950D01*
X0258102Y0061950D02*
X0255633Y0061950D01*
X0256257Y0055653D02*
X0254405Y0055653D01*
X0254405Y0051950D01*
X0253184Y0051950D02*
X0251950Y0051950D01*
X0252567Y0051950D02*
X0252567Y0055653D01*
X0251950Y0055653D02*
X0253184Y0055653D01*
X0256257Y0055653D02*
X0256874Y0055036D01*
X0256874Y0053802D01*
X0256257Y0053184D01*
X0254405Y0053184D01*
X0255640Y0053184D02*
X0256874Y0051950D01*
X0262567Y0040653D02*
X0261950Y0040036D01*
X0261950Y0037567D01*
X0262567Y0036950D01*
X0263802Y0036950D01*
X0264419Y0037567D01*
X0264419Y0038802D01*
X0263184Y0038802D01*
X0264419Y0040036D02*
X0263802Y0040653D01*
X0262567Y0040653D01*
X0265633Y0040653D02*
X0268102Y0036950D01*
X0268102Y0040653D01*
X0269316Y0040653D02*
X0271168Y0040653D01*
X0271785Y0040036D01*
X0271785Y0037567D01*
X0271168Y0036950D01*
X0269316Y0036950D01*
X0269316Y0040653D01*
X0265633Y0040653D02*
X0265633Y0036950D01*
X0041785Y0066950D02*
X0041785Y0069419D01*
X0040551Y0070653D01*
X0039316Y0069419D01*
X0039316Y0066950D01*
X0038102Y0066950D02*
X0035633Y0066950D01*
X0036868Y0066950D02*
X0036868Y0070653D01*
X0035633Y0069419D01*
X0034419Y0069419D02*
X0033802Y0068802D01*
X0031950Y0068802D01*
X0031950Y0070653D02*
X0031950Y0066950D01*
X0033802Y0066950D01*
X0034419Y0067567D01*
X0034419Y0068184D01*
X0033802Y0068802D01*
X0034419Y0069419D02*
X0034419Y0070036D01*
X0033802Y0070653D01*
X0031950Y0070653D01*
X0039316Y0068802D02*
X0041785Y0068802D01*
X0041168Y0076950D02*
X0039316Y0076950D01*
X0039316Y0080653D01*
X0041168Y0080653D01*
X0041785Y0080036D01*
X0041785Y0079419D01*
X0041168Y0078802D01*
X0039316Y0078802D01*
X0041168Y0078802D02*
X0041785Y0078184D01*
X0041785Y0077567D01*
X0041168Y0076950D01*
X0038102Y0076950D02*
X0035633Y0076950D01*
X0036868Y0076950D02*
X0036868Y0080653D01*
X0035633Y0079419D01*
X0034419Y0079419D02*
X0033802Y0078802D01*
X0031950Y0078802D01*
X0031950Y0080653D02*
X0031950Y0076950D01*
X0033802Y0076950D01*
X0034419Y0077567D01*
X0034419Y0078184D01*
X0033802Y0078802D01*
X0034419Y0079419D02*
X0034419Y0080036D01*
X0033802Y0080653D01*
X0031950Y0080653D01*
X0032567Y0086950D02*
X0033802Y0086950D01*
X0034419Y0087567D01*
X0034419Y0088802D01*
X0033184Y0088802D01*
X0031950Y0090036D02*
X0031950Y0087567D01*
X0032567Y0086950D01*
X0035633Y0086950D02*
X0035633Y0090653D01*
X0038102Y0086950D01*
X0038102Y0090653D01*
X0039316Y0090653D02*
X0041168Y0090653D01*
X0041785Y0090036D01*
X0041785Y0087567D01*
X0041168Y0086950D01*
X0039316Y0086950D01*
X0039316Y0090653D01*
X0034419Y0090036D02*
X0033802Y0090653D01*
X0032567Y0090653D01*
X0031950Y0090036D01*
X0033184Y0096950D02*
X0034419Y0098184D01*
X0034419Y0100653D01*
X0035633Y0100036D02*
X0035633Y0097567D01*
X0036250Y0096950D01*
X0037485Y0096950D01*
X0038102Y0097567D01*
X0039316Y0097567D02*
X0039933Y0096950D01*
X0041168Y0096950D01*
X0041785Y0097567D01*
X0039316Y0097567D02*
X0039316Y0100036D01*
X0039933Y0100653D01*
X0041168Y0100653D01*
X0041785Y0100036D01*
X0038102Y0100036D02*
X0037485Y0100653D01*
X0036250Y0100653D01*
X0035633Y0100036D01*
X0031950Y0100653D02*
X0031950Y0098184D01*
X0033184Y0096950D01*
X0031950Y0106950D02*
X0031950Y0109419D01*
X0033184Y0110653D01*
X0034419Y0109419D01*
X0034419Y0106950D01*
X0035633Y0106950D02*
X0038102Y0106950D01*
X0039316Y0106950D02*
X0039316Y0109419D01*
X0040551Y0110653D01*
X0041785Y0109419D01*
X0041785Y0106950D01*
X0041785Y0108802D02*
X0039316Y0108802D01*
X0036868Y0110653D02*
X0036868Y0106950D01*
X0035633Y0109419D02*
X0036868Y0110653D01*
X0034419Y0108802D02*
X0031950Y0108802D01*
X0031950Y0116950D02*
X0031950Y0119419D01*
X0033184Y0120653D01*
X0034419Y0119419D01*
X0034419Y0116950D01*
X0035633Y0116950D02*
X0038102Y0116950D01*
X0039316Y0116950D02*
X0041168Y0116950D01*
X0041785Y0117567D01*
X0041785Y0118184D01*
X0041168Y0118802D01*
X0039316Y0118802D01*
X0039316Y0120653D02*
X0039316Y0116950D01*
X0036868Y0116950D02*
X0036868Y0120653D01*
X0035633Y0119419D01*
X0034419Y0118802D02*
X0031950Y0118802D01*
X0039316Y0120653D02*
X0041168Y0120653D01*
X0041785Y0120036D01*
X0041785Y0119419D01*
X0041168Y0118802D01*
D12*
X0041158Y0157000D02*
X0040391Y0157767D01*
X0040391Y0159302D01*
X0041158Y0160069D01*
X0042693Y0160069D01*
X0043460Y0159302D01*
X0043460Y0157767D01*
X0042693Y0157000D01*
X0041158Y0157000D01*
X0038856Y0157767D02*
X0038856Y0159302D01*
X0038089Y0160069D01*
X0035787Y0160069D01*
X0035787Y0161604D02*
X0035787Y0157000D01*
X0038089Y0157000D01*
X0038856Y0157767D01*
X0034252Y0157767D02*
X0034252Y0159302D01*
X0033485Y0160069D01*
X0031950Y0160069D01*
X0031183Y0159302D01*
X0031183Y0157767D01*
X0031950Y0157000D01*
X0033485Y0157000D01*
X0034252Y0157767D01*
X0029648Y0157000D02*
X0028114Y0158535D01*
X0028881Y0158535D02*
X0026579Y0158535D01*
X0026579Y0157000D02*
X0026579Y0161604D01*
X0028881Y0161604D01*
X0029648Y0160837D01*
X0029648Y0159302D01*
X0028881Y0158535D01*
X0020441Y0159302D02*
X0019673Y0159302D01*
X0019673Y0160069D01*
X0020441Y0160069D01*
X0020441Y0159302D01*
X0020441Y0157767D02*
X0019673Y0157767D01*
X0019673Y0157000D01*
X0020441Y0157000D01*
X0020441Y0157767D01*
X0018139Y0157000D02*
X0016604Y0157000D01*
X0017371Y0157000D02*
X0017371Y0161604D01*
X0016604Y0161604D02*
X0018139Y0161604D01*
X0015069Y0160837D02*
X0015069Y0159302D01*
X0014302Y0158535D01*
X0012000Y0158535D01*
X0012000Y0157000D02*
X0012000Y0161604D01*
X0014302Y0161604D01*
X0015069Y0160837D01*
X0041158Y0161604D02*
X0042693Y0162371D01*
X0044995Y0160069D02*
X0046529Y0160069D01*
X0045762Y0160837D02*
X0045762Y0157767D01*
X0046529Y0157000D01*
X0048064Y0157000D02*
X0049599Y0157000D01*
X0048831Y0157000D02*
X0048831Y0160069D01*
X0048064Y0160069D01*
X0048831Y0161604D02*
X0048831Y0162371D01*
X0051133Y0159302D02*
X0051901Y0160069D01*
X0054203Y0160069D01*
X0056505Y0160069D02*
X0058039Y0160069D01*
X0058807Y0159302D01*
X0058807Y0157000D01*
X0056505Y0157000D01*
X0055737Y0157767D01*
X0056505Y0158535D01*
X0058807Y0158535D01*
X0054203Y0157000D02*
X0051901Y0157000D01*
X0051133Y0157767D01*
X0051133Y0159302D01*
X0064945Y0159302D02*
X0068014Y0159302D01*
X0074153Y0160837D02*
X0074153Y0157767D01*
X0074920Y0157000D01*
X0076455Y0157000D01*
X0077222Y0157767D01*
X0078757Y0157000D02*
X0080292Y0157000D01*
X0079524Y0157000D02*
X0079524Y0160069D01*
X0078757Y0160069D01*
X0079524Y0161604D02*
X0079524Y0162371D01*
X0081826Y0161604D02*
X0083361Y0163139D01*
X0084895Y0161604D01*
X0084128Y0160069D02*
X0084895Y0159302D01*
X0084895Y0158535D01*
X0081826Y0158535D01*
X0081826Y0159302D02*
X0082593Y0160069D01*
X0084128Y0160069D01*
X0086430Y0160069D02*
X0088732Y0160069D01*
X0089499Y0159302D01*
X0089499Y0157000D01*
X0091034Y0157767D02*
X0091034Y0159302D01*
X0091801Y0160069D01*
X0094103Y0160069D01*
X0095638Y0160069D02*
X0096405Y0160069D01*
X0096405Y0157000D01*
X0095638Y0157000D02*
X0097173Y0157000D01*
X0098707Y0157767D02*
X0099475Y0158535D01*
X0101777Y0158535D01*
X0101777Y0159302D02*
X0101777Y0157000D01*
X0099475Y0157000D01*
X0098707Y0157767D01*
X0101009Y0160069D02*
X0101777Y0159302D01*
X0101009Y0160069D02*
X0099475Y0160069D01*
X0096405Y0161604D02*
X0096405Y0162371D01*
X0094103Y0157000D02*
X0091801Y0157000D01*
X0091034Y0157767D01*
X0086430Y0157000D02*
X0086430Y0160069D01*
X0084128Y0157000D02*
X0082593Y0157000D01*
X0081826Y0157767D01*
X0081826Y0159302D01*
X0077222Y0160837D02*
X0076455Y0161604D01*
X0074920Y0161604D01*
X0074153Y0160837D01*
X0107915Y0159302D02*
X0107915Y0157767D01*
X0108682Y0157000D01*
X0110984Y0157000D01*
X0110984Y0161604D01*
X0110984Y0160069D02*
X0108682Y0160069D01*
X0107915Y0159302D01*
X0112519Y0157767D02*
X0113286Y0158535D01*
X0115588Y0158535D01*
X0115588Y0159302D02*
X0115588Y0157000D01*
X0113286Y0157000D01*
X0112519Y0157767D01*
X0114821Y0160069D02*
X0115588Y0159302D01*
X0114821Y0160069D02*
X0113286Y0160069D01*
X0121727Y0160837D02*
X0121727Y0157767D01*
X0122494Y0157000D01*
X0124029Y0157000D01*
X0124796Y0157767D01*
X0126331Y0157767D02*
X0127098Y0157000D01*
X0128633Y0157000D01*
X0129400Y0157767D01*
X0129400Y0159302D01*
X0128633Y0160069D01*
X0127098Y0160069D01*
X0126331Y0159302D01*
X0126331Y0157767D01*
X0124796Y0160837D02*
X0124029Y0161604D01*
X0122494Y0161604D01*
X0121727Y0160837D01*
X0130935Y0160069D02*
X0130935Y0157000D01*
X0132469Y0157000D02*
X0132469Y0159302D01*
X0133237Y0160069D01*
X0134004Y0159302D01*
X0134004Y0157000D01*
X0135539Y0157000D02*
X0137841Y0157000D01*
X0138608Y0157767D01*
X0138608Y0159302D01*
X0137841Y0160069D01*
X0135539Y0160069D01*
X0135539Y0155465D01*
X0132469Y0159302D02*
X0131702Y0160069D01*
X0130935Y0160069D01*
X0140143Y0160069D02*
X0140143Y0157767D01*
X0140910Y0157000D01*
X0143212Y0157000D01*
X0143212Y0160069D01*
X0144746Y0160069D02*
X0146281Y0160069D01*
X0145514Y0160837D02*
X0145514Y0157767D01*
X0146281Y0157000D01*
X0147816Y0157767D02*
X0148583Y0158535D01*
X0150885Y0158535D01*
X0150885Y0159302D02*
X0150885Y0157000D01*
X0148583Y0157000D01*
X0147816Y0157767D01*
X0150118Y0160069D02*
X0150885Y0159302D01*
X0150118Y0160069D02*
X0148583Y0160069D01*
X0152420Y0159302D02*
X0152420Y0158535D01*
X0153187Y0157767D01*
X0154722Y0157767D01*
X0153954Y0157767D02*
X0153954Y0157000D01*
X0154722Y0156233D01*
X0153954Y0155465D01*
X0153187Y0155465D01*
X0152420Y0156233D01*
X0152420Y0157000D01*
X0152420Y0159302D02*
X0153187Y0160069D01*
X0154722Y0160069D01*
X0156256Y0159302D02*
X0157791Y0159302D01*
X0157791Y0157767D01*
X0158558Y0157000D01*
X0160093Y0157000D01*
X0160860Y0157767D01*
X0160860Y0159302D01*
X0160093Y0160069D01*
X0158558Y0160069D01*
X0157791Y0159302D01*
X0157791Y0158535D02*
X0156256Y0158535D01*
X0156256Y0156233D02*
X0156256Y0161604D01*
X0156604Y0172000D02*
X0156604Y0176604D01*
X0159673Y0172000D01*
X0159673Y0176604D01*
X0161208Y0176604D02*
X0163510Y0176604D01*
X0164277Y0175837D01*
X0164277Y0172767D01*
X0163510Y0172000D01*
X0161208Y0172000D01*
X0161208Y0176604D01*
X0155069Y0175837D02*
X0154302Y0176604D01*
X0152767Y0176604D01*
X0152000Y0175837D01*
X0152000Y0172767D01*
X0152767Y0172000D01*
X0154302Y0172000D01*
X0155069Y0172767D01*
X0155069Y0174302D01*
X0153535Y0174302D01*
X0124277Y0175837D02*
X0123510Y0176604D01*
X0121975Y0176604D01*
X0121208Y0175837D01*
X0121208Y0172767D01*
X0121975Y0172000D01*
X0123510Y0172000D01*
X0124277Y0172767D01*
X0119673Y0172767D02*
X0118906Y0172000D01*
X0117371Y0172000D01*
X0116604Y0172767D01*
X0116604Y0175837D01*
X0117371Y0176604D01*
X0118906Y0176604D01*
X0119673Y0175837D01*
X0115069Y0176604D02*
X0115069Y0173535D01*
X0113535Y0172000D01*
X0112000Y0173535D01*
X0112000Y0176604D01*
X0106600Y0023881D02*
X0106600Y0020812D01*
X0106600Y0022346D02*
X0101996Y0022346D01*
X0103531Y0020812D01*
X0101996Y0019277D02*
X0106600Y0019277D01*
X0101996Y0016208D01*
X0106600Y0016208D01*
X0106600Y0013139D02*
X0101996Y0013139D01*
X0101996Y0014673D02*
X0101996Y0011604D01*
X0102763Y0010069D02*
X0101996Y0009302D01*
X0101996Y0007000D01*
X0106600Y0007000D01*
X0106600Y0009302D01*
X0105833Y0010069D01*
X0105065Y0010069D01*
X0104298Y0009302D01*
X0104298Y0007000D01*
X0104298Y0009302D02*
X0103531Y0010069D01*
X0102763Y0010069D01*
X0081600Y0009302D02*
X0081600Y0007000D01*
X0076996Y0007000D01*
X0076996Y0009302D01*
X0077763Y0010069D01*
X0078531Y0010069D01*
X0079298Y0009302D01*
X0079298Y0007000D01*
X0079298Y0009302D02*
X0080065Y0010069D01*
X0080833Y0010069D01*
X0081600Y0009302D01*
X0076996Y0011604D02*
X0076996Y0014673D01*
X0076996Y0013139D02*
X0081600Y0013139D01*
X0081600Y0016208D02*
X0076996Y0016208D01*
X0081600Y0019277D01*
X0076996Y0019277D01*
X0077763Y0020812D02*
X0076996Y0021579D01*
X0076996Y0023114D01*
X0077763Y0023881D01*
X0078531Y0023881D01*
X0081600Y0020812D01*
X0081600Y0023881D01*
D13*
X0067788Y0027267D02*
X0067788Y0028735D01*
X0067421Y0029102D01*
X0066320Y0029102D01*
X0066320Y0026900D01*
X0067421Y0026900D01*
X0067788Y0027267D01*
X0065578Y0026900D02*
X0065578Y0029102D01*
X0064110Y0029102D02*
X0064110Y0026900D01*
X0063368Y0027267D02*
X0063368Y0028001D01*
X0062634Y0028001D01*
X0063368Y0028735D02*
X0063001Y0029102D01*
X0062267Y0029102D01*
X0061900Y0028735D01*
X0061900Y0027267D01*
X0062267Y0026900D01*
X0063001Y0026900D01*
X0063368Y0027267D01*
X0064110Y0029102D02*
X0065578Y0026900D01*
X0057788Y0027267D02*
X0057421Y0026900D01*
X0056687Y0026900D01*
X0056320Y0027267D01*
X0055578Y0027634D02*
X0054844Y0026900D01*
X0054110Y0027634D01*
X0054110Y0029102D01*
X0053368Y0028735D02*
X0053368Y0028368D01*
X0053001Y0028001D01*
X0053368Y0027634D01*
X0053368Y0027267D01*
X0053001Y0026900D01*
X0052267Y0026900D01*
X0051900Y0027267D01*
X0052634Y0028001D02*
X0053001Y0028001D01*
X0053368Y0028735D02*
X0053001Y0029102D01*
X0052267Y0029102D01*
X0051900Y0028735D01*
X0055578Y0029102D02*
X0055578Y0027634D01*
X0056320Y0028735D02*
X0056687Y0029102D01*
X0057421Y0029102D01*
X0057788Y0028735D01*
X0057788Y0028368D01*
X0057421Y0028001D01*
X0057788Y0027634D01*
X0057788Y0027267D01*
X0057421Y0028001D02*
X0057054Y0028001D01*
X0047788Y0028735D02*
X0047421Y0029102D01*
X0046687Y0029102D01*
X0046320Y0028735D01*
X0046320Y0027267D01*
X0046687Y0026900D01*
X0047421Y0026900D01*
X0047788Y0027267D01*
X0045578Y0027267D02*
X0045211Y0026900D01*
X0044477Y0026900D01*
X0044110Y0027267D01*
X0044110Y0028735D01*
X0044477Y0029102D01*
X0045211Y0029102D01*
X0045578Y0028735D01*
X0043368Y0029102D02*
X0043368Y0027634D01*
X0042634Y0026900D01*
X0041900Y0027634D01*
X0041900Y0029102D01*
D14*
X0036800Y0014300D02*
X0039300Y0011800D01*
X0044300Y0011800D01*
X0046800Y0014300D01*
X0049300Y0011800D01*
X0054300Y0011800D01*
X0056800Y0014300D01*
X0059300Y0011800D01*
X0064300Y0011800D01*
X0066800Y0014300D01*
X0066800Y0019300D01*
X0064300Y0021800D01*
X0059300Y0021800D01*
X0056800Y0019300D01*
X0054300Y0021800D01*
X0049300Y0021800D01*
X0046800Y0019300D01*
X0044300Y0021800D01*
X0039300Y0021800D01*
X0036800Y0019300D01*
X0036800Y0014300D01*
X0086800Y0014300D02*
X0086800Y0009300D01*
X0089300Y0006800D01*
X0094300Y0006800D01*
X0096800Y0009300D01*
X0096800Y0014300D01*
X0094300Y0016800D01*
X0096800Y0019300D01*
X0096800Y0024300D01*
X0094300Y0026800D01*
X0089300Y0026800D01*
X0086800Y0024300D01*
X0086800Y0019300D01*
X0089300Y0016800D01*
X0086800Y0014300D01*
X0111800Y0014300D02*
X0111800Y0009300D01*
X0114300Y0006800D01*
X0119300Y0006800D01*
X0121800Y0009300D01*
X0121800Y0014300D01*
X0119300Y0016800D01*
X0121800Y0019300D01*
X0121800Y0024300D01*
X0119300Y0026800D01*
X0114300Y0026800D01*
X0111800Y0024300D01*
X0111800Y0019300D01*
X0114300Y0016800D01*
X0111800Y0014300D01*
X0145800Y0011800D02*
X0146800Y0011800D01*
X0146800Y0014800D01*
X0166800Y0014800D01*
X0166800Y0011800D01*
X0167800Y0011800D01*
X0166800Y0011800D02*
X0166800Y0008800D01*
X0146800Y0008800D01*
X0146800Y0011800D01*
X0146800Y0023800D02*
X0146800Y0026800D01*
X0145800Y0026800D01*
X0146800Y0026800D02*
X0146800Y0029800D01*
X0166800Y0029800D01*
X0166800Y0026800D01*
X0167800Y0026800D01*
X0166800Y0026800D02*
X0166800Y0023800D01*
X0146800Y0023800D01*
X0206800Y0014300D02*
X0206800Y0009300D01*
X0209300Y0006800D01*
X0214300Y0006800D01*
X0216800Y0009300D01*
X0219300Y0006800D01*
X0224300Y0006800D01*
X0226800Y0009300D01*
X0229300Y0006800D01*
X0234300Y0006800D01*
X0236800Y0009300D01*
X0239300Y0006800D01*
X0244300Y0006800D01*
X0246800Y0009300D01*
X0246800Y0014300D01*
X0244300Y0016800D01*
X0239300Y0016800D01*
X0236800Y0014300D01*
X0234300Y0016800D01*
X0229300Y0016800D01*
X0226800Y0014300D01*
X0224300Y0016800D01*
X0219300Y0016800D01*
X0216800Y0014300D01*
X0214300Y0016800D01*
X0209300Y0016800D01*
X0206800Y0014300D01*
X0261800Y0044300D02*
X0261800Y0049300D01*
X0264300Y0051800D01*
X0261800Y0054300D01*
X0261800Y0059300D01*
X0264300Y0061800D01*
X0261800Y0064300D01*
X0261800Y0069300D01*
X0264300Y0071800D01*
X0261800Y0074300D01*
X0261800Y0079300D01*
X0264300Y0081800D01*
X0261800Y0084300D01*
X0261800Y0089300D01*
X0264300Y0091800D01*
X0261800Y0094300D01*
X0261800Y0099300D01*
X0264300Y0101800D01*
X0261800Y0104300D01*
X0261800Y0109300D01*
X0264300Y0111800D01*
X0261800Y0114300D01*
X0261800Y0119300D01*
X0264300Y0121800D01*
X0261800Y0124300D01*
X0261800Y0129300D01*
X0264300Y0131800D01*
X0261800Y0134300D01*
X0261800Y0139300D01*
X0264300Y0141800D01*
X0261800Y0144300D01*
X0261800Y0149300D01*
X0264300Y0151800D01*
X0269300Y0151800D01*
X0271800Y0149300D01*
X0271800Y0144300D01*
X0269300Y0141800D01*
X0271800Y0139300D01*
X0271800Y0134300D01*
X0269300Y0131800D01*
X0271800Y0129300D01*
X0271800Y0124300D01*
X0269300Y0121800D01*
X0271800Y0119300D01*
X0271800Y0114300D01*
X0269300Y0111800D01*
X0271800Y0109300D01*
X0271800Y0104300D01*
X0269300Y0101800D01*
X0271800Y0099300D01*
X0271800Y0094300D01*
X0269300Y0091800D01*
X0271800Y0089300D01*
X0271800Y0084300D01*
X0269300Y0081800D01*
X0271800Y0079300D01*
X0271800Y0074300D01*
X0269300Y0071800D01*
X0271800Y0069300D01*
X0271800Y0064300D01*
X0269300Y0061800D01*
X0271800Y0059300D01*
X0271800Y0054300D01*
X0269300Y0051800D01*
X0271800Y0049300D01*
X0271800Y0044300D01*
X0269300Y0041800D01*
X0264300Y0041800D01*
X0261800Y0044300D01*
X0244300Y0166800D02*
X0239300Y0166800D01*
X0236800Y0169300D01*
X0234300Y0166800D01*
X0229300Y0166800D01*
X0226800Y0169300D01*
X0224300Y0166800D01*
X0219300Y0166800D01*
X0216800Y0169300D01*
X0214300Y0166800D01*
X0209300Y0166800D01*
X0206800Y0169300D01*
X0206800Y0174300D01*
X0209300Y0176800D01*
X0214300Y0176800D01*
X0216800Y0174300D01*
X0219300Y0176800D01*
X0224300Y0176800D01*
X0226800Y0174300D01*
X0229300Y0176800D01*
X0234300Y0176800D01*
X0236800Y0174300D01*
X0239300Y0176800D01*
X0244300Y0176800D01*
X0246800Y0174300D01*
X0246800Y0169300D01*
X0244300Y0166800D01*
X0146800Y0169300D02*
X0146800Y0174300D01*
X0144300Y0176800D01*
X0139300Y0176800D01*
X0136800Y0174300D01*
X0134300Y0176800D01*
X0129300Y0176800D01*
X0126800Y0174300D01*
X0126800Y0169300D01*
X0129300Y0166800D01*
X0134300Y0166800D01*
X0136800Y0169300D01*
X0139300Y0166800D01*
X0144300Y0166800D01*
X0146800Y0169300D01*
X0026300Y0124300D02*
X0026300Y0119300D01*
X0023800Y0116800D01*
X0026300Y0114300D01*
X0026300Y0109300D01*
X0023800Y0106800D01*
X0026300Y0104300D01*
X0026300Y0099300D01*
X0023800Y0096800D01*
X0026300Y0094300D01*
X0026300Y0089300D01*
X0023800Y0086800D01*
X0026300Y0084300D01*
X0026300Y0079300D01*
X0023800Y0076800D01*
X0026300Y0074300D01*
X0026300Y0069300D01*
X0023800Y0066800D01*
X0018800Y0066800D01*
X0016300Y0069300D01*
X0016300Y0074300D01*
X0018800Y0076800D01*
X0016300Y0079300D01*
X0016300Y0084300D01*
X0018800Y0086800D01*
X0016300Y0089300D01*
X0016300Y0094300D01*
X0018800Y0096800D01*
X0016300Y0099300D01*
X0016300Y0104300D01*
X0018800Y0106800D01*
X0016300Y0109300D01*
X0016300Y0114300D01*
X0018800Y0116800D01*
X0016300Y0119300D01*
X0016300Y0124300D01*
X0018800Y0126800D01*
X0023800Y0126800D01*
X0026300Y0124300D01*
M02*
