G75*
%MOIN*%
%OFA0B0*%
%FSLAX25Y25*%
%IPPOS*%
%LPD*%
%AMOC8*
5,1,8,0,0,1.08239X$1,22.5*
%
%ADD10OC8,0.08600*%
%ADD11C,0.08600*%
%ADD12C,0.15000*%
%ADD13R,0.09500X0.09500*%
%ADD14C,0.09500*%
%ADD15C,0.07400*%
%ADD16C,0.01500*%
%ADD17C,0.04559*%
D10*
X0081000Y0036400D03*
X0081000Y0046400D03*
X0081000Y0056400D03*
X0081000Y0066400D03*
X0081000Y0076400D03*
X0081000Y0086400D03*
X0081000Y0096400D03*
X0081000Y0106400D03*
X0081000Y0116400D03*
X0081000Y0126400D03*
X0081000Y0136400D03*
X0081000Y0146400D03*
X0081000Y0156400D03*
X0081000Y0166400D03*
X0081000Y0176400D03*
X0181000Y0176400D03*
X0181000Y0166400D03*
X0181000Y0156400D03*
X0181000Y0146400D03*
X0181000Y0136400D03*
X0181000Y0126400D03*
X0181000Y0116400D03*
X0181000Y0106400D03*
X0181000Y0096400D03*
X0181000Y0086400D03*
X0181000Y0076400D03*
X0181000Y0066400D03*
X0181000Y0056400D03*
X0181000Y0046400D03*
X0181000Y0036400D03*
D11*
X0231000Y0050900D03*
X0241000Y0051900D03*
X0251000Y0050900D03*
X0261000Y0051900D03*
X0271000Y0050900D03*
X0056000Y0061400D03*
X0046000Y0061400D03*
X0046000Y0076400D03*
X0056000Y0076400D03*
X0056000Y0091400D03*
X0046000Y0091400D03*
X0031000Y0086400D03*
X0021000Y0086400D03*
X0046000Y0106400D03*
X0056000Y0106400D03*
X0031000Y0116400D03*
X0021000Y0116400D03*
X0041000Y0126400D03*
X0056000Y0126400D03*
X0056000Y0156400D03*
X0041000Y0156400D03*
D12*
X0036000Y0173605D03*
X0036000Y0199195D03*
D13*
X0026000Y0036400D03*
D14*
X0039780Y0036400D03*
X0053559Y0036400D03*
D15*
X0031700Y0061400D03*
X0020300Y0061400D03*
D16*
X0009750Y0039150D02*
X0020250Y0028650D01*
X0057000Y0028650D01*
X0062250Y0033900D01*
X0062250Y0039150D01*
X0057000Y0044400D01*
X0057000Y0060150D01*
X0056000Y0061400D01*
X0053500Y0053150D02*
X0046500Y0060150D01*
X0046000Y0061400D01*
X0046500Y0061900D01*
X0046500Y0075900D01*
X0046000Y0076400D01*
X0044750Y0075900D01*
X0036000Y0075900D01*
X0022000Y0061900D01*
X0020300Y0061400D01*
X0013250Y0058400D02*
X0013250Y0109150D01*
X0020250Y0116150D01*
X0021000Y0116400D01*
X0009750Y0116150D02*
X0027250Y0133650D01*
X0072750Y0133650D01*
X0079750Y0126650D01*
X0081000Y0126400D01*
X0088500Y0130150D02*
X0081500Y0137150D01*
X0081000Y0136400D01*
X0088500Y0130150D02*
X0088500Y0112650D01*
X0177750Y0023400D01*
X0233750Y0023400D01*
X0260000Y0049650D01*
X0260000Y0051400D01*
X0261000Y0051900D01*
X0270500Y0049650D02*
X0271000Y0050900D01*
X0270500Y0049650D02*
X0240750Y0019900D01*
X0148000Y0019900D01*
X0081500Y0086400D01*
X0081000Y0086400D01*
X0065750Y0091650D02*
X0079750Y0105650D01*
X0081000Y0106400D01*
X0092000Y0114400D02*
X0092000Y0135400D01*
X0081000Y0146400D01*
X0056000Y0156400D02*
X0055250Y0156400D01*
X0055250Y0170400D01*
X0036000Y0189650D01*
X0036000Y0199195D01*
X0041000Y0126400D02*
X0041250Y0124900D01*
X0041250Y0110900D01*
X0044750Y0107400D01*
X0046000Y0106400D01*
X0064000Y0100400D02*
X0079750Y0116150D01*
X0081000Y0116400D01*
X0092000Y0114400D02*
X0177750Y0028650D01*
X0228500Y0028650D01*
X0249500Y0049650D01*
X0251000Y0050900D01*
X0065750Y0091650D02*
X0057000Y0091650D01*
X0056000Y0091400D01*
X0009750Y0116150D02*
X0009750Y0039150D01*
X0018500Y0053150D02*
X0013250Y0058400D01*
X0018500Y0053150D02*
X0036000Y0053150D01*
X0053500Y0053150D02*
X0053500Y0037400D01*
X0053559Y0036400D01*
D17*
X0036000Y0053150D03*
X0064000Y0100400D03*
M02*
