G75*
%MOIN*%
%OFA0B0*%
%FSLAX25Y25*%
%IPPOS*%
%LPD*%
%AMOC8*
5,1,8,0,0,1.08239X$1,22.5*
%
%ADD10C,0.12611*%
%ADD11OC8,0.09400*%
%ADD12C,0.09400*%
%ADD13C,0.00500*%
%ADD14R,0.10300X0.10300*%
%ADD15C,0.10300*%
%ADD16C,0.08200*%
%ADD17C,0.05359*%
D10*
X0011000Y0026400D03*
X0216000Y0061400D03*
X0291000Y0061400D03*
X0311000Y0026400D03*
X0291000Y0166400D03*
X0311000Y0206400D03*
X0216000Y0166400D03*
X0011000Y0206400D03*
D11*
X0081000Y0176400D03*
X0081000Y0166400D03*
X0081000Y0156400D03*
X0081000Y0146400D03*
X0081000Y0136400D03*
X0081000Y0126400D03*
X0081000Y0116400D03*
X0081000Y0106400D03*
X0081000Y0096400D03*
X0081000Y0086400D03*
X0081000Y0076400D03*
X0081000Y0066400D03*
X0081000Y0056400D03*
X0081000Y0046400D03*
X0081000Y0036400D03*
X0181000Y0036400D03*
X0181000Y0046400D03*
X0181000Y0056400D03*
X0181000Y0066400D03*
X0181000Y0076400D03*
X0181000Y0086400D03*
X0181000Y0096400D03*
X0181000Y0106400D03*
X0181000Y0116400D03*
X0181000Y0126400D03*
X0181000Y0136400D03*
X0181000Y0146400D03*
X0181000Y0156400D03*
X0181000Y0166400D03*
X0181000Y0176400D03*
D12*
X0056000Y0156400D03*
X0041000Y0156400D03*
X0041000Y0126400D03*
X0031000Y0116400D03*
X0021000Y0116400D03*
X0046000Y0106400D03*
X0056000Y0106400D03*
X0056000Y0091400D03*
X0046000Y0091400D03*
X0031000Y0086400D03*
X0021000Y0086400D03*
X0046000Y0076400D03*
X0056000Y0076400D03*
X0056000Y0061400D03*
X0046000Y0061400D03*
X0056000Y0126400D03*
X0231000Y0050900D03*
X0241000Y0051900D03*
X0251000Y0050900D03*
X0261000Y0051900D03*
X0271000Y0050900D03*
D13*
X0039214Y0171710D02*
X0038827Y0171173D01*
X0038352Y0170712D01*
X0037805Y0170341D01*
X0037201Y0170070D01*
X0036560Y0169908D01*
X0035900Y0169860D01*
X0035181Y0169938D01*
X0034491Y0170156D01*
X0033856Y0170504D01*
X0033302Y0170969D01*
X0032849Y0171533D01*
X0032515Y0172175D01*
X0032313Y0172869D01*
X0032250Y0173590D01*
X0032312Y0174315D01*
X0032513Y0175014D01*
X0032848Y0175660D01*
X0033302Y0176228D01*
X0033858Y0176697D01*
X0034494Y0177048D01*
X0035187Y0177269D01*
X0035910Y0177350D01*
X0036570Y0177300D01*
X0037211Y0177136D01*
X0037814Y0176864D01*
X0038360Y0176491D01*
X0038834Y0176029D01*
X0039219Y0175491D01*
X0039506Y0174895D01*
X0039685Y0174258D01*
X0039750Y0173600D01*
X0039683Y0172942D01*
X0039503Y0172305D01*
X0039214Y0171710D01*
X0039324Y0171936D02*
X0032640Y0171936D01*
X0032440Y0172434D02*
X0039539Y0172434D01*
X0039681Y0172933D02*
X0032307Y0172933D01*
X0032264Y0173431D02*
X0039733Y0173431D01*
X0039718Y0173930D02*
X0032279Y0173930D01*
X0032344Y0174428D02*
X0039637Y0174428D01*
X0039491Y0174927D02*
X0032488Y0174927D01*
X0032726Y0175425D02*
X0039251Y0175425D01*
X0038909Y0175924D02*
X0033058Y0175924D01*
X0033532Y0176422D02*
X0038431Y0176422D01*
X0037688Y0176921D02*
X0034263Y0176921D01*
X0032926Y0171437D02*
X0039017Y0171437D01*
X0038585Y0170939D02*
X0033338Y0170939D01*
X0033973Y0170440D02*
X0037951Y0170440D01*
X0036693Y0169941D02*
X0035171Y0169941D01*
X0035900Y0195460D02*
X0035181Y0195538D01*
X0034491Y0195756D01*
X0033856Y0196104D01*
X0033302Y0196569D01*
X0032849Y0197133D01*
X0032515Y0197775D01*
X0032313Y0198469D01*
X0032250Y0199190D01*
X0032312Y0199915D01*
X0032513Y0200614D01*
X0032848Y0201260D01*
X0033302Y0201828D01*
X0033858Y0202297D01*
X0034494Y0202648D01*
X0035187Y0202869D01*
X0035910Y0202950D01*
X0036570Y0202900D01*
X0037211Y0202736D01*
X0037814Y0202464D01*
X0038360Y0202091D01*
X0038834Y0201629D01*
X0039219Y0201091D01*
X0039506Y0200495D01*
X0039685Y0199858D01*
X0039750Y0199200D01*
X0039683Y0198542D01*
X0039503Y0197905D01*
X0039214Y0197310D01*
X0038827Y0196773D01*
X0038352Y0196312D01*
X0037805Y0195941D01*
X0037201Y0195670D01*
X0036560Y0195508D01*
X0035900Y0195460D01*
X0034294Y0195864D02*
X0037634Y0195864D01*
X0038404Y0196363D02*
X0033548Y0196363D01*
X0033068Y0196861D02*
X0038890Y0196861D01*
X0039239Y0197360D02*
X0032731Y0197360D01*
X0032491Y0197858D02*
X0039480Y0197858D01*
X0039631Y0198357D02*
X0032346Y0198357D01*
X0032279Y0198855D02*
X0039715Y0198855D01*
X0039735Y0199354D02*
X0032264Y0199354D01*
X0032306Y0199852D02*
X0039686Y0199852D01*
X0039547Y0200351D02*
X0032437Y0200351D01*
X0032635Y0200849D02*
X0039336Y0200849D01*
X0039035Y0201348D02*
X0032918Y0201348D01*
X0033323Y0201846D02*
X0038611Y0201846D01*
X0037988Y0202345D02*
X0033944Y0202345D01*
X0035108Y0202843D02*
X0036792Y0202843D01*
D14*
X0026000Y0036400D03*
D15*
X0039780Y0036400D03*
X0053559Y0036400D03*
D16*
X0031700Y0061400D03*
X0020300Y0061400D03*
D17*
X0036000Y0053150D03*
X0064000Y0100400D03*
M02*
