G75*
%MOIN*%
%OFA0B0*%
%FSLAX25Y25*%
%IPPOS*%
%LPD*%
%AMOC8*
5,1,8,0,0,1.08239X$1,22.5*
%
%ADD10C,0.00000*%
%ADD11OC8,0.08600*%
%ADD12C,0.08600*%
%ADD13C,0.15000*%
%ADD14R,0.09500X0.09500*%
%ADD15C,0.09500*%
%ADD16C,0.07400*%
%ADD17C,0.01500*%
%ADD18C,0.04559*%
D10*
X0001000Y0016400D02*
X0001000Y0216361D01*
X0319701Y0216361D01*
X0319701Y0016400D01*
X0001000Y0016400D01*
X0005094Y0026400D02*
X0005096Y0026553D01*
X0005102Y0026707D01*
X0005112Y0026860D01*
X0005126Y0027012D01*
X0005144Y0027165D01*
X0005166Y0027316D01*
X0005191Y0027467D01*
X0005221Y0027618D01*
X0005255Y0027768D01*
X0005292Y0027916D01*
X0005333Y0028064D01*
X0005378Y0028210D01*
X0005427Y0028356D01*
X0005480Y0028500D01*
X0005536Y0028642D01*
X0005596Y0028783D01*
X0005660Y0028923D01*
X0005727Y0029061D01*
X0005798Y0029197D01*
X0005873Y0029331D01*
X0005950Y0029463D01*
X0006032Y0029593D01*
X0006116Y0029721D01*
X0006204Y0029847D01*
X0006295Y0029970D01*
X0006389Y0030091D01*
X0006487Y0030209D01*
X0006587Y0030325D01*
X0006691Y0030438D01*
X0006797Y0030549D01*
X0006906Y0030657D01*
X0007018Y0030762D01*
X0007132Y0030863D01*
X0007250Y0030962D01*
X0007369Y0031058D01*
X0007491Y0031151D01*
X0007616Y0031240D01*
X0007743Y0031327D01*
X0007872Y0031409D01*
X0008003Y0031489D01*
X0008136Y0031565D01*
X0008271Y0031638D01*
X0008408Y0031707D01*
X0008547Y0031772D01*
X0008687Y0031834D01*
X0008829Y0031892D01*
X0008972Y0031947D01*
X0009117Y0031998D01*
X0009263Y0032045D01*
X0009410Y0032088D01*
X0009558Y0032127D01*
X0009707Y0032163D01*
X0009857Y0032194D01*
X0010008Y0032222D01*
X0010159Y0032246D01*
X0010312Y0032266D01*
X0010464Y0032282D01*
X0010617Y0032294D01*
X0010770Y0032302D01*
X0010923Y0032306D01*
X0011077Y0032306D01*
X0011230Y0032302D01*
X0011383Y0032294D01*
X0011536Y0032282D01*
X0011688Y0032266D01*
X0011841Y0032246D01*
X0011992Y0032222D01*
X0012143Y0032194D01*
X0012293Y0032163D01*
X0012442Y0032127D01*
X0012590Y0032088D01*
X0012737Y0032045D01*
X0012883Y0031998D01*
X0013028Y0031947D01*
X0013171Y0031892D01*
X0013313Y0031834D01*
X0013453Y0031772D01*
X0013592Y0031707D01*
X0013729Y0031638D01*
X0013864Y0031565D01*
X0013997Y0031489D01*
X0014128Y0031409D01*
X0014257Y0031327D01*
X0014384Y0031240D01*
X0014509Y0031151D01*
X0014631Y0031058D01*
X0014750Y0030962D01*
X0014868Y0030863D01*
X0014982Y0030762D01*
X0015094Y0030657D01*
X0015203Y0030549D01*
X0015309Y0030438D01*
X0015413Y0030325D01*
X0015513Y0030209D01*
X0015611Y0030091D01*
X0015705Y0029970D01*
X0015796Y0029847D01*
X0015884Y0029721D01*
X0015968Y0029593D01*
X0016050Y0029463D01*
X0016127Y0029331D01*
X0016202Y0029197D01*
X0016273Y0029061D01*
X0016340Y0028923D01*
X0016404Y0028783D01*
X0016464Y0028642D01*
X0016520Y0028500D01*
X0016573Y0028356D01*
X0016622Y0028210D01*
X0016667Y0028064D01*
X0016708Y0027916D01*
X0016745Y0027768D01*
X0016779Y0027618D01*
X0016809Y0027467D01*
X0016834Y0027316D01*
X0016856Y0027165D01*
X0016874Y0027012D01*
X0016888Y0026860D01*
X0016898Y0026707D01*
X0016904Y0026553D01*
X0016906Y0026400D01*
X0016904Y0026247D01*
X0016898Y0026093D01*
X0016888Y0025940D01*
X0016874Y0025788D01*
X0016856Y0025635D01*
X0016834Y0025484D01*
X0016809Y0025333D01*
X0016779Y0025182D01*
X0016745Y0025032D01*
X0016708Y0024884D01*
X0016667Y0024736D01*
X0016622Y0024590D01*
X0016573Y0024444D01*
X0016520Y0024300D01*
X0016464Y0024158D01*
X0016404Y0024017D01*
X0016340Y0023877D01*
X0016273Y0023739D01*
X0016202Y0023603D01*
X0016127Y0023469D01*
X0016050Y0023337D01*
X0015968Y0023207D01*
X0015884Y0023079D01*
X0015796Y0022953D01*
X0015705Y0022830D01*
X0015611Y0022709D01*
X0015513Y0022591D01*
X0015413Y0022475D01*
X0015309Y0022362D01*
X0015203Y0022251D01*
X0015094Y0022143D01*
X0014982Y0022038D01*
X0014868Y0021937D01*
X0014750Y0021838D01*
X0014631Y0021742D01*
X0014509Y0021649D01*
X0014384Y0021560D01*
X0014257Y0021473D01*
X0014128Y0021391D01*
X0013997Y0021311D01*
X0013864Y0021235D01*
X0013729Y0021162D01*
X0013592Y0021093D01*
X0013453Y0021028D01*
X0013313Y0020966D01*
X0013171Y0020908D01*
X0013028Y0020853D01*
X0012883Y0020802D01*
X0012737Y0020755D01*
X0012590Y0020712D01*
X0012442Y0020673D01*
X0012293Y0020637D01*
X0012143Y0020606D01*
X0011992Y0020578D01*
X0011841Y0020554D01*
X0011688Y0020534D01*
X0011536Y0020518D01*
X0011383Y0020506D01*
X0011230Y0020498D01*
X0011077Y0020494D01*
X0010923Y0020494D01*
X0010770Y0020498D01*
X0010617Y0020506D01*
X0010464Y0020518D01*
X0010312Y0020534D01*
X0010159Y0020554D01*
X0010008Y0020578D01*
X0009857Y0020606D01*
X0009707Y0020637D01*
X0009558Y0020673D01*
X0009410Y0020712D01*
X0009263Y0020755D01*
X0009117Y0020802D01*
X0008972Y0020853D01*
X0008829Y0020908D01*
X0008687Y0020966D01*
X0008547Y0021028D01*
X0008408Y0021093D01*
X0008271Y0021162D01*
X0008136Y0021235D01*
X0008003Y0021311D01*
X0007872Y0021391D01*
X0007743Y0021473D01*
X0007616Y0021560D01*
X0007491Y0021649D01*
X0007369Y0021742D01*
X0007250Y0021838D01*
X0007132Y0021937D01*
X0007018Y0022038D01*
X0006906Y0022143D01*
X0006797Y0022251D01*
X0006691Y0022362D01*
X0006587Y0022475D01*
X0006487Y0022591D01*
X0006389Y0022709D01*
X0006295Y0022830D01*
X0006204Y0022953D01*
X0006116Y0023079D01*
X0006032Y0023207D01*
X0005950Y0023337D01*
X0005873Y0023469D01*
X0005798Y0023603D01*
X0005727Y0023739D01*
X0005660Y0023877D01*
X0005596Y0024017D01*
X0005536Y0024158D01*
X0005480Y0024300D01*
X0005427Y0024444D01*
X0005378Y0024590D01*
X0005333Y0024736D01*
X0005292Y0024884D01*
X0005255Y0025032D01*
X0005221Y0025182D01*
X0005191Y0025333D01*
X0005166Y0025484D01*
X0005144Y0025635D01*
X0005126Y0025788D01*
X0005112Y0025940D01*
X0005102Y0026093D01*
X0005096Y0026247D01*
X0005094Y0026400D01*
X0210094Y0061400D02*
X0210096Y0061553D01*
X0210102Y0061707D01*
X0210112Y0061860D01*
X0210126Y0062012D01*
X0210144Y0062165D01*
X0210166Y0062316D01*
X0210191Y0062467D01*
X0210221Y0062618D01*
X0210255Y0062768D01*
X0210292Y0062916D01*
X0210333Y0063064D01*
X0210378Y0063210D01*
X0210427Y0063356D01*
X0210480Y0063500D01*
X0210536Y0063642D01*
X0210596Y0063783D01*
X0210660Y0063923D01*
X0210727Y0064061D01*
X0210798Y0064197D01*
X0210873Y0064331D01*
X0210950Y0064463D01*
X0211032Y0064593D01*
X0211116Y0064721D01*
X0211204Y0064847D01*
X0211295Y0064970D01*
X0211389Y0065091D01*
X0211487Y0065209D01*
X0211587Y0065325D01*
X0211691Y0065438D01*
X0211797Y0065549D01*
X0211906Y0065657D01*
X0212018Y0065762D01*
X0212132Y0065863D01*
X0212250Y0065962D01*
X0212369Y0066058D01*
X0212491Y0066151D01*
X0212616Y0066240D01*
X0212743Y0066327D01*
X0212872Y0066409D01*
X0213003Y0066489D01*
X0213136Y0066565D01*
X0213271Y0066638D01*
X0213408Y0066707D01*
X0213547Y0066772D01*
X0213687Y0066834D01*
X0213829Y0066892D01*
X0213972Y0066947D01*
X0214117Y0066998D01*
X0214263Y0067045D01*
X0214410Y0067088D01*
X0214558Y0067127D01*
X0214707Y0067163D01*
X0214857Y0067194D01*
X0215008Y0067222D01*
X0215159Y0067246D01*
X0215312Y0067266D01*
X0215464Y0067282D01*
X0215617Y0067294D01*
X0215770Y0067302D01*
X0215923Y0067306D01*
X0216077Y0067306D01*
X0216230Y0067302D01*
X0216383Y0067294D01*
X0216536Y0067282D01*
X0216688Y0067266D01*
X0216841Y0067246D01*
X0216992Y0067222D01*
X0217143Y0067194D01*
X0217293Y0067163D01*
X0217442Y0067127D01*
X0217590Y0067088D01*
X0217737Y0067045D01*
X0217883Y0066998D01*
X0218028Y0066947D01*
X0218171Y0066892D01*
X0218313Y0066834D01*
X0218453Y0066772D01*
X0218592Y0066707D01*
X0218729Y0066638D01*
X0218864Y0066565D01*
X0218997Y0066489D01*
X0219128Y0066409D01*
X0219257Y0066327D01*
X0219384Y0066240D01*
X0219509Y0066151D01*
X0219631Y0066058D01*
X0219750Y0065962D01*
X0219868Y0065863D01*
X0219982Y0065762D01*
X0220094Y0065657D01*
X0220203Y0065549D01*
X0220309Y0065438D01*
X0220413Y0065325D01*
X0220513Y0065209D01*
X0220611Y0065091D01*
X0220705Y0064970D01*
X0220796Y0064847D01*
X0220884Y0064721D01*
X0220968Y0064593D01*
X0221050Y0064463D01*
X0221127Y0064331D01*
X0221202Y0064197D01*
X0221273Y0064061D01*
X0221340Y0063923D01*
X0221404Y0063783D01*
X0221464Y0063642D01*
X0221520Y0063500D01*
X0221573Y0063356D01*
X0221622Y0063210D01*
X0221667Y0063064D01*
X0221708Y0062916D01*
X0221745Y0062768D01*
X0221779Y0062618D01*
X0221809Y0062467D01*
X0221834Y0062316D01*
X0221856Y0062165D01*
X0221874Y0062012D01*
X0221888Y0061860D01*
X0221898Y0061707D01*
X0221904Y0061553D01*
X0221906Y0061400D01*
X0221904Y0061247D01*
X0221898Y0061093D01*
X0221888Y0060940D01*
X0221874Y0060788D01*
X0221856Y0060635D01*
X0221834Y0060484D01*
X0221809Y0060333D01*
X0221779Y0060182D01*
X0221745Y0060032D01*
X0221708Y0059884D01*
X0221667Y0059736D01*
X0221622Y0059590D01*
X0221573Y0059444D01*
X0221520Y0059300D01*
X0221464Y0059158D01*
X0221404Y0059017D01*
X0221340Y0058877D01*
X0221273Y0058739D01*
X0221202Y0058603D01*
X0221127Y0058469D01*
X0221050Y0058337D01*
X0220968Y0058207D01*
X0220884Y0058079D01*
X0220796Y0057953D01*
X0220705Y0057830D01*
X0220611Y0057709D01*
X0220513Y0057591D01*
X0220413Y0057475D01*
X0220309Y0057362D01*
X0220203Y0057251D01*
X0220094Y0057143D01*
X0219982Y0057038D01*
X0219868Y0056937D01*
X0219750Y0056838D01*
X0219631Y0056742D01*
X0219509Y0056649D01*
X0219384Y0056560D01*
X0219257Y0056473D01*
X0219128Y0056391D01*
X0218997Y0056311D01*
X0218864Y0056235D01*
X0218729Y0056162D01*
X0218592Y0056093D01*
X0218453Y0056028D01*
X0218313Y0055966D01*
X0218171Y0055908D01*
X0218028Y0055853D01*
X0217883Y0055802D01*
X0217737Y0055755D01*
X0217590Y0055712D01*
X0217442Y0055673D01*
X0217293Y0055637D01*
X0217143Y0055606D01*
X0216992Y0055578D01*
X0216841Y0055554D01*
X0216688Y0055534D01*
X0216536Y0055518D01*
X0216383Y0055506D01*
X0216230Y0055498D01*
X0216077Y0055494D01*
X0215923Y0055494D01*
X0215770Y0055498D01*
X0215617Y0055506D01*
X0215464Y0055518D01*
X0215312Y0055534D01*
X0215159Y0055554D01*
X0215008Y0055578D01*
X0214857Y0055606D01*
X0214707Y0055637D01*
X0214558Y0055673D01*
X0214410Y0055712D01*
X0214263Y0055755D01*
X0214117Y0055802D01*
X0213972Y0055853D01*
X0213829Y0055908D01*
X0213687Y0055966D01*
X0213547Y0056028D01*
X0213408Y0056093D01*
X0213271Y0056162D01*
X0213136Y0056235D01*
X0213003Y0056311D01*
X0212872Y0056391D01*
X0212743Y0056473D01*
X0212616Y0056560D01*
X0212491Y0056649D01*
X0212369Y0056742D01*
X0212250Y0056838D01*
X0212132Y0056937D01*
X0212018Y0057038D01*
X0211906Y0057143D01*
X0211797Y0057251D01*
X0211691Y0057362D01*
X0211587Y0057475D01*
X0211487Y0057591D01*
X0211389Y0057709D01*
X0211295Y0057830D01*
X0211204Y0057953D01*
X0211116Y0058079D01*
X0211032Y0058207D01*
X0210950Y0058337D01*
X0210873Y0058469D01*
X0210798Y0058603D01*
X0210727Y0058739D01*
X0210660Y0058877D01*
X0210596Y0059017D01*
X0210536Y0059158D01*
X0210480Y0059300D01*
X0210427Y0059444D01*
X0210378Y0059590D01*
X0210333Y0059736D01*
X0210292Y0059884D01*
X0210255Y0060032D01*
X0210221Y0060182D01*
X0210191Y0060333D01*
X0210166Y0060484D01*
X0210144Y0060635D01*
X0210126Y0060788D01*
X0210112Y0060940D01*
X0210102Y0061093D01*
X0210096Y0061247D01*
X0210094Y0061400D01*
X0285094Y0061400D02*
X0285096Y0061553D01*
X0285102Y0061707D01*
X0285112Y0061860D01*
X0285126Y0062012D01*
X0285144Y0062165D01*
X0285166Y0062316D01*
X0285191Y0062467D01*
X0285221Y0062618D01*
X0285255Y0062768D01*
X0285292Y0062916D01*
X0285333Y0063064D01*
X0285378Y0063210D01*
X0285427Y0063356D01*
X0285480Y0063500D01*
X0285536Y0063642D01*
X0285596Y0063783D01*
X0285660Y0063923D01*
X0285727Y0064061D01*
X0285798Y0064197D01*
X0285873Y0064331D01*
X0285950Y0064463D01*
X0286032Y0064593D01*
X0286116Y0064721D01*
X0286204Y0064847D01*
X0286295Y0064970D01*
X0286389Y0065091D01*
X0286487Y0065209D01*
X0286587Y0065325D01*
X0286691Y0065438D01*
X0286797Y0065549D01*
X0286906Y0065657D01*
X0287018Y0065762D01*
X0287132Y0065863D01*
X0287250Y0065962D01*
X0287369Y0066058D01*
X0287491Y0066151D01*
X0287616Y0066240D01*
X0287743Y0066327D01*
X0287872Y0066409D01*
X0288003Y0066489D01*
X0288136Y0066565D01*
X0288271Y0066638D01*
X0288408Y0066707D01*
X0288547Y0066772D01*
X0288687Y0066834D01*
X0288829Y0066892D01*
X0288972Y0066947D01*
X0289117Y0066998D01*
X0289263Y0067045D01*
X0289410Y0067088D01*
X0289558Y0067127D01*
X0289707Y0067163D01*
X0289857Y0067194D01*
X0290008Y0067222D01*
X0290159Y0067246D01*
X0290312Y0067266D01*
X0290464Y0067282D01*
X0290617Y0067294D01*
X0290770Y0067302D01*
X0290923Y0067306D01*
X0291077Y0067306D01*
X0291230Y0067302D01*
X0291383Y0067294D01*
X0291536Y0067282D01*
X0291688Y0067266D01*
X0291841Y0067246D01*
X0291992Y0067222D01*
X0292143Y0067194D01*
X0292293Y0067163D01*
X0292442Y0067127D01*
X0292590Y0067088D01*
X0292737Y0067045D01*
X0292883Y0066998D01*
X0293028Y0066947D01*
X0293171Y0066892D01*
X0293313Y0066834D01*
X0293453Y0066772D01*
X0293592Y0066707D01*
X0293729Y0066638D01*
X0293864Y0066565D01*
X0293997Y0066489D01*
X0294128Y0066409D01*
X0294257Y0066327D01*
X0294384Y0066240D01*
X0294509Y0066151D01*
X0294631Y0066058D01*
X0294750Y0065962D01*
X0294868Y0065863D01*
X0294982Y0065762D01*
X0295094Y0065657D01*
X0295203Y0065549D01*
X0295309Y0065438D01*
X0295413Y0065325D01*
X0295513Y0065209D01*
X0295611Y0065091D01*
X0295705Y0064970D01*
X0295796Y0064847D01*
X0295884Y0064721D01*
X0295968Y0064593D01*
X0296050Y0064463D01*
X0296127Y0064331D01*
X0296202Y0064197D01*
X0296273Y0064061D01*
X0296340Y0063923D01*
X0296404Y0063783D01*
X0296464Y0063642D01*
X0296520Y0063500D01*
X0296573Y0063356D01*
X0296622Y0063210D01*
X0296667Y0063064D01*
X0296708Y0062916D01*
X0296745Y0062768D01*
X0296779Y0062618D01*
X0296809Y0062467D01*
X0296834Y0062316D01*
X0296856Y0062165D01*
X0296874Y0062012D01*
X0296888Y0061860D01*
X0296898Y0061707D01*
X0296904Y0061553D01*
X0296906Y0061400D01*
X0296904Y0061247D01*
X0296898Y0061093D01*
X0296888Y0060940D01*
X0296874Y0060788D01*
X0296856Y0060635D01*
X0296834Y0060484D01*
X0296809Y0060333D01*
X0296779Y0060182D01*
X0296745Y0060032D01*
X0296708Y0059884D01*
X0296667Y0059736D01*
X0296622Y0059590D01*
X0296573Y0059444D01*
X0296520Y0059300D01*
X0296464Y0059158D01*
X0296404Y0059017D01*
X0296340Y0058877D01*
X0296273Y0058739D01*
X0296202Y0058603D01*
X0296127Y0058469D01*
X0296050Y0058337D01*
X0295968Y0058207D01*
X0295884Y0058079D01*
X0295796Y0057953D01*
X0295705Y0057830D01*
X0295611Y0057709D01*
X0295513Y0057591D01*
X0295413Y0057475D01*
X0295309Y0057362D01*
X0295203Y0057251D01*
X0295094Y0057143D01*
X0294982Y0057038D01*
X0294868Y0056937D01*
X0294750Y0056838D01*
X0294631Y0056742D01*
X0294509Y0056649D01*
X0294384Y0056560D01*
X0294257Y0056473D01*
X0294128Y0056391D01*
X0293997Y0056311D01*
X0293864Y0056235D01*
X0293729Y0056162D01*
X0293592Y0056093D01*
X0293453Y0056028D01*
X0293313Y0055966D01*
X0293171Y0055908D01*
X0293028Y0055853D01*
X0292883Y0055802D01*
X0292737Y0055755D01*
X0292590Y0055712D01*
X0292442Y0055673D01*
X0292293Y0055637D01*
X0292143Y0055606D01*
X0291992Y0055578D01*
X0291841Y0055554D01*
X0291688Y0055534D01*
X0291536Y0055518D01*
X0291383Y0055506D01*
X0291230Y0055498D01*
X0291077Y0055494D01*
X0290923Y0055494D01*
X0290770Y0055498D01*
X0290617Y0055506D01*
X0290464Y0055518D01*
X0290312Y0055534D01*
X0290159Y0055554D01*
X0290008Y0055578D01*
X0289857Y0055606D01*
X0289707Y0055637D01*
X0289558Y0055673D01*
X0289410Y0055712D01*
X0289263Y0055755D01*
X0289117Y0055802D01*
X0288972Y0055853D01*
X0288829Y0055908D01*
X0288687Y0055966D01*
X0288547Y0056028D01*
X0288408Y0056093D01*
X0288271Y0056162D01*
X0288136Y0056235D01*
X0288003Y0056311D01*
X0287872Y0056391D01*
X0287743Y0056473D01*
X0287616Y0056560D01*
X0287491Y0056649D01*
X0287369Y0056742D01*
X0287250Y0056838D01*
X0287132Y0056937D01*
X0287018Y0057038D01*
X0286906Y0057143D01*
X0286797Y0057251D01*
X0286691Y0057362D01*
X0286587Y0057475D01*
X0286487Y0057591D01*
X0286389Y0057709D01*
X0286295Y0057830D01*
X0286204Y0057953D01*
X0286116Y0058079D01*
X0286032Y0058207D01*
X0285950Y0058337D01*
X0285873Y0058469D01*
X0285798Y0058603D01*
X0285727Y0058739D01*
X0285660Y0058877D01*
X0285596Y0059017D01*
X0285536Y0059158D01*
X0285480Y0059300D01*
X0285427Y0059444D01*
X0285378Y0059590D01*
X0285333Y0059736D01*
X0285292Y0059884D01*
X0285255Y0060032D01*
X0285221Y0060182D01*
X0285191Y0060333D01*
X0285166Y0060484D01*
X0285144Y0060635D01*
X0285126Y0060788D01*
X0285112Y0060940D01*
X0285102Y0061093D01*
X0285096Y0061247D01*
X0285094Y0061400D01*
X0305094Y0026400D02*
X0305096Y0026553D01*
X0305102Y0026707D01*
X0305112Y0026860D01*
X0305126Y0027012D01*
X0305144Y0027165D01*
X0305166Y0027316D01*
X0305191Y0027467D01*
X0305221Y0027618D01*
X0305255Y0027768D01*
X0305292Y0027916D01*
X0305333Y0028064D01*
X0305378Y0028210D01*
X0305427Y0028356D01*
X0305480Y0028500D01*
X0305536Y0028642D01*
X0305596Y0028783D01*
X0305660Y0028923D01*
X0305727Y0029061D01*
X0305798Y0029197D01*
X0305873Y0029331D01*
X0305950Y0029463D01*
X0306032Y0029593D01*
X0306116Y0029721D01*
X0306204Y0029847D01*
X0306295Y0029970D01*
X0306389Y0030091D01*
X0306487Y0030209D01*
X0306587Y0030325D01*
X0306691Y0030438D01*
X0306797Y0030549D01*
X0306906Y0030657D01*
X0307018Y0030762D01*
X0307132Y0030863D01*
X0307250Y0030962D01*
X0307369Y0031058D01*
X0307491Y0031151D01*
X0307616Y0031240D01*
X0307743Y0031327D01*
X0307872Y0031409D01*
X0308003Y0031489D01*
X0308136Y0031565D01*
X0308271Y0031638D01*
X0308408Y0031707D01*
X0308547Y0031772D01*
X0308687Y0031834D01*
X0308829Y0031892D01*
X0308972Y0031947D01*
X0309117Y0031998D01*
X0309263Y0032045D01*
X0309410Y0032088D01*
X0309558Y0032127D01*
X0309707Y0032163D01*
X0309857Y0032194D01*
X0310008Y0032222D01*
X0310159Y0032246D01*
X0310312Y0032266D01*
X0310464Y0032282D01*
X0310617Y0032294D01*
X0310770Y0032302D01*
X0310923Y0032306D01*
X0311077Y0032306D01*
X0311230Y0032302D01*
X0311383Y0032294D01*
X0311536Y0032282D01*
X0311688Y0032266D01*
X0311841Y0032246D01*
X0311992Y0032222D01*
X0312143Y0032194D01*
X0312293Y0032163D01*
X0312442Y0032127D01*
X0312590Y0032088D01*
X0312737Y0032045D01*
X0312883Y0031998D01*
X0313028Y0031947D01*
X0313171Y0031892D01*
X0313313Y0031834D01*
X0313453Y0031772D01*
X0313592Y0031707D01*
X0313729Y0031638D01*
X0313864Y0031565D01*
X0313997Y0031489D01*
X0314128Y0031409D01*
X0314257Y0031327D01*
X0314384Y0031240D01*
X0314509Y0031151D01*
X0314631Y0031058D01*
X0314750Y0030962D01*
X0314868Y0030863D01*
X0314982Y0030762D01*
X0315094Y0030657D01*
X0315203Y0030549D01*
X0315309Y0030438D01*
X0315413Y0030325D01*
X0315513Y0030209D01*
X0315611Y0030091D01*
X0315705Y0029970D01*
X0315796Y0029847D01*
X0315884Y0029721D01*
X0315968Y0029593D01*
X0316050Y0029463D01*
X0316127Y0029331D01*
X0316202Y0029197D01*
X0316273Y0029061D01*
X0316340Y0028923D01*
X0316404Y0028783D01*
X0316464Y0028642D01*
X0316520Y0028500D01*
X0316573Y0028356D01*
X0316622Y0028210D01*
X0316667Y0028064D01*
X0316708Y0027916D01*
X0316745Y0027768D01*
X0316779Y0027618D01*
X0316809Y0027467D01*
X0316834Y0027316D01*
X0316856Y0027165D01*
X0316874Y0027012D01*
X0316888Y0026860D01*
X0316898Y0026707D01*
X0316904Y0026553D01*
X0316906Y0026400D01*
X0316904Y0026247D01*
X0316898Y0026093D01*
X0316888Y0025940D01*
X0316874Y0025788D01*
X0316856Y0025635D01*
X0316834Y0025484D01*
X0316809Y0025333D01*
X0316779Y0025182D01*
X0316745Y0025032D01*
X0316708Y0024884D01*
X0316667Y0024736D01*
X0316622Y0024590D01*
X0316573Y0024444D01*
X0316520Y0024300D01*
X0316464Y0024158D01*
X0316404Y0024017D01*
X0316340Y0023877D01*
X0316273Y0023739D01*
X0316202Y0023603D01*
X0316127Y0023469D01*
X0316050Y0023337D01*
X0315968Y0023207D01*
X0315884Y0023079D01*
X0315796Y0022953D01*
X0315705Y0022830D01*
X0315611Y0022709D01*
X0315513Y0022591D01*
X0315413Y0022475D01*
X0315309Y0022362D01*
X0315203Y0022251D01*
X0315094Y0022143D01*
X0314982Y0022038D01*
X0314868Y0021937D01*
X0314750Y0021838D01*
X0314631Y0021742D01*
X0314509Y0021649D01*
X0314384Y0021560D01*
X0314257Y0021473D01*
X0314128Y0021391D01*
X0313997Y0021311D01*
X0313864Y0021235D01*
X0313729Y0021162D01*
X0313592Y0021093D01*
X0313453Y0021028D01*
X0313313Y0020966D01*
X0313171Y0020908D01*
X0313028Y0020853D01*
X0312883Y0020802D01*
X0312737Y0020755D01*
X0312590Y0020712D01*
X0312442Y0020673D01*
X0312293Y0020637D01*
X0312143Y0020606D01*
X0311992Y0020578D01*
X0311841Y0020554D01*
X0311688Y0020534D01*
X0311536Y0020518D01*
X0311383Y0020506D01*
X0311230Y0020498D01*
X0311077Y0020494D01*
X0310923Y0020494D01*
X0310770Y0020498D01*
X0310617Y0020506D01*
X0310464Y0020518D01*
X0310312Y0020534D01*
X0310159Y0020554D01*
X0310008Y0020578D01*
X0309857Y0020606D01*
X0309707Y0020637D01*
X0309558Y0020673D01*
X0309410Y0020712D01*
X0309263Y0020755D01*
X0309117Y0020802D01*
X0308972Y0020853D01*
X0308829Y0020908D01*
X0308687Y0020966D01*
X0308547Y0021028D01*
X0308408Y0021093D01*
X0308271Y0021162D01*
X0308136Y0021235D01*
X0308003Y0021311D01*
X0307872Y0021391D01*
X0307743Y0021473D01*
X0307616Y0021560D01*
X0307491Y0021649D01*
X0307369Y0021742D01*
X0307250Y0021838D01*
X0307132Y0021937D01*
X0307018Y0022038D01*
X0306906Y0022143D01*
X0306797Y0022251D01*
X0306691Y0022362D01*
X0306587Y0022475D01*
X0306487Y0022591D01*
X0306389Y0022709D01*
X0306295Y0022830D01*
X0306204Y0022953D01*
X0306116Y0023079D01*
X0306032Y0023207D01*
X0305950Y0023337D01*
X0305873Y0023469D01*
X0305798Y0023603D01*
X0305727Y0023739D01*
X0305660Y0023877D01*
X0305596Y0024017D01*
X0305536Y0024158D01*
X0305480Y0024300D01*
X0305427Y0024444D01*
X0305378Y0024590D01*
X0305333Y0024736D01*
X0305292Y0024884D01*
X0305255Y0025032D01*
X0305221Y0025182D01*
X0305191Y0025333D01*
X0305166Y0025484D01*
X0305144Y0025635D01*
X0305126Y0025788D01*
X0305112Y0025940D01*
X0305102Y0026093D01*
X0305096Y0026247D01*
X0305094Y0026400D01*
X0285094Y0166400D02*
X0285096Y0166553D01*
X0285102Y0166707D01*
X0285112Y0166860D01*
X0285126Y0167012D01*
X0285144Y0167165D01*
X0285166Y0167316D01*
X0285191Y0167467D01*
X0285221Y0167618D01*
X0285255Y0167768D01*
X0285292Y0167916D01*
X0285333Y0168064D01*
X0285378Y0168210D01*
X0285427Y0168356D01*
X0285480Y0168500D01*
X0285536Y0168642D01*
X0285596Y0168783D01*
X0285660Y0168923D01*
X0285727Y0169061D01*
X0285798Y0169197D01*
X0285873Y0169331D01*
X0285950Y0169463D01*
X0286032Y0169593D01*
X0286116Y0169721D01*
X0286204Y0169847D01*
X0286295Y0169970D01*
X0286389Y0170091D01*
X0286487Y0170209D01*
X0286587Y0170325D01*
X0286691Y0170438D01*
X0286797Y0170549D01*
X0286906Y0170657D01*
X0287018Y0170762D01*
X0287132Y0170863D01*
X0287250Y0170962D01*
X0287369Y0171058D01*
X0287491Y0171151D01*
X0287616Y0171240D01*
X0287743Y0171327D01*
X0287872Y0171409D01*
X0288003Y0171489D01*
X0288136Y0171565D01*
X0288271Y0171638D01*
X0288408Y0171707D01*
X0288547Y0171772D01*
X0288687Y0171834D01*
X0288829Y0171892D01*
X0288972Y0171947D01*
X0289117Y0171998D01*
X0289263Y0172045D01*
X0289410Y0172088D01*
X0289558Y0172127D01*
X0289707Y0172163D01*
X0289857Y0172194D01*
X0290008Y0172222D01*
X0290159Y0172246D01*
X0290312Y0172266D01*
X0290464Y0172282D01*
X0290617Y0172294D01*
X0290770Y0172302D01*
X0290923Y0172306D01*
X0291077Y0172306D01*
X0291230Y0172302D01*
X0291383Y0172294D01*
X0291536Y0172282D01*
X0291688Y0172266D01*
X0291841Y0172246D01*
X0291992Y0172222D01*
X0292143Y0172194D01*
X0292293Y0172163D01*
X0292442Y0172127D01*
X0292590Y0172088D01*
X0292737Y0172045D01*
X0292883Y0171998D01*
X0293028Y0171947D01*
X0293171Y0171892D01*
X0293313Y0171834D01*
X0293453Y0171772D01*
X0293592Y0171707D01*
X0293729Y0171638D01*
X0293864Y0171565D01*
X0293997Y0171489D01*
X0294128Y0171409D01*
X0294257Y0171327D01*
X0294384Y0171240D01*
X0294509Y0171151D01*
X0294631Y0171058D01*
X0294750Y0170962D01*
X0294868Y0170863D01*
X0294982Y0170762D01*
X0295094Y0170657D01*
X0295203Y0170549D01*
X0295309Y0170438D01*
X0295413Y0170325D01*
X0295513Y0170209D01*
X0295611Y0170091D01*
X0295705Y0169970D01*
X0295796Y0169847D01*
X0295884Y0169721D01*
X0295968Y0169593D01*
X0296050Y0169463D01*
X0296127Y0169331D01*
X0296202Y0169197D01*
X0296273Y0169061D01*
X0296340Y0168923D01*
X0296404Y0168783D01*
X0296464Y0168642D01*
X0296520Y0168500D01*
X0296573Y0168356D01*
X0296622Y0168210D01*
X0296667Y0168064D01*
X0296708Y0167916D01*
X0296745Y0167768D01*
X0296779Y0167618D01*
X0296809Y0167467D01*
X0296834Y0167316D01*
X0296856Y0167165D01*
X0296874Y0167012D01*
X0296888Y0166860D01*
X0296898Y0166707D01*
X0296904Y0166553D01*
X0296906Y0166400D01*
X0296904Y0166247D01*
X0296898Y0166093D01*
X0296888Y0165940D01*
X0296874Y0165788D01*
X0296856Y0165635D01*
X0296834Y0165484D01*
X0296809Y0165333D01*
X0296779Y0165182D01*
X0296745Y0165032D01*
X0296708Y0164884D01*
X0296667Y0164736D01*
X0296622Y0164590D01*
X0296573Y0164444D01*
X0296520Y0164300D01*
X0296464Y0164158D01*
X0296404Y0164017D01*
X0296340Y0163877D01*
X0296273Y0163739D01*
X0296202Y0163603D01*
X0296127Y0163469D01*
X0296050Y0163337D01*
X0295968Y0163207D01*
X0295884Y0163079D01*
X0295796Y0162953D01*
X0295705Y0162830D01*
X0295611Y0162709D01*
X0295513Y0162591D01*
X0295413Y0162475D01*
X0295309Y0162362D01*
X0295203Y0162251D01*
X0295094Y0162143D01*
X0294982Y0162038D01*
X0294868Y0161937D01*
X0294750Y0161838D01*
X0294631Y0161742D01*
X0294509Y0161649D01*
X0294384Y0161560D01*
X0294257Y0161473D01*
X0294128Y0161391D01*
X0293997Y0161311D01*
X0293864Y0161235D01*
X0293729Y0161162D01*
X0293592Y0161093D01*
X0293453Y0161028D01*
X0293313Y0160966D01*
X0293171Y0160908D01*
X0293028Y0160853D01*
X0292883Y0160802D01*
X0292737Y0160755D01*
X0292590Y0160712D01*
X0292442Y0160673D01*
X0292293Y0160637D01*
X0292143Y0160606D01*
X0291992Y0160578D01*
X0291841Y0160554D01*
X0291688Y0160534D01*
X0291536Y0160518D01*
X0291383Y0160506D01*
X0291230Y0160498D01*
X0291077Y0160494D01*
X0290923Y0160494D01*
X0290770Y0160498D01*
X0290617Y0160506D01*
X0290464Y0160518D01*
X0290312Y0160534D01*
X0290159Y0160554D01*
X0290008Y0160578D01*
X0289857Y0160606D01*
X0289707Y0160637D01*
X0289558Y0160673D01*
X0289410Y0160712D01*
X0289263Y0160755D01*
X0289117Y0160802D01*
X0288972Y0160853D01*
X0288829Y0160908D01*
X0288687Y0160966D01*
X0288547Y0161028D01*
X0288408Y0161093D01*
X0288271Y0161162D01*
X0288136Y0161235D01*
X0288003Y0161311D01*
X0287872Y0161391D01*
X0287743Y0161473D01*
X0287616Y0161560D01*
X0287491Y0161649D01*
X0287369Y0161742D01*
X0287250Y0161838D01*
X0287132Y0161937D01*
X0287018Y0162038D01*
X0286906Y0162143D01*
X0286797Y0162251D01*
X0286691Y0162362D01*
X0286587Y0162475D01*
X0286487Y0162591D01*
X0286389Y0162709D01*
X0286295Y0162830D01*
X0286204Y0162953D01*
X0286116Y0163079D01*
X0286032Y0163207D01*
X0285950Y0163337D01*
X0285873Y0163469D01*
X0285798Y0163603D01*
X0285727Y0163739D01*
X0285660Y0163877D01*
X0285596Y0164017D01*
X0285536Y0164158D01*
X0285480Y0164300D01*
X0285427Y0164444D01*
X0285378Y0164590D01*
X0285333Y0164736D01*
X0285292Y0164884D01*
X0285255Y0165032D01*
X0285221Y0165182D01*
X0285191Y0165333D01*
X0285166Y0165484D01*
X0285144Y0165635D01*
X0285126Y0165788D01*
X0285112Y0165940D01*
X0285102Y0166093D01*
X0285096Y0166247D01*
X0285094Y0166400D01*
X0305094Y0206400D02*
X0305096Y0206553D01*
X0305102Y0206707D01*
X0305112Y0206860D01*
X0305126Y0207012D01*
X0305144Y0207165D01*
X0305166Y0207316D01*
X0305191Y0207467D01*
X0305221Y0207618D01*
X0305255Y0207768D01*
X0305292Y0207916D01*
X0305333Y0208064D01*
X0305378Y0208210D01*
X0305427Y0208356D01*
X0305480Y0208500D01*
X0305536Y0208642D01*
X0305596Y0208783D01*
X0305660Y0208923D01*
X0305727Y0209061D01*
X0305798Y0209197D01*
X0305873Y0209331D01*
X0305950Y0209463D01*
X0306032Y0209593D01*
X0306116Y0209721D01*
X0306204Y0209847D01*
X0306295Y0209970D01*
X0306389Y0210091D01*
X0306487Y0210209D01*
X0306587Y0210325D01*
X0306691Y0210438D01*
X0306797Y0210549D01*
X0306906Y0210657D01*
X0307018Y0210762D01*
X0307132Y0210863D01*
X0307250Y0210962D01*
X0307369Y0211058D01*
X0307491Y0211151D01*
X0307616Y0211240D01*
X0307743Y0211327D01*
X0307872Y0211409D01*
X0308003Y0211489D01*
X0308136Y0211565D01*
X0308271Y0211638D01*
X0308408Y0211707D01*
X0308547Y0211772D01*
X0308687Y0211834D01*
X0308829Y0211892D01*
X0308972Y0211947D01*
X0309117Y0211998D01*
X0309263Y0212045D01*
X0309410Y0212088D01*
X0309558Y0212127D01*
X0309707Y0212163D01*
X0309857Y0212194D01*
X0310008Y0212222D01*
X0310159Y0212246D01*
X0310312Y0212266D01*
X0310464Y0212282D01*
X0310617Y0212294D01*
X0310770Y0212302D01*
X0310923Y0212306D01*
X0311077Y0212306D01*
X0311230Y0212302D01*
X0311383Y0212294D01*
X0311536Y0212282D01*
X0311688Y0212266D01*
X0311841Y0212246D01*
X0311992Y0212222D01*
X0312143Y0212194D01*
X0312293Y0212163D01*
X0312442Y0212127D01*
X0312590Y0212088D01*
X0312737Y0212045D01*
X0312883Y0211998D01*
X0313028Y0211947D01*
X0313171Y0211892D01*
X0313313Y0211834D01*
X0313453Y0211772D01*
X0313592Y0211707D01*
X0313729Y0211638D01*
X0313864Y0211565D01*
X0313997Y0211489D01*
X0314128Y0211409D01*
X0314257Y0211327D01*
X0314384Y0211240D01*
X0314509Y0211151D01*
X0314631Y0211058D01*
X0314750Y0210962D01*
X0314868Y0210863D01*
X0314982Y0210762D01*
X0315094Y0210657D01*
X0315203Y0210549D01*
X0315309Y0210438D01*
X0315413Y0210325D01*
X0315513Y0210209D01*
X0315611Y0210091D01*
X0315705Y0209970D01*
X0315796Y0209847D01*
X0315884Y0209721D01*
X0315968Y0209593D01*
X0316050Y0209463D01*
X0316127Y0209331D01*
X0316202Y0209197D01*
X0316273Y0209061D01*
X0316340Y0208923D01*
X0316404Y0208783D01*
X0316464Y0208642D01*
X0316520Y0208500D01*
X0316573Y0208356D01*
X0316622Y0208210D01*
X0316667Y0208064D01*
X0316708Y0207916D01*
X0316745Y0207768D01*
X0316779Y0207618D01*
X0316809Y0207467D01*
X0316834Y0207316D01*
X0316856Y0207165D01*
X0316874Y0207012D01*
X0316888Y0206860D01*
X0316898Y0206707D01*
X0316904Y0206553D01*
X0316906Y0206400D01*
X0316904Y0206247D01*
X0316898Y0206093D01*
X0316888Y0205940D01*
X0316874Y0205788D01*
X0316856Y0205635D01*
X0316834Y0205484D01*
X0316809Y0205333D01*
X0316779Y0205182D01*
X0316745Y0205032D01*
X0316708Y0204884D01*
X0316667Y0204736D01*
X0316622Y0204590D01*
X0316573Y0204444D01*
X0316520Y0204300D01*
X0316464Y0204158D01*
X0316404Y0204017D01*
X0316340Y0203877D01*
X0316273Y0203739D01*
X0316202Y0203603D01*
X0316127Y0203469D01*
X0316050Y0203337D01*
X0315968Y0203207D01*
X0315884Y0203079D01*
X0315796Y0202953D01*
X0315705Y0202830D01*
X0315611Y0202709D01*
X0315513Y0202591D01*
X0315413Y0202475D01*
X0315309Y0202362D01*
X0315203Y0202251D01*
X0315094Y0202143D01*
X0314982Y0202038D01*
X0314868Y0201937D01*
X0314750Y0201838D01*
X0314631Y0201742D01*
X0314509Y0201649D01*
X0314384Y0201560D01*
X0314257Y0201473D01*
X0314128Y0201391D01*
X0313997Y0201311D01*
X0313864Y0201235D01*
X0313729Y0201162D01*
X0313592Y0201093D01*
X0313453Y0201028D01*
X0313313Y0200966D01*
X0313171Y0200908D01*
X0313028Y0200853D01*
X0312883Y0200802D01*
X0312737Y0200755D01*
X0312590Y0200712D01*
X0312442Y0200673D01*
X0312293Y0200637D01*
X0312143Y0200606D01*
X0311992Y0200578D01*
X0311841Y0200554D01*
X0311688Y0200534D01*
X0311536Y0200518D01*
X0311383Y0200506D01*
X0311230Y0200498D01*
X0311077Y0200494D01*
X0310923Y0200494D01*
X0310770Y0200498D01*
X0310617Y0200506D01*
X0310464Y0200518D01*
X0310312Y0200534D01*
X0310159Y0200554D01*
X0310008Y0200578D01*
X0309857Y0200606D01*
X0309707Y0200637D01*
X0309558Y0200673D01*
X0309410Y0200712D01*
X0309263Y0200755D01*
X0309117Y0200802D01*
X0308972Y0200853D01*
X0308829Y0200908D01*
X0308687Y0200966D01*
X0308547Y0201028D01*
X0308408Y0201093D01*
X0308271Y0201162D01*
X0308136Y0201235D01*
X0308003Y0201311D01*
X0307872Y0201391D01*
X0307743Y0201473D01*
X0307616Y0201560D01*
X0307491Y0201649D01*
X0307369Y0201742D01*
X0307250Y0201838D01*
X0307132Y0201937D01*
X0307018Y0202038D01*
X0306906Y0202143D01*
X0306797Y0202251D01*
X0306691Y0202362D01*
X0306587Y0202475D01*
X0306487Y0202591D01*
X0306389Y0202709D01*
X0306295Y0202830D01*
X0306204Y0202953D01*
X0306116Y0203079D01*
X0306032Y0203207D01*
X0305950Y0203337D01*
X0305873Y0203469D01*
X0305798Y0203603D01*
X0305727Y0203739D01*
X0305660Y0203877D01*
X0305596Y0204017D01*
X0305536Y0204158D01*
X0305480Y0204300D01*
X0305427Y0204444D01*
X0305378Y0204590D01*
X0305333Y0204736D01*
X0305292Y0204884D01*
X0305255Y0205032D01*
X0305221Y0205182D01*
X0305191Y0205333D01*
X0305166Y0205484D01*
X0305144Y0205635D01*
X0305126Y0205788D01*
X0305112Y0205940D01*
X0305102Y0206093D01*
X0305096Y0206247D01*
X0305094Y0206400D01*
X0210094Y0166400D02*
X0210096Y0166553D01*
X0210102Y0166707D01*
X0210112Y0166860D01*
X0210126Y0167012D01*
X0210144Y0167165D01*
X0210166Y0167316D01*
X0210191Y0167467D01*
X0210221Y0167618D01*
X0210255Y0167768D01*
X0210292Y0167916D01*
X0210333Y0168064D01*
X0210378Y0168210D01*
X0210427Y0168356D01*
X0210480Y0168500D01*
X0210536Y0168642D01*
X0210596Y0168783D01*
X0210660Y0168923D01*
X0210727Y0169061D01*
X0210798Y0169197D01*
X0210873Y0169331D01*
X0210950Y0169463D01*
X0211032Y0169593D01*
X0211116Y0169721D01*
X0211204Y0169847D01*
X0211295Y0169970D01*
X0211389Y0170091D01*
X0211487Y0170209D01*
X0211587Y0170325D01*
X0211691Y0170438D01*
X0211797Y0170549D01*
X0211906Y0170657D01*
X0212018Y0170762D01*
X0212132Y0170863D01*
X0212250Y0170962D01*
X0212369Y0171058D01*
X0212491Y0171151D01*
X0212616Y0171240D01*
X0212743Y0171327D01*
X0212872Y0171409D01*
X0213003Y0171489D01*
X0213136Y0171565D01*
X0213271Y0171638D01*
X0213408Y0171707D01*
X0213547Y0171772D01*
X0213687Y0171834D01*
X0213829Y0171892D01*
X0213972Y0171947D01*
X0214117Y0171998D01*
X0214263Y0172045D01*
X0214410Y0172088D01*
X0214558Y0172127D01*
X0214707Y0172163D01*
X0214857Y0172194D01*
X0215008Y0172222D01*
X0215159Y0172246D01*
X0215312Y0172266D01*
X0215464Y0172282D01*
X0215617Y0172294D01*
X0215770Y0172302D01*
X0215923Y0172306D01*
X0216077Y0172306D01*
X0216230Y0172302D01*
X0216383Y0172294D01*
X0216536Y0172282D01*
X0216688Y0172266D01*
X0216841Y0172246D01*
X0216992Y0172222D01*
X0217143Y0172194D01*
X0217293Y0172163D01*
X0217442Y0172127D01*
X0217590Y0172088D01*
X0217737Y0172045D01*
X0217883Y0171998D01*
X0218028Y0171947D01*
X0218171Y0171892D01*
X0218313Y0171834D01*
X0218453Y0171772D01*
X0218592Y0171707D01*
X0218729Y0171638D01*
X0218864Y0171565D01*
X0218997Y0171489D01*
X0219128Y0171409D01*
X0219257Y0171327D01*
X0219384Y0171240D01*
X0219509Y0171151D01*
X0219631Y0171058D01*
X0219750Y0170962D01*
X0219868Y0170863D01*
X0219982Y0170762D01*
X0220094Y0170657D01*
X0220203Y0170549D01*
X0220309Y0170438D01*
X0220413Y0170325D01*
X0220513Y0170209D01*
X0220611Y0170091D01*
X0220705Y0169970D01*
X0220796Y0169847D01*
X0220884Y0169721D01*
X0220968Y0169593D01*
X0221050Y0169463D01*
X0221127Y0169331D01*
X0221202Y0169197D01*
X0221273Y0169061D01*
X0221340Y0168923D01*
X0221404Y0168783D01*
X0221464Y0168642D01*
X0221520Y0168500D01*
X0221573Y0168356D01*
X0221622Y0168210D01*
X0221667Y0168064D01*
X0221708Y0167916D01*
X0221745Y0167768D01*
X0221779Y0167618D01*
X0221809Y0167467D01*
X0221834Y0167316D01*
X0221856Y0167165D01*
X0221874Y0167012D01*
X0221888Y0166860D01*
X0221898Y0166707D01*
X0221904Y0166553D01*
X0221906Y0166400D01*
X0221904Y0166247D01*
X0221898Y0166093D01*
X0221888Y0165940D01*
X0221874Y0165788D01*
X0221856Y0165635D01*
X0221834Y0165484D01*
X0221809Y0165333D01*
X0221779Y0165182D01*
X0221745Y0165032D01*
X0221708Y0164884D01*
X0221667Y0164736D01*
X0221622Y0164590D01*
X0221573Y0164444D01*
X0221520Y0164300D01*
X0221464Y0164158D01*
X0221404Y0164017D01*
X0221340Y0163877D01*
X0221273Y0163739D01*
X0221202Y0163603D01*
X0221127Y0163469D01*
X0221050Y0163337D01*
X0220968Y0163207D01*
X0220884Y0163079D01*
X0220796Y0162953D01*
X0220705Y0162830D01*
X0220611Y0162709D01*
X0220513Y0162591D01*
X0220413Y0162475D01*
X0220309Y0162362D01*
X0220203Y0162251D01*
X0220094Y0162143D01*
X0219982Y0162038D01*
X0219868Y0161937D01*
X0219750Y0161838D01*
X0219631Y0161742D01*
X0219509Y0161649D01*
X0219384Y0161560D01*
X0219257Y0161473D01*
X0219128Y0161391D01*
X0218997Y0161311D01*
X0218864Y0161235D01*
X0218729Y0161162D01*
X0218592Y0161093D01*
X0218453Y0161028D01*
X0218313Y0160966D01*
X0218171Y0160908D01*
X0218028Y0160853D01*
X0217883Y0160802D01*
X0217737Y0160755D01*
X0217590Y0160712D01*
X0217442Y0160673D01*
X0217293Y0160637D01*
X0217143Y0160606D01*
X0216992Y0160578D01*
X0216841Y0160554D01*
X0216688Y0160534D01*
X0216536Y0160518D01*
X0216383Y0160506D01*
X0216230Y0160498D01*
X0216077Y0160494D01*
X0215923Y0160494D01*
X0215770Y0160498D01*
X0215617Y0160506D01*
X0215464Y0160518D01*
X0215312Y0160534D01*
X0215159Y0160554D01*
X0215008Y0160578D01*
X0214857Y0160606D01*
X0214707Y0160637D01*
X0214558Y0160673D01*
X0214410Y0160712D01*
X0214263Y0160755D01*
X0214117Y0160802D01*
X0213972Y0160853D01*
X0213829Y0160908D01*
X0213687Y0160966D01*
X0213547Y0161028D01*
X0213408Y0161093D01*
X0213271Y0161162D01*
X0213136Y0161235D01*
X0213003Y0161311D01*
X0212872Y0161391D01*
X0212743Y0161473D01*
X0212616Y0161560D01*
X0212491Y0161649D01*
X0212369Y0161742D01*
X0212250Y0161838D01*
X0212132Y0161937D01*
X0212018Y0162038D01*
X0211906Y0162143D01*
X0211797Y0162251D01*
X0211691Y0162362D01*
X0211587Y0162475D01*
X0211487Y0162591D01*
X0211389Y0162709D01*
X0211295Y0162830D01*
X0211204Y0162953D01*
X0211116Y0163079D01*
X0211032Y0163207D01*
X0210950Y0163337D01*
X0210873Y0163469D01*
X0210798Y0163603D01*
X0210727Y0163739D01*
X0210660Y0163877D01*
X0210596Y0164017D01*
X0210536Y0164158D01*
X0210480Y0164300D01*
X0210427Y0164444D01*
X0210378Y0164590D01*
X0210333Y0164736D01*
X0210292Y0164884D01*
X0210255Y0165032D01*
X0210221Y0165182D01*
X0210191Y0165333D01*
X0210166Y0165484D01*
X0210144Y0165635D01*
X0210126Y0165788D01*
X0210112Y0165940D01*
X0210102Y0166093D01*
X0210096Y0166247D01*
X0210094Y0166400D01*
X0005094Y0206400D02*
X0005096Y0206553D01*
X0005102Y0206707D01*
X0005112Y0206860D01*
X0005126Y0207012D01*
X0005144Y0207165D01*
X0005166Y0207316D01*
X0005191Y0207467D01*
X0005221Y0207618D01*
X0005255Y0207768D01*
X0005292Y0207916D01*
X0005333Y0208064D01*
X0005378Y0208210D01*
X0005427Y0208356D01*
X0005480Y0208500D01*
X0005536Y0208642D01*
X0005596Y0208783D01*
X0005660Y0208923D01*
X0005727Y0209061D01*
X0005798Y0209197D01*
X0005873Y0209331D01*
X0005950Y0209463D01*
X0006032Y0209593D01*
X0006116Y0209721D01*
X0006204Y0209847D01*
X0006295Y0209970D01*
X0006389Y0210091D01*
X0006487Y0210209D01*
X0006587Y0210325D01*
X0006691Y0210438D01*
X0006797Y0210549D01*
X0006906Y0210657D01*
X0007018Y0210762D01*
X0007132Y0210863D01*
X0007250Y0210962D01*
X0007369Y0211058D01*
X0007491Y0211151D01*
X0007616Y0211240D01*
X0007743Y0211327D01*
X0007872Y0211409D01*
X0008003Y0211489D01*
X0008136Y0211565D01*
X0008271Y0211638D01*
X0008408Y0211707D01*
X0008547Y0211772D01*
X0008687Y0211834D01*
X0008829Y0211892D01*
X0008972Y0211947D01*
X0009117Y0211998D01*
X0009263Y0212045D01*
X0009410Y0212088D01*
X0009558Y0212127D01*
X0009707Y0212163D01*
X0009857Y0212194D01*
X0010008Y0212222D01*
X0010159Y0212246D01*
X0010312Y0212266D01*
X0010464Y0212282D01*
X0010617Y0212294D01*
X0010770Y0212302D01*
X0010923Y0212306D01*
X0011077Y0212306D01*
X0011230Y0212302D01*
X0011383Y0212294D01*
X0011536Y0212282D01*
X0011688Y0212266D01*
X0011841Y0212246D01*
X0011992Y0212222D01*
X0012143Y0212194D01*
X0012293Y0212163D01*
X0012442Y0212127D01*
X0012590Y0212088D01*
X0012737Y0212045D01*
X0012883Y0211998D01*
X0013028Y0211947D01*
X0013171Y0211892D01*
X0013313Y0211834D01*
X0013453Y0211772D01*
X0013592Y0211707D01*
X0013729Y0211638D01*
X0013864Y0211565D01*
X0013997Y0211489D01*
X0014128Y0211409D01*
X0014257Y0211327D01*
X0014384Y0211240D01*
X0014509Y0211151D01*
X0014631Y0211058D01*
X0014750Y0210962D01*
X0014868Y0210863D01*
X0014982Y0210762D01*
X0015094Y0210657D01*
X0015203Y0210549D01*
X0015309Y0210438D01*
X0015413Y0210325D01*
X0015513Y0210209D01*
X0015611Y0210091D01*
X0015705Y0209970D01*
X0015796Y0209847D01*
X0015884Y0209721D01*
X0015968Y0209593D01*
X0016050Y0209463D01*
X0016127Y0209331D01*
X0016202Y0209197D01*
X0016273Y0209061D01*
X0016340Y0208923D01*
X0016404Y0208783D01*
X0016464Y0208642D01*
X0016520Y0208500D01*
X0016573Y0208356D01*
X0016622Y0208210D01*
X0016667Y0208064D01*
X0016708Y0207916D01*
X0016745Y0207768D01*
X0016779Y0207618D01*
X0016809Y0207467D01*
X0016834Y0207316D01*
X0016856Y0207165D01*
X0016874Y0207012D01*
X0016888Y0206860D01*
X0016898Y0206707D01*
X0016904Y0206553D01*
X0016906Y0206400D01*
X0016904Y0206247D01*
X0016898Y0206093D01*
X0016888Y0205940D01*
X0016874Y0205788D01*
X0016856Y0205635D01*
X0016834Y0205484D01*
X0016809Y0205333D01*
X0016779Y0205182D01*
X0016745Y0205032D01*
X0016708Y0204884D01*
X0016667Y0204736D01*
X0016622Y0204590D01*
X0016573Y0204444D01*
X0016520Y0204300D01*
X0016464Y0204158D01*
X0016404Y0204017D01*
X0016340Y0203877D01*
X0016273Y0203739D01*
X0016202Y0203603D01*
X0016127Y0203469D01*
X0016050Y0203337D01*
X0015968Y0203207D01*
X0015884Y0203079D01*
X0015796Y0202953D01*
X0015705Y0202830D01*
X0015611Y0202709D01*
X0015513Y0202591D01*
X0015413Y0202475D01*
X0015309Y0202362D01*
X0015203Y0202251D01*
X0015094Y0202143D01*
X0014982Y0202038D01*
X0014868Y0201937D01*
X0014750Y0201838D01*
X0014631Y0201742D01*
X0014509Y0201649D01*
X0014384Y0201560D01*
X0014257Y0201473D01*
X0014128Y0201391D01*
X0013997Y0201311D01*
X0013864Y0201235D01*
X0013729Y0201162D01*
X0013592Y0201093D01*
X0013453Y0201028D01*
X0013313Y0200966D01*
X0013171Y0200908D01*
X0013028Y0200853D01*
X0012883Y0200802D01*
X0012737Y0200755D01*
X0012590Y0200712D01*
X0012442Y0200673D01*
X0012293Y0200637D01*
X0012143Y0200606D01*
X0011992Y0200578D01*
X0011841Y0200554D01*
X0011688Y0200534D01*
X0011536Y0200518D01*
X0011383Y0200506D01*
X0011230Y0200498D01*
X0011077Y0200494D01*
X0010923Y0200494D01*
X0010770Y0200498D01*
X0010617Y0200506D01*
X0010464Y0200518D01*
X0010312Y0200534D01*
X0010159Y0200554D01*
X0010008Y0200578D01*
X0009857Y0200606D01*
X0009707Y0200637D01*
X0009558Y0200673D01*
X0009410Y0200712D01*
X0009263Y0200755D01*
X0009117Y0200802D01*
X0008972Y0200853D01*
X0008829Y0200908D01*
X0008687Y0200966D01*
X0008547Y0201028D01*
X0008408Y0201093D01*
X0008271Y0201162D01*
X0008136Y0201235D01*
X0008003Y0201311D01*
X0007872Y0201391D01*
X0007743Y0201473D01*
X0007616Y0201560D01*
X0007491Y0201649D01*
X0007369Y0201742D01*
X0007250Y0201838D01*
X0007132Y0201937D01*
X0007018Y0202038D01*
X0006906Y0202143D01*
X0006797Y0202251D01*
X0006691Y0202362D01*
X0006587Y0202475D01*
X0006487Y0202591D01*
X0006389Y0202709D01*
X0006295Y0202830D01*
X0006204Y0202953D01*
X0006116Y0203079D01*
X0006032Y0203207D01*
X0005950Y0203337D01*
X0005873Y0203469D01*
X0005798Y0203603D01*
X0005727Y0203739D01*
X0005660Y0203877D01*
X0005596Y0204017D01*
X0005536Y0204158D01*
X0005480Y0204300D01*
X0005427Y0204444D01*
X0005378Y0204590D01*
X0005333Y0204736D01*
X0005292Y0204884D01*
X0005255Y0205032D01*
X0005221Y0205182D01*
X0005191Y0205333D01*
X0005166Y0205484D01*
X0005144Y0205635D01*
X0005126Y0205788D01*
X0005112Y0205940D01*
X0005102Y0206093D01*
X0005096Y0206247D01*
X0005094Y0206400D01*
D11*
X0081000Y0176400D03*
X0081000Y0166400D03*
X0081000Y0156400D03*
X0081000Y0146400D03*
X0081000Y0136400D03*
X0081000Y0126400D03*
X0081000Y0116400D03*
X0081000Y0106400D03*
X0081000Y0096400D03*
X0081000Y0086400D03*
X0081000Y0076400D03*
X0081000Y0066400D03*
X0081000Y0056400D03*
X0081000Y0046400D03*
X0081000Y0036400D03*
X0181000Y0036400D03*
X0181000Y0046400D03*
X0181000Y0056400D03*
X0181000Y0066400D03*
X0181000Y0076400D03*
X0181000Y0086400D03*
X0181000Y0096400D03*
X0181000Y0106400D03*
X0181000Y0116400D03*
X0181000Y0126400D03*
X0181000Y0136400D03*
X0181000Y0146400D03*
X0181000Y0156400D03*
X0181000Y0166400D03*
X0181000Y0176400D03*
D12*
X0056000Y0156400D03*
X0041000Y0156400D03*
X0041000Y0126400D03*
X0031000Y0116400D03*
X0021000Y0116400D03*
X0046000Y0106400D03*
X0056000Y0106400D03*
X0056000Y0091400D03*
X0046000Y0091400D03*
X0031000Y0086400D03*
X0021000Y0086400D03*
X0046000Y0076400D03*
X0056000Y0076400D03*
X0056000Y0061400D03*
X0046000Y0061400D03*
X0056000Y0126400D03*
X0231000Y0050900D03*
X0241000Y0051900D03*
X0251000Y0050900D03*
X0261000Y0051900D03*
X0271000Y0050900D03*
D13*
X0036000Y0173605D03*
X0036000Y0199195D03*
D14*
X0026000Y0036400D03*
D15*
X0039780Y0036400D03*
X0053559Y0036400D03*
D16*
X0031700Y0061400D03*
X0020300Y0061400D03*
D17*
X0030750Y0060150D02*
X0031700Y0061400D01*
X0030750Y0060150D02*
X0030750Y0040900D01*
X0027250Y0037400D01*
X0026000Y0036400D01*
X0039780Y0036400D02*
X0041250Y0035650D01*
X0048250Y0028650D01*
X0172500Y0028650D01*
X0179500Y0035650D01*
X0181000Y0036400D01*
X0181250Y0037400D01*
X0228500Y0037400D01*
X0242500Y0051400D01*
X0241000Y0051900D01*
X0231000Y0050900D02*
X0230250Y0049650D01*
X0228500Y0047900D01*
X0181250Y0047900D01*
X0181000Y0046400D01*
X0179500Y0046150D01*
X0081500Y0046150D01*
X0081000Y0046400D01*
X0079750Y0046150D01*
X0064000Y0046150D01*
X0055250Y0037400D01*
X0053559Y0036400D01*
X0058750Y0053150D02*
X0036000Y0053150D01*
X0037750Y0068900D02*
X0020250Y0086400D01*
X0021000Y0086400D01*
X0031000Y0086400D02*
X0032500Y0086400D01*
X0032500Y0103900D01*
X0055250Y0126650D01*
X0056000Y0126400D01*
X0055250Y0140650D02*
X0041000Y0126400D01*
X0032500Y0117900D02*
X0031000Y0116400D01*
X0032500Y0117900D02*
X0032500Y0149400D01*
X0039500Y0156400D01*
X0041000Y0156400D01*
X0055250Y0156400D02*
X0056000Y0156400D01*
X0055250Y0156400D02*
X0055250Y0140650D01*
X0088500Y0168650D02*
X0088500Y0179150D01*
X0083250Y0184400D01*
X0046500Y0184400D01*
X0036000Y0173900D01*
X0036000Y0173605D01*
X0088500Y0168650D02*
X0179500Y0077650D01*
X0181000Y0076400D01*
X0081000Y0076400D02*
X0079750Y0075900D01*
X0065750Y0075900D01*
X0058750Y0068900D01*
X0037750Y0068900D01*
X0046000Y0076400D02*
X0046500Y0077650D01*
X0046500Y0089900D01*
X0046000Y0091400D01*
X0046500Y0091650D01*
X0046500Y0105650D01*
X0046000Y0106400D01*
X0056000Y0106400D02*
X0057000Y0105650D01*
X0065750Y0105650D01*
X0074500Y0096900D01*
X0079750Y0096900D01*
X0081000Y0096400D01*
X0064000Y0100400D02*
X0064000Y0088150D01*
X0057000Y0081150D01*
X0057000Y0077650D01*
X0056000Y0076400D01*
X0071000Y0065400D02*
X0058750Y0053150D01*
X0071000Y0065400D02*
X0079750Y0065400D01*
X0081000Y0066400D01*
D18*
X0036000Y0053150D03*
X0064000Y0100400D03*
M02*
