%
M48
M72
T01C0.02559
T02C0.03200
T03C0.03543
T04C0.04000
T05C0.04724
T06C0.11811
%
T01
X36000Y53150
X64000Y100400
T02
X31000Y86400
X21000Y86400
X21000Y116400
X31000Y116400
T03
X41000Y126400
X56000Y126400
X81000Y126400
X81000Y136400
X81000Y146400
X81000Y156400
X81000Y166400
X81000Y176400
X56000Y156400
X41000Y156400
X36000Y173605
X36000Y199195
X81000Y116400
X81000Y106400
X81000Y96400
X81000Y86400
X81000Y76400
X81000Y66400
X81000Y56400
X81000Y46400
X81000Y36400
X181000Y36400
X181000Y46400
X181000Y56400
X181000Y66400
X181000Y76400
X181000Y86400
X181000Y96400
X181000Y106400
X181000Y116400
X181000Y126400
X181000Y136400
X181000Y146400
X181000Y156400
X181000Y166400
X181000Y176400
T04
X56000Y106400
X46000Y106400
X46000Y91400
X56000Y91400
X56000Y76400
X46000Y76400
X46000Y61400
X56000Y61400
X31700Y61400
X20300Y61400
X231000Y50900
X241000Y51900
X251000Y50900
X261000Y51900
X271000Y50900
T05
X53559Y36400
X39780Y36400
X26000Y36400
T06
X11000Y26400
X216000Y61400
X291000Y61400
X311000Y26400
X291000Y166400
X311000Y206400
X216000Y166400
X11000Y206400
M30
