G75*
%MOIN*%
%OFA0B0*%
%FSLAX25Y25*%
%IPPOS*%
%LPD*%
%AMOC8*
5,1,8,0,0,1.08239X$1,22.5*
%
%ADD10C,0.00000*%
%ADD11C,0.00600*%
%ADD12C,0.07400*%
%ADD13R,0.06600X0.06600*%
%ADD14C,0.06600*%
%ADD15C,0.07600*%
%ADD16C,0.14000*%
%ADD17C,0.07000*%
%ADD18R,0.07000X0.07000*%
%ADD19C,0.02000*%
%ADD20C,0.04000*%
%ADD21C,0.01200*%
%ADD22C,0.03200*%
%ADD23C,0.04165*%
%ADD24C,0.01600*%
D10*
X0001000Y0001000D02*
X0001000Y0315961D01*
X0394701Y0315961D01*
X0394701Y0001000D01*
X0001000Y0001000D01*
D11*
X0086000Y0056000D02*
X0086000Y0256000D01*
X0306000Y0256000D01*
X0306000Y0056000D01*
X0086000Y0056000D01*
D12*
X0106000Y0070300D03*
X0116000Y0070300D03*
X0116000Y0081700D03*
X0106000Y0081700D03*
X0101000Y0091000D03*
X0111000Y0091000D03*
X0120500Y0101000D03*
X0121500Y0111000D03*
X0120500Y0121000D03*
X0111000Y0121000D03*
X0101000Y0121000D03*
X0121500Y0131000D03*
X0120500Y0141000D03*
X0121500Y0151000D03*
X0120500Y0161000D03*
X0121500Y0171000D03*
X0120500Y0211000D03*
X0121500Y0221000D03*
X0120500Y0231000D03*
X0121500Y0241000D03*
X0250500Y0231000D03*
X0251500Y0221000D03*
X0250500Y0211000D03*
X0266000Y0215500D03*
X0276000Y0216500D03*
X0286000Y0215500D03*
X0286700Y0196000D03*
X0275300Y0196000D03*
X0251500Y0241000D03*
X0276000Y0086000D03*
X0286000Y0086000D03*
X0286000Y0076000D03*
X0286000Y0066000D03*
X0276000Y0066000D03*
X0276000Y0076000D03*
D13*
X0166000Y0176000D03*
D14*
X0166000Y0166000D03*
X0166000Y0156000D03*
X0166000Y0146000D03*
X0166000Y0136000D03*
X0166000Y0126000D03*
X0206000Y0126000D03*
X0206000Y0136000D03*
X0206000Y0146000D03*
X0206000Y0156000D03*
X0206000Y0166000D03*
X0206000Y0176000D03*
D15*
X0232200Y0171000D02*
X0239800Y0171000D01*
X0239800Y0161000D02*
X0232200Y0161000D01*
X0232200Y0151000D02*
X0239800Y0151000D01*
X0239800Y0141000D02*
X0232200Y0141000D01*
X0232200Y0131000D02*
X0239800Y0131000D01*
X0239800Y0121000D02*
X0232200Y0121000D01*
X0232200Y0111000D02*
X0239800Y0111000D01*
X0239800Y0101000D02*
X0232200Y0101000D01*
X0232200Y0091000D02*
X0239800Y0091000D01*
X0239800Y0081000D02*
X0232200Y0081000D01*
X0139800Y0081000D02*
X0132200Y0081000D01*
X0132200Y0091000D02*
X0139800Y0091000D01*
X0139800Y0101000D02*
X0132200Y0101000D01*
X0132200Y0111000D02*
X0139800Y0111000D01*
X0139800Y0121000D02*
X0132200Y0121000D01*
X0132200Y0131000D02*
X0139800Y0131000D01*
X0139800Y0141000D02*
X0132200Y0141000D01*
X0132200Y0151000D02*
X0139800Y0151000D01*
X0139800Y0161000D02*
X0132200Y0161000D01*
X0132200Y0171000D02*
X0139800Y0171000D01*
X0139800Y0181000D02*
X0132200Y0181000D01*
X0132200Y0191000D02*
X0139800Y0191000D01*
X0139800Y0201000D02*
X0132200Y0201000D01*
X0132200Y0211000D02*
X0139800Y0211000D01*
X0139800Y0221000D02*
X0132200Y0221000D01*
X0232200Y0221000D02*
X0239800Y0221000D01*
X0239800Y0211000D02*
X0232200Y0211000D01*
X0232200Y0201000D02*
X0239800Y0201000D01*
X0239800Y0191000D02*
X0232200Y0191000D01*
X0232200Y0181000D02*
X0239800Y0181000D01*
D16*
X0281000Y0171000D03*
X0281000Y0151000D03*
X0281000Y0126000D03*
X0281000Y0106000D03*
D17*
X0106000Y0151000D03*
X0106000Y0161000D03*
X0106000Y0171000D03*
D18*
X0106000Y0181000D03*
X0261000Y0186000D03*
X0261000Y0166000D03*
X0261000Y0146000D03*
X0261000Y0126000D03*
X0261000Y0106000D03*
X0261000Y0086000D03*
D19*
X0254750Y0096000D02*
X0254750Y0074750D01*
X0213500Y0074750D01*
X0178500Y0109750D01*
X0178500Y0133500D01*
X0166000Y0146000D01*
X0166000Y0136000D02*
X0149750Y0152250D01*
X0149750Y0221000D01*
X0149750Y0231000D02*
X0197250Y0183500D01*
X0197250Y0121000D01*
X0187250Y0121000D02*
X0187250Y0188500D01*
X0146000Y0181000D02*
X0146000Y0078500D01*
X0132250Y0064750D01*
X0099750Y0064750D01*
X0099750Y0074750D01*
X0106000Y0081000D01*
X0106000Y0081700D01*
X0106000Y0082250D01*
X0101000Y0087250D01*
X0101000Y0091000D01*
X0111000Y0091000D02*
X0111000Y0087250D01*
X0116000Y0082250D01*
X0116000Y0081700D01*
X0122250Y0077250D02*
X0116000Y0071000D01*
X0116000Y0070300D01*
X0116000Y0071000D02*
X0106000Y0071000D01*
X0106000Y0070300D01*
X0122250Y0077250D02*
X0122250Y0091000D01*
X0094750Y0118500D01*
X0094750Y0139750D01*
X0106000Y0151000D01*
X0106000Y0161000D02*
X0099750Y0167250D01*
X0099750Y0247250D01*
X0123500Y0247250D01*
X0111000Y0238500D02*
X0111000Y0186000D01*
X0106000Y0181000D01*
X0121500Y0171000D02*
X0136000Y0171000D01*
X0136000Y0161000D02*
X0120500Y0161000D01*
X0121500Y0151000D02*
X0136000Y0151000D01*
X0136000Y0141000D02*
X0120500Y0141000D01*
X0121500Y0131000D02*
X0136000Y0131000D01*
X0136000Y0121000D02*
X0120500Y0121000D01*
X0114750Y0124750D02*
X0111000Y0121000D01*
X0101000Y0121000D01*
X0114750Y0124750D02*
X0114750Y0214750D01*
X0121000Y0221000D01*
X0121500Y0221000D01*
X0136000Y0181000D02*
X0146000Y0181000D01*
X0206000Y0146000D02*
X0226000Y0126000D01*
X0226000Y0088500D01*
X0233500Y0081000D01*
X0236000Y0081000D01*
X0253500Y0099750D02*
X0246000Y0107250D01*
X0261000Y0106000D02*
X0261000Y0102250D01*
X0269750Y0094750D02*
X0281000Y0106000D01*
X0269750Y0094750D02*
X0269750Y0072250D01*
X0276000Y0066000D01*
X0286000Y0066000D01*
X0286000Y0076000D02*
X0276000Y0076000D01*
X0249750Y0122250D02*
X0249750Y0184750D01*
X0257250Y0192250D01*
X0257250Y0236000D01*
X0252250Y0241000D01*
X0251500Y0241000D01*
X0250500Y0231000D02*
X0226000Y0231000D01*
X0226000Y0138500D01*
X0233500Y0131000D01*
X0236000Y0131000D01*
X0246000Y0153500D02*
X0238500Y0161000D01*
X0236000Y0161000D01*
X0274750Y0196000D02*
X0275300Y0196000D01*
X0276000Y0196000D01*
X0286000Y0206000D01*
X0286000Y0215500D01*
X0286700Y0196000D02*
X0287250Y0196000D01*
X0136000Y0111000D02*
X0121500Y0111000D01*
X0120500Y0101000D02*
X0136000Y0101000D01*
X0136000Y0091000D02*
X0122250Y0091000D01*
D20*
X0254750Y0112250D02*
X0261000Y0106000D01*
X0261000Y0126000D02*
X0281000Y0126000D01*
X0294750Y0114750D02*
X0294750Y0158500D01*
X0291625Y0161625D01*
X0289125Y0159125D01*
X0281000Y0151000D01*
X0291625Y0161625D02*
X0294750Y0164750D01*
X0294750Y0188500D01*
X0287250Y0196000D01*
X0274750Y0196000D02*
X0274750Y0179750D01*
X0261000Y0166000D01*
X0254750Y0159750D01*
X0294750Y0114750D02*
X0286000Y0106000D01*
X0281000Y0106000D01*
D21*
X0261000Y0102250D02*
X0254750Y0096000D01*
X0187250Y0188500D02*
X0141000Y0234750D01*
X0149750Y0221000D02*
X0123500Y0247250D01*
D22*
X0254750Y0159750D02*
X0254750Y0112250D01*
D23*
X0249750Y0122250D03*
X0253500Y0099750D03*
X0197250Y0121000D03*
X0187250Y0121000D03*
X0149750Y0231000D03*
X0141000Y0234750D03*
X0111000Y0238500D03*
D24*
X0246000Y0153500D02*
X0246000Y0107250D01*
M02*
