G75*
%MOIN*%
%OFA0B0*%
%FSLAX25Y25*%
%IPPOS*%
%LPD*%
%AMOC8*
5,1,8,0,0,1.08239X$1,22.5*
%
%ADD10C,0.07400*%
%ADD11R,0.06600X0.06600*%
%ADD12C,0.06600*%
%ADD13C,0.07600*%
%ADD14C,0.14000*%
%ADD15C,0.07000*%
%ADD16R,0.07000X0.07000*%
%ADD17C,0.02000*%
%ADD18C,0.01600*%
%ADD19C,0.04165*%
%ADD20C,0.04000*%
D10*
X0106000Y0070300D03*
X0116000Y0070300D03*
X0116000Y0081700D03*
X0106000Y0081700D03*
X0101000Y0091000D03*
X0111000Y0091000D03*
X0120500Y0101000D03*
X0121500Y0111000D03*
X0120500Y0121000D03*
X0111000Y0121000D03*
X0101000Y0121000D03*
X0121500Y0131000D03*
X0120500Y0141000D03*
X0121500Y0151000D03*
X0120500Y0161000D03*
X0121500Y0171000D03*
X0120500Y0211000D03*
X0121500Y0221000D03*
X0120500Y0231000D03*
X0121500Y0241000D03*
X0250500Y0231000D03*
X0251500Y0221000D03*
X0250500Y0211000D03*
X0266000Y0215500D03*
X0276000Y0216500D03*
X0286000Y0215500D03*
X0286700Y0196000D03*
X0275300Y0196000D03*
X0251500Y0241000D03*
X0276000Y0086000D03*
X0286000Y0086000D03*
X0286000Y0076000D03*
X0286000Y0066000D03*
X0276000Y0066000D03*
X0276000Y0076000D03*
D11*
X0166000Y0176000D03*
D12*
X0166000Y0166000D03*
X0166000Y0156000D03*
X0166000Y0146000D03*
X0166000Y0136000D03*
X0166000Y0126000D03*
X0206000Y0126000D03*
X0206000Y0136000D03*
X0206000Y0146000D03*
X0206000Y0156000D03*
X0206000Y0166000D03*
X0206000Y0176000D03*
D13*
X0232200Y0171000D02*
X0239800Y0171000D01*
X0239800Y0161000D02*
X0232200Y0161000D01*
X0232200Y0151000D02*
X0239800Y0151000D01*
X0239800Y0141000D02*
X0232200Y0141000D01*
X0232200Y0131000D02*
X0239800Y0131000D01*
X0239800Y0121000D02*
X0232200Y0121000D01*
X0232200Y0111000D02*
X0239800Y0111000D01*
X0239800Y0101000D02*
X0232200Y0101000D01*
X0232200Y0091000D02*
X0239800Y0091000D01*
X0239800Y0081000D02*
X0232200Y0081000D01*
X0139800Y0081000D02*
X0132200Y0081000D01*
X0132200Y0091000D02*
X0139800Y0091000D01*
X0139800Y0101000D02*
X0132200Y0101000D01*
X0132200Y0111000D02*
X0139800Y0111000D01*
X0139800Y0121000D02*
X0132200Y0121000D01*
X0132200Y0131000D02*
X0139800Y0131000D01*
X0139800Y0141000D02*
X0132200Y0141000D01*
X0132200Y0151000D02*
X0139800Y0151000D01*
X0139800Y0161000D02*
X0132200Y0161000D01*
X0132200Y0171000D02*
X0139800Y0171000D01*
X0139800Y0181000D02*
X0132200Y0181000D01*
X0132200Y0191000D02*
X0139800Y0191000D01*
X0139800Y0201000D02*
X0132200Y0201000D01*
X0132200Y0211000D02*
X0139800Y0211000D01*
X0139800Y0221000D02*
X0132200Y0221000D01*
X0232200Y0221000D02*
X0239800Y0221000D01*
X0239800Y0211000D02*
X0232200Y0211000D01*
X0232200Y0201000D02*
X0239800Y0201000D01*
X0239800Y0191000D02*
X0232200Y0191000D01*
X0232200Y0181000D02*
X0239800Y0181000D01*
D14*
X0281000Y0171000D03*
X0281000Y0151000D03*
X0281000Y0126000D03*
X0281000Y0106000D03*
D15*
X0106000Y0151000D03*
X0106000Y0161000D03*
X0106000Y0171000D03*
D16*
X0106000Y0181000D03*
X0261000Y0186000D03*
X0261000Y0166000D03*
X0261000Y0146000D03*
X0261000Y0126000D03*
X0261000Y0106000D03*
X0261000Y0086000D03*
D17*
X0257250Y0079750D02*
X0247250Y0089750D01*
X0247250Y0106000D01*
X0261000Y0106000D01*
X0262250Y0099750D02*
X0253500Y0099750D01*
X0262250Y0099750D02*
X0276000Y0086000D01*
X0272250Y0079750D02*
X0257250Y0079750D01*
X0272250Y0079750D02*
X0276000Y0076000D01*
X0274750Y0067250D02*
X0174750Y0067250D01*
X0118500Y0067250D01*
X0116000Y0069750D01*
X0116000Y0070300D01*
X0126000Y0071000D02*
X0116000Y0081000D01*
X0116000Y0081700D01*
X0122250Y0082250D02*
X0122250Y0094750D01*
X0118500Y0094750D01*
X0094750Y0118500D01*
X0094750Y0144750D01*
X0107250Y0144750D01*
X0112250Y0149750D01*
X0112250Y0171000D01*
X0106000Y0171000D01*
X0099750Y0157250D02*
X0099750Y0211000D01*
X0120500Y0211000D01*
X0121500Y0221000D02*
X0122250Y0221000D01*
X0128500Y0227250D01*
X0128500Y0234750D02*
X0141000Y0234750D01*
X0128500Y0234750D02*
X0122250Y0241000D01*
X0121500Y0241000D01*
X0119750Y0247250D02*
X0254750Y0247250D01*
X0286000Y0216000D01*
X0286000Y0215500D01*
X0276000Y0216500D02*
X0276000Y0217250D01*
X0272250Y0221000D01*
X0251500Y0221000D01*
X0251000Y0221000D01*
X0244750Y0227250D01*
X0216000Y0227250D01*
X0216000Y0156000D01*
X0206000Y0146000D01*
X0206000Y0156000D02*
X0174750Y0156000D01*
X0174750Y0067250D01*
X0171000Y0071000D02*
X0126000Y0071000D01*
X0129750Y0074750D02*
X0122250Y0082250D01*
X0129750Y0074750D02*
X0166000Y0074750D01*
X0166000Y0126000D01*
X0156000Y0131000D02*
X0156000Y0173500D01*
X0142250Y0187250D01*
X0139750Y0187250D01*
X0136000Y0191000D01*
X0166000Y0156000D02*
X0174750Y0156000D01*
X0206000Y0136000D02*
X0226000Y0156000D01*
X0226000Y0171000D01*
X0236000Y0171000D01*
X0236000Y0151000D02*
X0238500Y0151000D01*
X0249750Y0139750D01*
X0267250Y0139750D01*
X0267250Y0104750D01*
X0286000Y0086000D01*
X0274750Y0067250D02*
X0276000Y0066000D01*
X0236000Y0101000D02*
X0207250Y0101000D01*
X0187250Y0121000D01*
X0197250Y0121000D02*
X0207250Y0111000D01*
X0236000Y0111000D01*
X0236000Y0121000D02*
X0248500Y0121000D01*
X0249750Y0122250D01*
X0236000Y0141000D02*
X0221000Y0141000D01*
X0206000Y0126000D01*
X0286000Y0196000D02*
X0286700Y0196000D01*
X0286000Y0196000D02*
X0267250Y0214750D01*
X0266000Y0214750D01*
X0266000Y0215500D01*
X0266000Y0214750D02*
X0254750Y0214750D01*
X0251000Y0211000D01*
X0250500Y0211000D01*
X0119750Y0247250D02*
X0111000Y0238500D01*
X0099750Y0157250D02*
X0106000Y0151000D01*
D18*
X0156000Y0131000D02*
X0168500Y0131000D01*
X0171000Y0128500D01*
X0171000Y0071000D01*
X0128500Y0227250D02*
X0216000Y0227250D01*
X0149750Y0231000D02*
X0120500Y0231000D01*
D19*
X0111000Y0238500D03*
X0141000Y0234750D03*
X0149750Y0231000D03*
X0187250Y0121000D03*
X0197250Y0121000D03*
X0249750Y0122250D03*
X0253500Y0099750D03*
D20*
X0276000Y0171000D02*
X0281000Y0171000D01*
X0276000Y0171000D02*
X0261000Y0186000D01*
M02*
