%
M48
M72
T01C0.02165
T02C0.02362
T03C0.03543
T04C0.04000
T05C0.08100
%
T01
X187250Y121000
X197250Y121000
X249750Y122250
X253500Y99750
X149750Y231000
X141000Y234750
X111000Y238500
T02
X106000Y181000
X106000Y171000
X106000Y161000
X106000Y151000
X166000Y146000
X166000Y156000
X166000Y166000
X166000Y176000
X206000Y176000
X206000Y166000
X206000Y156000
X206000Y146000
X206000Y136000
X206000Y126000
X166000Y126000
X166000Y136000
X261000Y126000
X261000Y106000
X261000Y86000
X261000Y146000
X261000Y166000
X261000Y186000
T03
X236000Y181000
X236000Y191000
X236000Y201000
X236000Y211000
X236000Y221000
X236000Y171000
X236000Y161000
X236000Y151000
X236000Y141000
X236000Y131000
X236000Y121000
X236000Y111000
X236000Y101000
X236000Y91000
X236000Y81000
X136000Y81000
X136000Y91000
X136000Y101000
X136000Y111000
X136000Y121000
X136000Y131000
X136000Y141000
X136000Y151000
X136000Y161000
X136000Y171000
X136000Y181000
X136000Y191000
X136000Y201000
X136000Y211000
X136000Y221000
X111000Y121000
X101000Y121000
X101000Y91000
X111000Y91000
T04
X106000Y70300
X116000Y70300
X116000Y81700
X106000Y81700
X120500Y101000
X121500Y111000
X120500Y121000
X121500Y131000
X120500Y141000
X121500Y151000
X120500Y161000
X121500Y171000
X120500Y211000
X121500Y221000
X120500Y231000
X121500Y241000
X250500Y231000
X251500Y221000
X250500Y211000
X266000Y215500
X276000Y216500
X286000Y215500
X286700Y196000
X275300Y196000
X251500Y241000
X276000Y86000
X286000Y86000
X286000Y76000
X286000Y66000
X276000Y66000
X276000Y76000
T05
X281000Y106000
X281000Y126000
X281000Y151000
X281000Y171000
M30
