G75*
%MOIN*%
%OFA0B0*%
%FSLAX25Y25*%
%IPPOS*%
%LPD*%
%AMOC8*
5,1,8,0,0,1.08239X$1,22.5*
%
%ADD10C,0.00300*%
%ADD11C,0.00800*%
%ADD12C,0.00500*%
D10*
X0092150Y0071150D02*
X0092150Y0072178D01*
X0092152Y0072234D01*
X0092158Y0072290D01*
X0092167Y0072345D01*
X0092180Y0072400D01*
X0092197Y0072453D01*
X0092218Y0072505D01*
X0092242Y0072556D01*
X0092270Y0072605D01*
X0092300Y0072652D01*
X0092334Y0072697D01*
X0092371Y0072739D01*
X0092411Y0072779D01*
X0092453Y0072816D01*
X0092498Y0072850D01*
X0092545Y0072880D01*
X0092594Y0072908D01*
X0092645Y0072932D01*
X0092697Y0072953D01*
X0092750Y0072970D01*
X0092805Y0072983D01*
X0092860Y0072992D01*
X0092916Y0072998D01*
X0092972Y0073000D01*
X0093028Y0072998D01*
X0093084Y0072992D01*
X0093139Y0072983D01*
X0093194Y0072970D01*
X0093247Y0072953D01*
X0093299Y0072932D01*
X0093350Y0072908D01*
X0093399Y0072880D01*
X0093446Y0072850D01*
X0093491Y0072816D01*
X0093533Y0072779D01*
X0093573Y0072739D01*
X0093610Y0072697D01*
X0093644Y0072652D01*
X0093674Y0072605D01*
X0093702Y0072556D01*
X0093726Y0072505D01*
X0093747Y0072453D01*
X0093764Y0072400D01*
X0093777Y0072345D01*
X0093786Y0072290D01*
X0093792Y0072234D01*
X0093794Y0072178D01*
X0093794Y0071150D01*
X0093794Y0072178D02*
X0093796Y0072241D01*
X0093802Y0072304D01*
X0093812Y0072367D01*
X0093825Y0072429D01*
X0093842Y0072490D01*
X0093863Y0072549D01*
X0093888Y0072608D01*
X0093916Y0072664D01*
X0093948Y0072719D01*
X0093983Y0072772D01*
X0094021Y0072822D01*
X0094062Y0072871D01*
X0094106Y0072916D01*
X0094153Y0072959D01*
X0094202Y0072998D01*
X0094254Y0073035D01*
X0094308Y0073068D01*
X0094364Y0073098D01*
X0094421Y0073125D01*
X0094480Y0073148D01*
X0094541Y0073167D01*
X0094602Y0073182D01*
X0094664Y0073194D01*
X0094727Y0073202D01*
X0094790Y0073206D01*
X0094854Y0073206D01*
X0094917Y0073202D01*
X0094980Y0073194D01*
X0095042Y0073182D01*
X0095103Y0073167D01*
X0095164Y0073148D01*
X0095223Y0073125D01*
X0095280Y0073098D01*
X0095336Y0073068D01*
X0095390Y0073035D01*
X0095442Y0072998D01*
X0095491Y0072959D01*
X0095538Y0072916D01*
X0095582Y0072871D01*
X0095623Y0072822D01*
X0095661Y0072772D01*
X0095696Y0072719D01*
X0095728Y0072664D01*
X0095756Y0072608D01*
X0095781Y0072549D01*
X0095802Y0072490D01*
X0095819Y0072429D01*
X0095832Y0072367D01*
X0095842Y0072304D01*
X0095848Y0072241D01*
X0095850Y0072178D01*
X0095850Y0071150D01*
X0092150Y0071150D01*
X0092150Y0074338D02*
X0092150Y0076394D01*
X0092150Y0075366D02*
X0095850Y0075366D01*
X0095850Y0077818D02*
X0092150Y0077818D01*
X0095850Y0079874D01*
X0092150Y0079874D01*
X0093795Y0083286D02*
X0093751Y0083329D01*
X0093704Y0083370D01*
X0093655Y0083407D01*
X0093604Y0083442D01*
X0093550Y0083473D01*
X0093495Y0083501D01*
X0093438Y0083525D01*
X0093380Y0083546D01*
X0093320Y0083563D01*
X0093260Y0083577D01*
X0093199Y0083586D01*
X0093137Y0083592D01*
X0093075Y0083594D01*
X0093794Y0083286D02*
X0095850Y0081538D01*
X0095850Y0083594D01*
X0092972Y0081539D02*
X0092908Y0081562D01*
X0092845Y0081588D01*
X0092784Y0081618D01*
X0092725Y0081651D01*
X0092668Y0081688D01*
X0092613Y0081728D01*
X0092561Y0081771D01*
X0092511Y0081817D01*
X0092463Y0081865D01*
X0092419Y0081916D01*
X0092377Y0081970D01*
X0092339Y0082026D01*
X0092304Y0082084D01*
X0092272Y0082144D01*
X0092244Y0082206D01*
X0092219Y0082269D01*
X0092198Y0082334D01*
X0092181Y0082400D01*
X0092167Y0082466D01*
X0092158Y0082533D01*
X0092152Y0082601D01*
X0092150Y0082669D01*
X0092152Y0082727D01*
X0092157Y0082785D01*
X0092166Y0082842D01*
X0092179Y0082899D01*
X0092195Y0082955D01*
X0092215Y0083010D01*
X0092238Y0083063D01*
X0092264Y0083115D01*
X0092294Y0083165D01*
X0092327Y0083213D01*
X0092362Y0083259D01*
X0092401Y0083302D01*
X0092442Y0083343D01*
X0092485Y0083382D01*
X0092531Y0083417D01*
X0092579Y0083450D01*
X0092629Y0083480D01*
X0092681Y0083506D01*
X0092734Y0083529D01*
X0092789Y0083549D01*
X0092845Y0083565D01*
X0092902Y0083578D01*
X0092959Y0083587D01*
X0093017Y0083592D01*
X0093075Y0083594D01*
X0122150Y0082566D02*
X0125850Y0082566D01*
X0125850Y0081538D02*
X0125850Y0083594D01*
X0122972Y0081538D02*
X0122150Y0082566D01*
X0122150Y0079874D02*
X0125850Y0079874D01*
X0122150Y0077818D01*
X0125850Y0077818D01*
X0125850Y0075366D02*
X0122150Y0075366D01*
X0122150Y0074338D02*
X0122150Y0076394D01*
X0122150Y0072178D02*
X0122150Y0071150D01*
X0125850Y0071150D01*
X0125850Y0072178D01*
X0125848Y0072241D01*
X0125842Y0072304D01*
X0125832Y0072367D01*
X0125819Y0072429D01*
X0125802Y0072490D01*
X0125781Y0072549D01*
X0125756Y0072608D01*
X0125728Y0072664D01*
X0125696Y0072719D01*
X0125661Y0072772D01*
X0125623Y0072822D01*
X0125582Y0072871D01*
X0125538Y0072916D01*
X0125491Y0072959D01*
X0125442Y0072998D01*
X0125390Y0073035D01*
X0125336Y0073068D01*
X0125280Y0073098D01*
X0125223Y0073125D01*
X0125164Y0073148D01*
X0125103Y0073167D01*
X0125042Y0073182D01*
X0124980Y0073194D01*
X0124917Y0073202D01*
X0124854Y0073206D01*
X0124790Y0073206D01*
X0124727Y0073202D01*
X0124664Y0073194D01*
X0124602Y0073182D01*
X0124541Y0073167D01*
X0124480Y0073148D01*
X0124421Y0073125D01*
X0124364Y0073098D01*
X0124308Y0073068D01*
X0124254Y0073035D01*
X0124202Y0072998D01*
X0124153Y0072959D01*
X0124106Y0072916D01*
X0124062Y0072871D01*
X0124021Y0072822D01*
X0123983Y0072772D01*
X0123948Y0072719D01*
X0123916Y0072664D01*
X0123888Y0072608D01*
X0123863Y0072549D01*
X0123842Y0072490D01*
X0123825Y0072429D01*
X0123812Y0072367D01*
X0123802Y0072304D01*
X0123796Y0072241D01*
X0123794Y0072178D01*
X0123794Y0071150D01*
X0123794Y0072178D02*
X0123792Y0072234D01*
X0123786Y0072290D01*
X0123777Y0072345D01*
X0123764Y0072400D01*
X0123747Y0072453D01*
X0123726Y0072505D01*
X0123702Y0072556D01*
X0123674Y0072605D01*
X0123644Y0072652D01*
X0123610Y0072697D01*
X0123573Y0072739D01*
X0123533Y0072779D01*
X0123491Y0072816D01*
X0123446Y0072850D01*
X0123399Y0072880D01*
X0123350Y0072908D01*
X0123299Y0072932D01*
X0123247Y0072953D01*
X0123194Y0072970D01*
X0123139Y0072983D01*
X0123084Y0072992D01*
X0123028Y0072998D01*
X0122972Y0073000D01*
X0122916Y0072998D01*
X0122860Y0072992D01*
X0122805Y0072983D01*
X0122750Y0072970D01*
X0122697Y0072953D01*
X0122645Y0072932D01*
X0122594Y0072908D01*
X0122545Y0072880D01*
X0122498Y0072850D01*
X0122453Y0072816D01*
X0122411Y0072779D01*
X0122371Y0072739D01*
X0122334Y0072697D01*
X0122300Y0072652D01*
X0122270Y0072605D01*
X0122242Y0072556D01*
X0122218Y0072505D01*
X0122197Y0072453D01*
X0122180Y0072400D01*
X0122167Y0072345D01*
X0122158Y0072290D01*
X0122152Y0072234D01*
X0122150Y0072178D01*
X0171150Y0146150D02*
X0171150Y0149850D01*
X0171150Y0148206D02*
X0173206Y0148206D01*
X0173206Y0149850D02*
X0173206Y0146150D01*
X0175898Y0146150D02*
X0177131Y0149850D01*
X0174664Y0149850D02*
X0175898Y0146150D01*
X0181972Y0156150D02*
X0183206Y0156150D01*
X0183206Y0158206D01*
X0182589Y0158206D01*
X0181150Y0159028D02*
X0181152Y0159084D01*
X0181158Y0159140D01*
X0181167Y0159195D01*
X0181180Y0159250D01*
X0181197Y0159303D01*
X0181218Y0159355D01*
X0181242Y0159406D01*
X0181270Y0159455D01*
X0181300Y0159502D01*
X0181334Y0159547D01*
X0181371Y0159589D01*
X0181411Y0159629D01*
X0181453Y0159666D01*
X0181498Y0159700D01*
X0181545Y0159730D01*
X0181594Y0159758D01*
X0181645Y0159782D01*
X0181697Y0159803D01*
X0181750Y0159820D01*
X0181805Y0159833D01*
X0181860Y0159842D01*
X0181916Y0159848D01*
X0181972Y0159850D01*
X0183206Y0159850D01*
X0184990Y0159850D02*
X0187046Y0156150D01*
X0187046Y0159850D01*
X0188830Y0159850D02*
X0189858Y0159850D01*
X0189920Y0159848D01*
X0189982Y0159843D01*
X0190043Y0159833D01*
X0190104Y0159820D01*
X0190164Y0159803D01*
X0190223Y0159783D01*
X0190280Y0159759D01*
X0190336Y0159732D01*
X0190390Y0159702D01*
X0190442Y0159668D01*
X0190492Y0159631D01*
X0190540Y0159591D01*
X0190585Y0159549D01*
X0190627Y0159504D01*
X0190667Y0159456D01*
X0190704Y0159406D01*
X0190738Y0159354D01*
X0190768Y0159300D01*
X0190795Y0159244D01*
X0190819Y0159187D01*
X0190839Y0159128D01*
X0190856Y0159068D01*
X0190869Y0159007D01*
X0190879Y0158946D01*
X0190884Y0158884D01*
X0190886Y0158822D01*
X0190886Y0157178D01*
X0190884Y0157116D01*
X0190879Y0157054D01*
X0190869Y0156993D01*
X0190856Y0156932D01*
X0190839Y0156872D01*
X0190819Y0156813D01*
X0190795Y0156756D01*
X0190768Y0156700D01*
X0190738Y0156646D01*
X0190704Y0156594D01*
X0190667Y0156544D01*
X0190627Y0156496D01*
X0190585Y0156451D01*
X0190540Y0156409D01*
X0190492Y0156369D01*
X0190442Y0156332D01*
X0190390Y0156298D01*
X0190336Y0156268D01*
X0190280Y0156241D01*
X0190223Y0156217D01*
X0190164Y0156197D01*
X0190104Y0156180D01*
X0190043Y0156167D01*
X0189982Y0156157D01*
X0189920Y0156152D01*
X0189858Y0156150D01*
X0188830Y0156150D01*
X0188830Y0159850D01*
X0184990Y0159850D02*
X0184990Y0156150D01*
X0181972Y0156150D02*
X0181916Y0156152D01*
X0181860Y0156158D01*
X0181805Y0156167D01*
X0181750Y0156180D01*
X0181697Y0156197D01*
X0181645Y0156218D01*
X0181594Y0156242D01*
X0181545Y0156270D01*
X0181498Y0156300D01*
X0181453Y0156334D01*
X0181411Y0156371D01*
X0181371Y0156411D01*
X0181334Y0156453D01*
X0181300Y0156498D01*
X0181270Y0156545D01*
X0181242Y0156594D01*
X0181218Y0156645D01*
X0181197Y0156697D01*
X0181180Y0156750D01*
X0181167Y0156805D01*
X0181158Y0156860D01*
X0181152Y0156916D01*
X0181150Y0156972D01*
X0181150Y0159028D01*
X0196150Y0149850D02*
X0196150Y0146150D01*
X0197794Y0146150D01*
X0200171Y0146150D02*
X0201404Y0149850D01*
X0198938Y0149850D02*
X0200171Y0146150D01*
X0261150Y0196150D02*
X0263206Y0196150D01*
X0262178Y0196150D02*
X0262178Y0199850D01*
X0261150Y0199028D01*
X0264750Y0196150D02*
X0266806Y0196150D01*
X0264750Y0196150D02*
X0266497Y0198206D01*
X0265881Y0199850D02*
X0265813Y0199848D01*
X0265745Y0199842D01*
X0265678Y0199833D01*
X0265612Y0199819D01*
X0265546Y0199802D01*
X0265481Y0199781D01*
X0265418Y0199756D01*
X0265356Y0199728D01*
X0265296Y0199696D01*
X0265238Y0199661D01*
X0265182Y0199623D01*
X0265129Y0199581D01*
X0265077Y0199537D01*
X0265029Y0199489D01*
X0264983Y0199439D01*
X0264940Y0199387D01*
X0264900Y0199332D01*
X0264863Y0199275D01*
X0264830Y0199216D01*
X0264800Y0199155D01*
X0264774Y0199092D01*
X0264751Y0199028D01*
X0266498Y0198205D02*
X0266541Y0198249D01*
X0266582Y0198296D01*
X0266619Y0198345D01*
X0266654Y0198396D01*
X0266685Y0198450D01*
X0266713Y0198505D01*
X0266737Y0198562D01*
X0266758Y0198620D01*
X0266775Y0198680D01*
X0266789Y0198740D01*
X0266798Y0198801D01*
X0266804Y0198863D01*
X0266806Y0198925D01*
X0266804Y0198983D01*
X0266799Y0199041D01*
X0266790Y0199098D01*
X0266777Y0199155D01*
X0266761Y0199211D01*
X0266741Y0199266D01*
X0266718Y0199319D01*
X0266692Y0199371D01*
X0266662Y0199421D01*
X0266629Y0199469D01*
X0266594Y0199515D01*
X0266555Y0199558D01*
X0266514Y0199599D01*
X0266471Y0199638D01*
X0266425Y0199673D01*
X0266377Y0199706D01*
X0266327Y0199736D01*
X0266275Y0199762D01*
X0266222Y0199785D01*
X0266167Y0199805D01*
X0266111Y0199821D01*
X0266054Y0199834D01*
X0265997Y0199843D01*
X0265939Y0199848D01*
X0265881Y0199850D01*
X0268196Y0198617D02*
X0269018Y0196150D01*
X0269840Y0198617D01*
X0255886Y0202178D02*
X0255886Y0203822D01*
X0255884Y0203884D01*
X0255879Y0203946D01*
X0255869Y0204007D01*
X0255856Y0204068D01*
X0255839Y0204128D01*
X0255819Y0204187D01*
X0255795Y0204244D01*
X0255768Y0204300D01*
X0255738Y0204354D01*
X0255704Y0204406D01*
X0255667Y0204456D01*
X0255627Y0204504D01*
X0255585Y0204549D01*
X0255540Y0204591D01*
X0255492Y0204631D01*
X0255442Y0204668D01*
X0255390Y0204702D01*
X0255336Y0204732D01*
X0255280Y0204759D01*
X0255223Y0204783D01*
X0255164Y0204803D01*
X0255104Y0204820D01*
X0255043Y0204833D01*
X0254982Y0204843D01*
X0254920Y0204848D01*
X0254858Y0204850D01*
X0253830Y0204850D01*
X0253830Y0201150D01*
X0254858Y0201150D01*
X0254920Y0201152D01*
X0254982Y0201157D01*
X0255043Y0201167D01*
X0255104Y0201180D01*
X0255164Y0201197D01*
X0255223Y0201217D01*
X0255280Y0201241D01*
X0255336Y0201268D01*
X0255390Y0201298D01*
X0255442Y0201332D01*
X0255492Y0201369D01*
X0255540Y0201409D01*
X0255585Y0201451D01*
X0255627Y0201496D01*
X0255667Y0201544D01*
X0255704Y0201594D01*
X0255738Y0201646D01*
X0255768Y0201700D01*
X0255795Y0201756D01*
X0255819Y0201813D01*
X0255839Y0201872D01*
X0255856Y0201932D01*
X0255869Y0201993D01*
X0255879Y0202054D01*
X0255884Y0202116D01*
X0255886Y0202178D01*
X0252046Y0201150D02*
X0252046Y0204850D01*
X0249990Y0204850D02*
X0252046Y0201150D01*
X0249990Y0201150D02*
X0249990Y0204850D01*
X0248206Y0204850D02*
X0246972Y0204850D01*
X0246916Y0204848D01*
X0246860Y0204842D01*
X0246805Y0204833D01*
X0246750Y0204820D01*
X0246697Y0204803D01*
X0246645Y0204782D01*
X0246594Y0204758D01*
X0246545Y0204730D01*
X0246498Y0204700D01*
X0246453Y0204666D01*
X0246411Y0204629D01*
X0246371Y0204589D01*
X0246334Y0204547D01*
X0246300Y0204502D01*
X0246270Y0204455D01*
X0246242Y0204406D01*
X0246218Y0204355D01*
X0246197Y0204303D01*
X0246180Y0204250D01*
X0246167Y0204195D01*
X0246158Y0204140D01*
X0246152Y0204084D01*
X0246150Y0204028D01*
X0246150Y0201972D01*
X0246152Y0201916D01*
X0246158Y0201860D01*
X0246167Y0201805D01*
X0246180Y0201750D01*
X0246197Y0201697D01*
X0246218Y0201645D01*
X0246242Y0201594D01*
X0246270Y0201545D01*
X0246300Y0201498D01*
X0246334Y0201453D01*
X0246371Y0201411D01*
X0246411Y0201371D01*
X0246453Y0201334D01*
X0246498Y0201300D01*
X0246545Y0201270D01*
X0246594Y0201242D01*
X0246645Y0201218D01*
X0246697Y0201197D01*
X0246750Y0201180D01*
X0246805Y0201167D01*
X0246860Y0201158D01*
X0246916Y0201152D01*
X0246972Y0201150D01*
X0248206Y0201150D01*
X0248206Y0203206D01*
X0247589Y0203206D01*
X0262972Y0226150D02*
X0265028Y0226150D01*
X0265084Y0226152D01*
X0265140Y0226158D01*
X0265195Y0226167D01*
X0265250Y0226180D01*
X0265303Y0226197D01*
X0265355Y0226218D01*
X0265406Y0226242D01*
X0265455Y0226270D01*
X0265502Y0226300D01*
X0265547Y0226334D01*
X0265589Y0226371D01*
X0265629Y0226411D01*
X0265666Y0226453D01*
X0265700Y0226498D01*
X0265730Y0226545D01*
X0265758Y0226594D01*
X0265782Y0226645D01*
X0265803Y0226697D01*
X0265820Y0226750D01*
X0265833Y0226805D01*
X0265842Y0226860D01*
X0265848Y0226916D01*
X0265850Y0226972D01*
X0265850Y0228206D01*
X0263794Y0228206D01*
X0263794Y0227589D01*
X0262972Y0226150D02*
X0262916Y0226152D01*
X0262860Y0226158D01*
X0262805Y0226167D01*
X0262750Y0226180D01*
X0262697Y0226197D01*
X0262645Y0226218D01*
X0262594Y0226242D01*
X0262545Y0226270D01*
X0262498Y0226300D01*
X0262453Y0226334D01*
X0262411Y0226371D01*
X0262371Y0226411D01*
X0262334Y0226453D01*
X0262300Y0226498D01*
X0262270Y0226545D01*
X0262242Y0226594D01*
X0262218Y0226644D01*
X0262197Y0226697D01*
X0262180Y0226750D01*
X0262167Y0226805D01*
X0262158Y0226860D01*
X0262152Y0226916D01*
X0262150Y0226972D01*
X0262150Y0228206D01*
X0262150Y0229990D02*
X0265850Y0232046D01*
X0262150Y0232046D01*
X0262150Y0233830D02*
X0262150Y0234858D01*
X0262152Y0234920D01*
X0262157Y0234982D01*
X0262167Y0235043D01*
X0262180Y0235104D01*
X0262197Y0235164D01*
X0262217Y0235223D01*
X0262241Y0235280D01*
X0262268Y0235336D01*
X0262298Y0235390D01*
X0262332Y0235442D01*
X0262369Y0235492D01*
X0262409Y0235540D01*
X0262451Y0235585D01*
X0262496Y0235627D01*
X0262544Y0235667D01*
X0262594Y0235704D01*
X0262646Y0235738D01*
X0262700Y0235768D01*
X0262756Y0235795D01*
X0262813Y0235819D01*
X0262872Y0235839D01*
X0262932Y0235856D01*
X0262993Y0235869D01*
X0263054Y0235879D01*
X0263116Y0235884D01*
X0263178Y0235886D01*
X0264822Y0235886D01*
X0264884Y0235884D01*
X0264946Y0235879D01*
X0265007Y0235869D01*
X0265068Y0235856D01*
X0265128Y0235839D01*
X0265187Y0235819D01*
X0265244Y0235795D01*
X0265300Y0235768D01*
X0265354Y0235738D01*
X0265406Y0235704D01*
X0265456Y0235667D01*
X0265504Y0235627D01*
X0265549Y0235585D01*
X0265591Y0235540D01*
X0265631Y0235492D01*
X0265668Y0235442D01*
X0265702Y0235390D01*
X0265732Y0235336D01*
X0265759Y0235280D01*
X0265783Y0235223D01*
X0265803Y0235164D01*
X0265820Y0235104D01*
X0265833Y0235043D01*
X0265843Y0234982D01*
X0265848Y0234920D01*
X0265850Y0234858D01*
X0265850Y0233830D01*
X0262150Y0233830D01*
X0262150Y0229990D02*
X0265850Y0229990D01*
X0272150Y0229544D02*
X0275850Y0230778D01*
X0272150Y0232011D01*
X0272150Y0233350D02*
X0272150Y0234583D01*
X0272152Y0234639D01*
X0272158Y0234695D01*
X0272167Y0234750D01*
X0272180Y0234805D01*
X0272197Y0234858D01*
X0272218Y0234910D01*
X0272242Y0234961D01*
X0272270Y0235010D01*
X0272300Y0235057D01*
X0272334Y0235102D01*
X0272371Y0235144D01*
X0272411Y0235184D01*
X0272453Y0235221D01*
X0272498Y0235255D01*
X0272545Y0235285D01*
X0272594Y0235313D01*
X0272645Y0235337D01*
X0272697Y0235358D01*
X0272750Y0235375D01*
X0272805Y0235388D01*
X0272860Y0235397D01*
X0272916Y0235403D01*
X0272972Y0235405D01*
X0273028Y0235403D01*
X0273084Y0235397D01*
X0273139Y0235388D01*
X0273194Y0235375D01*
X0273247Y0235358D01*
X0273299Y0235337D01*
X0273350Y0235313D01*
X0273399Y0235285D01*
X0273446Y0235255D01*
X0273491Y0235221D01*
X0273533Y0235184D01*
X0273573Y0235144D01*
X0273610Y0235102D01*
X0273644Y0235057D01*
X0273674Y0235010D01*
X0273702Y0234961D01*
X0273726Y0234910D01*
X0273747Y0234858D01*
X0273764Y0234805D01*
X0273777Y0234750D01*
X0273786Y0234695D01*
X0273792Y0234639D01*
X0273794Y0234583D01*
X0273794Y0233761D01*
X0273794Y0234378D02*
X0273796Y0234441D01*
X0273802Y0234504D01*
X0273812Y0234567D01*
X0273825Y0234629D01*
X0273842Y0234690D01*
X0273863Y0234749D01*
X0273888Y0234808D01*
X0273916Y0234864D01*
X0273948Y0234919D01*
X0273983Y0234972D01*
X0274021Y0235022D01*
X0274062Y0235071D01*
X0274106Y0235116D01*
X0274153Y0235159D01*
X0274202Y0235198D01*
X0274254Y0235235D01*
X0274308Y0235268D01*
X0274364Y0235298D01*
X0274421Y0235325D01*
X0274480Y0235348D01*
X0274541Y0235367D01*
X0274602Y0235382D01*
X0274664Y0235394D01*
X0274727Y0235402D01*
X0274790Y0235406D01*
X0274854Y0235406D01*
X0274917Y0235402D01*
X0274980Y0235394D01*
X0275042Y0235382D01*
X0275103Y0235367D01*
X0275164Y0235348D01*
X0275223Y0235325D01*
X0275280Y0235298D01*
X0275336Y0235268D01*
X0275390Y0235235D01*
X0275442Y0235198D01*
X0275491Y0235159D01*
X0275538Y0235116D01*
X0275582Y0235071D01*
X0275623Y0235022D01*
X0275661Y0234972D01*
X0275696Y0234919D01*
X0275728Y0234864D01*
X0275756Y0234808D01*
X0275781Y0234749D01*
X0275802Y0234690D01*
X0275819Y0234629D01*
X0275832Y0234567D01*
X0275842Y0234504D01*
X0275848Y0234441D01*
X0275850Y0234378D01*
X0275850Y0233350D01*
X0275850Y0227178D02*
X0275850Y0226150D01*
X0275850Y0227178D02*
X0275848Y0227241D01*
X0275842Y0227304D01*
X0275832Y0227367D01*
X0275819Y0227429D01*
X0275802Y0227490D01*
X0275781Y0227549D01*
X0275756Y0227608D01*
X0275728Y0227664D01*
X0275696Y0227719D01*
X0275661Y0227772D01*
X0275623Y0227822D01*
X0275582Y0227871D01*
X0275538Y0227916D01*
X0275491Y0227959D01*
X0275442Y0227998D01*
X0275390Y0228035D01*
X0275336Y0228068D01*
X0275280Y0228098D01*
X0275223Y0228125D01*
X0275164Y0228148D01*
X0275103Y0228167D01*
X0275042Y0228182D01*
X0274980Y0228194D01*
X0274917Y0228202D01*
X0274854Y0228206D01*
X0274790Y0228206D01*
X0274727Y0228202D01*
X0274664Y0228194D01*
X0274602Y0228182D01*
X0274541Y0228167D01*
X0274480Y0228148D01*
X0274421Y0228125D01*
X0274364Y0228098D01*
X0274308Y0228068D01*
X0274254Y0228035D01*
X0274202Y0227998D01*
X0274153Y0227959D01*
X0274106Y0227916D01*
X0274062Y0227871D01*
X0274021Y0227822D01*
X0273983Y0227772D01*
X0273948Y0227719D01*
X0273916Y0227664D01*
X0273888Y0227608D01*
X0273863Y0227549D01*
X0273842Y0227490D01*
X0273825Y0227429D01*
X0273812Y0227367D01*
X0273802Y0227304D01*
X0273796Y0227241D01*
X0273794Y0227178D01*
X0273794Y0227383D02*
X0273794Y0226561D01*
X0273794Y0227383D02*
X0273792Y0227439D01*
X0273786Y0227495D01*
X0273777Y0227550D01*
X0273764Y0227605D01*
X0273747Y0227658D01*
X0273726Y0227710D01*
X0273702Y0227761D01*
X0273674Y0227810D01*
X0273644Y0227857D01*
X0273610Y0227902D01*
X0273573Y0227944D01*
X0273533Y0227984D01*
X0273491Y0228021D01*
X0273446Y0228055D01*
X0273399Y0228085D01*
X0273350Y0228113D01*
X0273299Y0228137D01*
X0273247Y0228158D01*
X0273194Y0228175D01*
X0273139Y0228188D01*
X0273084Y0228197D01*
X0273028Y0228203D01*
X0272972Y0228205D01*
X0272916Y0228203D01*
X0272860Y0228197D01*
X0272805Y0228188D01*
X0272750Y0228175D01*
X0272697Y0228158D01*
X0272645Y0228137D01*
X0272594Y0228113D01*
X0272545Y0228085D01*
X0272498Y0228055D01*
X0272453Y0228021D01*
X0272411Y0227984D01*
X0272371Y0227944D01*
X0272334Y0227902D01*
X0272300Y0227857D01*
X0272270Y0227810D01*
X0272242Y0227761D01*
X0272218Y0227710D01*
X0272197Y0227658D01*
X0272180Y0227605D01*
X0272167Y0227550D01*
X0272158Y0227495D01*
X0272152Y0227439D01*
X0272150Y0227383D01*
X0272150Y0226150D01*
X0282150Y0227178D02*
X0285850Y0227178D01*
X0285850Y0226150D02*
X0285850Y0228206D01*
X0285850Y0229750D02*
X0285850Y0231806D01*
X0285850Y0229750D02*
X0283794Y0231497D01*
X0282150Y0230881D02*
X0282152Y0230813D01*
X0282158Y0230745D01*
X0282167Y0230678D01*
X0282181Y0230612D01*
X0282198Y0230546D01*
X0282219Y0230481D01*
X0282244Y0230418D01*
X0282272Y0230356D01*
X0282304Y0230296D01*
X0282339Y0230238D01*
X0282377Y0230182D01*
X0282419Y0230128D01*
X0282463Y0230077D01*
X0282511Y0230029D01*
X0282561Y0229983D01*
X0282613Y0229940D01*
X0282668Y0229900D01*
X0282725Y0229863D01*
X0282784Y0229830D01*
X0282845Y0229800D01*
X0282908Y0229774D01*
X0282972Y0229751D01*
X0283795Y0231498D02*
X0283751Y0231541D01*
X0283704Y0231582D01*
X0283655Y0231619D01*
X0283604Y0231654D01*
X0283550Y0231685D01*
X0283495Y0231713D01*
X0283438Y0231737D01*
X0283380Y0231758D01*
X0283320Y0231775D01*
X0283260Y0231789D01*
X0283199Y0231798D01*
X0283137Y0231804D01*
X0283075Y0231806D01*
X0283017Y0231804D01*
X0282959Y0231799D01*
X0282902Y0231790D01*
X0282845Y0231777D01*
X0282789Y0231761D01*
X0282734Y0231741D01*
X0282681Y0231718D01*
X0282629Y0231692D01*
X0282579Y0231662D01*
X0282531Y0231629D01*
X0282485Y0231594D01*
X0282442Y0231555D01*
X0282401Y0231514D01*
X0282362Y0231471D01*
X0282327Y0231425D01*
X0282294Y0231377D01*
X0282264Y0231327D01*
X0282238Y0231275D01*
X0282215Y0231222D01*
X0282195Y0231167D01*
X0282179Y0231111D01*
X0282166Y0231054D01*
X0282157Y0230997D01*
X0282152Y0230939D01*
X0282150Y0230881D01*
X0282150Y0233144D02*
X0285850Y0234378D01*
X0282150Y0235611D01*
X0275302Y0241150D02*
X0274275Y0241150D01*
X0274275Y0244850D01*
X0275302Y0244850D01*
X0275358Y0244848D01*
X0275414Y0244842D01*
X0275469Y0244833D01*
X0275524Y0244820D01*
X0275577Y0244803D01*
X0275629Y0244782D01*
X0275680Y0244758D01*
X0275729Y0244730D01*
X0275776Y0244700D01*
X0275821Y0244666D01*
X0275863Y0244629D01*
X0275903Y0244589D01*
X0275940Y0244547D01*
X0275974Y0244502D01*
X0276004Y0244455D01*
X0276032Y0244406D01*
X0276056Y0244355D01*
X0276077Y0244303D01*
X0276094Y0244250D01*
X0276107Y0244195D01*
X0276116Y0244140D01*
X0276122Y0244084D01*
X0276124Y0244028D01*
X0276122Y0243972D01*
X0276116Y0243916D01*
X0276107Y0243861D01*
X0276094Y0243806D01*
X0276077Y0243753D01*
X0276056Y0243701D01*
X0276032Y0243650D01*
X0276004Y0243601D01*
X0275974Y0243554D01*
X0275940Y0243509D01*
X0275903Y0243467D01*
X0275863Y0243427D01*
X0275821Y0243390D01*
X0275776Y0243356D01*
X0275729Y0243326D01*
X0275680Y0243298D01*
X0275629Y0243274D01*
X0275577Y0243253D01*
X0275524Y0243236D01*
X0275469Y0243223D01*
X0275414Y0243214D01*
X0275358Y0243208D01*
X0275302Y0243206D01*
X0274275Y0243206D01*
X0275302Y0243206D02*
X0275365Y0243204D01*
X0275428Y0243198D01*
X0275491Y0243188D01*
X0275553Y0243175D01*
X0275614Y0243158D01*
X0275673Y0243137D01*
X0275732Y0243112D01*
X0275788Y0243084D01*
X0275843Y0243052D01*
X0275896Y0243017D01*
X0275946Y0242979D01*
X0275995Y0242938D01*
X0276040Y0242894D01*
X0276083Y0242847D01*
X0276122Y0242798D01*
X0276159Y0242746D01*
X0276192Y0242692D01*
X0276222Y0242636D01*
X0276249Y0242579D01*
X0276272Y0242520D01*
X0276291Y0242459D01*
X0276306Y0242398D01*
X0276318Y0242336D01*
X0276326Y0242273D01*
X0276330Y0242210D01*
X0276330Y0242146D01*
X0276326Y0242083D01*
X0276318Y0242020D01*
X0276306Y0241958D01*
X0276291Y0241897D01*
X0276272Y0241836D01*
X0276249Y0241777D01*
X0276222Y0241720D01*
X0276192Y0241664D01*
X0276159Y0241610D01*
X0276122Y0241558D01*
X0276083Y0241509D01*
X0276040Y0241462D01*
X0275995Y0241418D01*
X0275946Y0241377D01*
X0275896Y0241339D01*
X0275843Y0241304D01*
X0275788Y0241272D01*
X0275732Y0241244D01*
X0275673Y0241219D01*
X0275614Y0241198D01*
X0275553Y0241181D01*
X0275491Y0241168D01*
X0275428Y0241158D01*
X0275365Y0241152D01*
X0275302Y0241150D01*
X0272754Y0241150D02*
X0271110Y0241150D01*
X0271110Y0244850D01*
X0272754Y0244850D01*
X0272343Y0243206D02*
X0271110Y0243206D01*
X0269617Y0244850D02*
X0268795Y0244850D01*
X0268739Y0244848D01*
X0268683Y0244842D01*
X0268628Y0244833D01*
X0268573Y0244820D01*
X0268520Y0244803D01*
X0268468Y0244782D01*
X0268417Y0244758D01*
X0268368Y0244730D01*
X0268321Y0244700D01*
X0268276Y0244666D01*
X0268234Y0244629D01*
X0268194Y0244589D01*
X0268157Y0244547D01*
X0268123Y0244502D01*
X0268093Y0244455D01*
X0268065Y0244406D01*
X0268041Y0244355D01*
X0268020Y0244303D01*
X0268003Y0244250D01*
X0267990Y0244195D01*
X0267981Y0244140D01*
X0267975Y0244084D01*
X0267973Y0244028D01*
X0267973Y0241972D01*
X0267975Y0241916D01*
X0267981Y0241860D01*
X0267990Y0241805D01*
X0268003Y0241750D01*
X0268020Y0241697D01*
X0268041Y0241645D01*
X0268065Y0241594D01*
X0268093Y0241545D01*
X0268123Y0241498D01*
X0268157Y0241453D01*
X0268194Y0241411D01*
X0268234Y0241371D01*
X0268276Y0241334D01*
X0268321Y0241300D01*
X0268368Y0241270D01*
X0268417Y0241242D01*
X0268468Y0241218D01*
X0268520Y0241197D01*
X0268573Y0241180D01*
X0268628Y0241167D01*
X0268683Y0241158D01*
X0268739Y0241152D01*
X0268795Y0241150D01*
X0269617Y0241150D01*
X0266319Y0241150D02*
X0266319Y0244850D01*
X0264263Y0244850D02*
X0264263Y0241150D01*
X0262794Y0241150D02*
X0261150Y0241150D01*
X0261150Y0244850D01*
X0262794Y0244850D01*
X0264263Y0244850D02*
X0266319Y0241150D01*
X0262383Y0243206D02*
X0261150Y0243206D01*
X0258244Y0251150D02*
X0258244Y0253617D01*
X0259477Y0253617D01*
X0259477Y0253206D01*
X0256628Y0252794D02*
X0256628Y0251972D01*
X0256626Y0251916D01*
X0256620Y0251860D01*
X0256611Y0251805D01*
X0256598Y0251750D01*
X0256581Y0251697D01*
X0256560Y0251645D01*
X0256536Y0251594D01*
X0256508Y0251545D01*
X0256478Y0251498D01*
X0256444Y0251453D01*
X0256407Y0251411D01*
X0256367Y0251371D01*
X0256325Y0251334D01*
X0256280Y0251300D01*
X0256233Y0251270D01*
X0256184Y0251242D01*
X0256133Y0251218D01*
X0256081Y0251197D01*
X0256028Y0251180D01*
X0255973Y0251167D01*
X0255918Y0251158D01*
X0255862Y0251152D01*
X0255806Y0251150D01*
X0255750Y0251152D01*
X0255694Y0251158D01*
X0255639Y0251167D01*
X0255584Y0251180D01*
X0255531Y0251197D01*
X0255479Y0251218D01*
X0255428Y0251242D01*
X0255379Y0251270D01*
X0255332Y0251300D01*
X0255287Y0251334D01*
X0255245Y0251371D01*
X0255205Y0251411D01*
X0255168Y0251453D01*
X0255134Y0251498D01*
X0255104Y0251545D01*
X0255076Y0251594D01*
X0255052Y0251645D01*
X0255031Y0251697D01*
X0255014Y0251750D01*
X0255001Y0251805D01*
X0254992Y0251860D01*
X0254986Y0251916D01*
X0254984Y0251972D01*
X0254984Y0252794D01*
X0254986Y0252850D01*
X0254992Y0252906D01*
X0255001Y0252961D01*
X0255014Y0253016D01*
X0255031Y0253069D01*
X0255052Y0253121D01*
X0255076Y0253172D01*
X0255104Y0253221D01*
X0255134Y0253268D01*
X0255168Y0253313D01*
X0255205Y0253355D01*
X0255245Y0253395D01*
X0255287Y0253432D01*
X0255332Y0253466D01*
X0255379Y0253496D01*
X0255428Y0253524D01*
X0255479Y0253548D01*
X0255531Y0253569D01*
X0255584Y0253586D01*
X0255639Y0253599D01*
X0255694Y0253608D01*
X0255750Y0253614D01*
X0255806Y0253616D01*
X0255862Y0253614D01*
X0255918Y0253608D01*
X0255973Y0253599D01*
X0256028Y0253586D01*
X0256081Y0253569D01*
X0256133Y0253548D01*
X0256184Y0253524D01*
X0256233Y0253496D01*
X0256280Y0253466D01*
X0256325Y0253432D01*
X0256367Y0253395D01*
X0256407Y0253355D01*
X0256444Y0253313D01*
X0256478Y0253268D01*
X0256508Y0253221D01*
X0256536Y0253172D01*
X0256560Y0253121D01*
X0256581Y0253069D01*
X0256598Y0253016D01*
X0256611Y0252961D01*
X0256620Y0252906D01*
X0256626Y0252850D01*
X0256628Y0252794D01*
X0253526Y0253617D02*
X0253526Y0251150D01*
X0251948Y0251150D02*
X0251948Y0253000D01*
X0251946Y0253048D01*
X0251940Y0253097D01*
X0251931Y0253144D01*
X0251918Y0253191D01*
X0251901Y0253236D01*
X0251881Y0253280D01*
X0251857Y0253322D01*
X0251830Y0253363D01*
X0251800Y0253401D01*
X0251767Y0253436D01*
X0251732Y0253469D01*
X0251694Y0253499D01*
X0251653Y0253526D01*
X0251611Y0253550D01*
X0251567Y0253570D01*
X0251522Y0253587D01*
X0251475Y0253600D01*
X0251428Y0253609D01*
X0251379Y0253615D01*
X0251331Y0253617D01*
X0250304Y0253617D01*
X0250304Y0251150D01*
X0248588Y0251150D02*
X0248588Y0253617D01*
X0246944Y0253617D02*
X0246944Y0251767D01*
X0246943Y0251767D02*
X0246945Y0251719D01*
X0246951Y0251670D01*
X0246960Y0251623D01*
X0246973Y0251576D01*
X0246990Y0251531D01*
X0247010Y0251487D01*
X0247034Y0251445D01*
X0247061Y0251404D01*
X0247091Y0251366D01*
X0247124Y0251331D01*
X0247159Y0251298D01*
X0247197Y0251268D01*
X0247238Y0251241D01*
X0247280Y0251217D01*
X0247324Y0251197D01*
X0247369Y0251180D01*
X0247416Y0251167D01*
X0247463Y0251158D01*
X0247512Y0251152D01*
X0247560Y0251150D01*
X0248588Y0251150D01*
X0245208Y0251972D02*
X0245208Y0254850D01*
X0245208Y0251972D02*
X0245206Y0251916D01*
X0245200Y0251860D01*
X0245191Y0251805D01*
X0245178Y0251750D01*
X0245161Y0251697D01*
X0245140Y0251645D01*
X0245116Y0251594D01*
X0245088Y0251545D01*
X0245058Y0251498D01*
X0245024Y0251453D01*
X0244987Y0251411D01*
X0244947Y0251371D01*
X0244905Y0251334D01*
X0244860Y0251300D01*
X0244813Y0251270D01*
X0244764Y0251242D01*
X0244713Y0251218D01*
X0244661Y0251197D01*
X0244608Y0251180D01*
X0244553Y0251167D01*
X0244498Y0251158D01*
X0244442Y0251152D01*
X0244386Y0251150D01*
X0243974Y0251150D01*
X0240926Y0251150D02*
X0240926Y0253617D01*
X0241029Y0254644D02*
X0240823Y0254644D01*
X0240823Y0254850D01*
X0241029Y0254850D01*
X0241029Y0254644D01*
X0238954Y0251149D02*
X0238839Y0251153D01*
X0238724Y0251160D01*
X0238609Y0251171D01*
X0238494Y0251186D01*
X0238380Y0251205D01*
X0238267Y0251228D01*
X0238155Y0251254D01*
X0238043Y0251284D01*
X0237933Y0251318D01*
X0237824Y0251355D01*
X0238337Y0253617D02*
X0238433Y0253613D01*
X0238528Y0253606D01*
X0238623Y0253595D01*
X0238717Y0253580D01*
X0238810Y0253561D01*
X0238903Y0253539D01*
X0238995Y0253512D01*
X0239085Y0253482D01*
X0239174Y0253449D01*
X0239262Y0253411D01*
X0238338Y0253617D02*
X0238293Y0253616D01*
X0238248Y0253611D01*
X0238204Y0253602D01*
X0238161Y0253590D01*
X0238119Y0253574D01*
X0238079Y0253554D01*
X0238040Y0253531D01*
X0238004Y0253506D01*
X0237970Y0253477D01*
X0237938Y0253445D01*
X0237909Y0253411D01*
X0237883Y0253374D01*
X0237860Y0253336D01*
X0237841Y0253295D01*
X0237825Y0253253D01*
X0237812Y0253210D01*
X0237803Y0253166D01*
X0237798Y0253122D01*
X0237797Y0253077D01*
X0237800Y0253032D01*
X0237806Y0252988D01*
X0237816Y0252944D01*
X0237829Y0252902D01*
X0237846Y0252860D01*
X0237867Y0252820D01*
X0237891Y0252782D01*
X0237917Y0252747D01*
X0237947Y0252713D01*
X0237980Y0252682D01*
X0238015Y0252654D01*
X0238052Y0252629D01*
X0238091Y0252608D01*
X0238132Y0252589D01*
X0239160Y0252178D01*
X0239201Y0252159D01*
X0239240Y0252138D01*
X0239277Y0252113D01*
X0239312Y0252085D01*
X0239345Y0252054D01*
X0239375Y0252020D01*
X0239401Y0251985D01*
X0239425Y0251947D01*
X0239446Y0251907D01*
X0239463Y0251865D01*
X0239476Y0251823D01*
X0239486Y0251779D01*
X0239492Y0251735D01*
X0239495Y0251690D01*
X0239494Y0251645D01*
X0239489Y0251601D01*
X0239480Y0251557D01*
X0239467Y0251514D01*
X0239451Y0251472D01*
X0239432Y0251431D01*
X0239409Y0251393D01*
X0239383Y0251356D01*
X0239354Y0251322D01*
X0239322Y0251290D01*
X0239288Y0251261D01*
X0239252Y0251236D01*
X0239213Y0251213D01*
X0239173Y0251193D01*
X0239131Y0251177D01*
X0239088Y0251165D01*
X0239044Y0251156D01*
X0238999Y0251151D01*
X0238954Y0251150D01*
X0236210Y0251150D02*
X0236210Y0253000D01*
X0236210Y0252589D02*
X0235285Y0252589D01*
X0236210Y0253000D02*
X0236208Y0253048D01*
X0236202Y0253097D01*
X0236193Y0253144D01*
X0236180Y0253191D01*
X0236163Y0253236D01*
X0236143Y0253280D01*
X0236119Y0253322D01*
X0236092Y0253363D01*
X0236062Y0253401D01*
X0236029Y0253436D01*
X0235994Y0253469D01*
X0235956Y0253499D01*
X0235915Y0253526D01*
X0235873Y0253550D01*
X0235829Y0253570D01*
X0235784Y0253587D01*
X0235737Y0253600D01*
X0235690Y0253609D01*
X0235641Y0253615D01*
X0235593Y0253617D01*
X0234771Y0253617D01*
X0235285Y0252588D02*
X0235233Y0252586D01*
X0235180Y0252580D01*
X0235129Y0252571D01*
X0235078Y0252558D01*
X0235028Y0252541D01*
X0234980Y0252520D01*
X0234933Y0252496D01*
X0234888Y0252469D01*
X0234846Y0252438D01*
X0234805Y0252404D01*
X0234767Y0252368D01*
X0234732Y0252329D01*
X0234700Y0252287D01*
X0234671Y0252244D01*
X0234646Y0252198D01*
X0234623Y0252150D01*
X0234605Y0252101D01*
X0234589Y0252051D01*
X0234578Y0252000D01*
X0234570Y0251948D01*
X0234566Y0251895D01*
X0234566Y0251843D01*
X0234570Y0251790D01*
X0234578Y0251738D01*
X0234589Y0251687D01*
X0234605Y0251637D01*
X0234623Y0251588D01*
X0234646Y0251540D01*
X0234671Y0251494D01*
X0234700Y0251451D01*
X0234732Y0251409D01*
X0234767Y0251370D01*
X0234805Y0251334D01*
X0234846Y0251300D01*
X0234888Y0251269D01*
X0234933Y0251242D01*
X0234980Y0251218D01*
X0235028Y0251197D01*
X0235078Y0251180D01*
X0235129Y0251167D01*
X0235180Y0251158D01*
X0235233Y0251152D01*
X0235285Y0251150D01*
X0236210Y0251150D01*
X0232919Y0251150D02*
X0232919Y0253000D01*
X0232920Y0253000D02*
X0232918Y0253048D01*
X0232912Y0253097D01*
X0232903Y0253144D01*
X0232890Y0253191D01*
X0232873Y0253236D01*
X0232853Y0253280D01*
X0232829Y0253322D01*
X0232802Y0253363D01*
X0232772Y0253401D01*
X0232739Y0253436D01*
X0232704Y0253469D01*
X0232666Y0253499D01*
X0232625Y0253526D01*
X0232583Y0253550D01*
X0232539Y0253570D01*
X0232494Y0253587D01*
X0232447Y0253600D01*
X0232400Y0253609D01*
X0232351Y0253615D01*
X0232303Y0253617D01*
X0230453Y0253617D01*
X0230453Y0251150D01*
X0231686Y0251150D02*
X0231686Y0253617D01*
X0228788Y0252794D02*
X0228788Y0251972D01*
X0228786Y0251916D01*
X0228780Y0251860D01*
X0228771Y0251805D01*
X0228758Y0251750D01*
X0228741Y0251697D01*
X0228720Y0251645D01*
X0228696Y0251594D01*
X0228668Y0251545D01*
X0228638Y0251498D01*
X0228604Y0251453D01*
X0228567Y0251411D01*
X0228527Y0251371D01*
X0228485Y0251334D01*
X0228440Y0251300D01*
X0228393Y0251270D01*
X0228344Y0251242D01*
X0228293Y0251218D01*
X0228241Y0251197D01*
X0228188Y0251180D01*
X0228133Y0251167D01*
X0228078Y0251158D01*
X0228022Y0251152D01*
X0227966Y0251150D01*
X0227910Y0251152D01*
X0227854Y0251158D01*
X0227799Y0251167D01*
X0227744Y0251180D01*
X0227691Y0251197D01*
X0227639Y0251218D01*
X0227588Y0251242D01*
X0227539Y0251270D01*
X0227492Y0251300D01*
X0227447Y0251334D01*
X0227405Y0251371D01*
X0227365Y0251411D01*
X0227328Y0251453D01*
X0227294Y0251498D01*
X0227264Y0251545D01*
X0227236Y0251594D01*
X0227212Y0251645D01*
X0227191Y0251697D01*
X0227174Y0251750D01*
X0227161Y0251805D01*
X0227152Y0251860D01*
X0227146Y0251916D01*
X0227144Y0251972D01*
X0227144Y0252794D01*
X0227146Y0252850D01*
X0227152Y0252906D01*
X0227161Y0252961D01*
X0227174Y0253016D01*
X0227191Y0253069D01*
X0227212Y0253121D01*
X0227236Y0253172D01*
X0227264Y0253221D01*
X0227294Y0253268D01*
X0227328Y0253313D01*
X0227365Y0253355D01*
X0227405Y0253395D01*
X0227447Y0253432D01*
X0227492Y0253466D01*
X0227539Y0253496D01*
X0227588Y0253524D01*
X0227639Y0253548D01*
X0227691Y0253569D01*
X0227744Y0253586D01*
X0227799Y0253599D01*
X0227854Y0253608D01*
X0227910Y0253614D01*
X0227966Y0253616D01*
X0228022Y0253614D01*
X0228078Y0253608D01*
X0228133Y0253599D01*
X0228188Y0253586D01*
X0228241Y0253569D01*
X0228293Y0253548D01*
X0228344Y0253524D01*
X0228393Y0253496D01*
X0228440Y0253466D01*
X0228485Y0253432D01*
X0228527Y0253395D01*
X0228567Y0253355D01*
X0228604Y0253313D01*
X0228638Y0253268D01*
X0228668Y0253221D01*
X0228696Y0253172D01*
X0228720Y0253121D01*
X0228741Y0253069D01*
X0228758Y0253016D01*
X0228771Y0252961D01*
X0228780Y0252906D01*
X0228786Y0252850D01*
X0228788Y0252794D01*
X0225874Y0254850D02*
X0223818Y0254850D01*
X0224846Y0254850D02*
X0224846Y0251150D01*
X0220748Y0251150D02*
X0219104Y0251150D01*
X0220748Y0253617D01*
X0219104Y0253617D01*
X0217766Y0253617D02*
X0217766Y0251150D01*
X0216188Y0251150D02*
X0216188Y0253617D01*
X0214544Y0253617D02*
X0214544Y0251767D01*
X0214543Y0251767D02*
X0214545Y0251719D01*
X0214551Y0251670D01*
X0214560Y0251623D01*
X0214573Y0251576D01*
X0214590Y0251531D01*
X0214610Y0251487D01*
X0214634Y0251445D01*
X0214661Y0251404D01*
X0214691Y0251366D01*
X0214724Y0251331D01*
X0214759Y0251298D01*
X0214797Y0251268D01*
X0214838Y0251241D01*
X0214880Y0251217D01*
X0214924Y0251197D01*
X0214969Y0251180D01*
X0215016Y0251167D01*
X0215063Y0251158D01*
X0215112Y0251152D01*
X0215160Y0251150D01*
X0216188Y0251150D01*
X0213110Y0251150D02*
X0211465Y0251150D01*
X0211465Y0254850D01*
X0208029Y0254850D02*
X0208029Y0254644D01*
X0207823Y0254644D01*
X0207823Y0254850D01*
X0208029Y0254850D01*
X0207926Y0253617D02*
X0207926Y0251150D01*
X0206627Y0251150D02*
X0205804Y0251150D01*
X0205756Y0251152D01*
X0205707Y0251158D01*
X0205660Y0251167D01*
X0205613Y0251180D01*
X0205568Y0251197D01*
X0205524Y0251217D01*
X0205482Y0251241D01*
X0205441Y0251268D01*
X0205403Y0251298D01*
X0205368Y0251331D01*
X0205335Y0251366D01*
X0205305Y0251404D01*
X0205278Y0251445D01*
X0205254Y0251487D01*
X0205234Y0251531D01*
X0205217Y0251576D01*
X0205204Y0251623D01*
X0205195Y0251670D01*
X0205189Y0251719D01*
X0205187Y0251767D01*
X0205188Y0251767D02*
X0205188Y0253000D01*
X0205187Y0253000D02*
X0205189Y0253048D01*
X0205195Y0253097D01*
X0205204Y0253144D01*
X0205217Y0253191D01*
X0205234Y0253236D01*
X0205254Y0253280D01*
X0205278Y0253322D01*
X0205305Y0253363D01*
X0205335Y0253401D01*
X0205368Y0253436D01*
X0205403Y0253469D01*
X0205441Y0253499D01*
X0205482Y0253526D01*
X0205524Y0253550D01*
X0205568Y0253570D01*
X0205613Y0253587D01*
X0205660Y0253600D01*
X0205707Y0253609D01*
X0205756Y0253615D01*
X0205804Y0253617D01*
X0206627Y0253617D01*
X0204037Y0253617D02*
X0204037Y0253206D01*
X0204037Y0253617D02*
X0202804Y0253617D01*
X0202804Y0251150D01*
X0201050Y0251150D02*
X0201050Y0253000D01*
X0201050Y0252589D02*
X0200125Y0252589D01*
X0201051Y0253000D02*
X0201049Y0253048D01*
X0201043Y0253097D01*
X0201034Y0253144D01*
X0201021Y0253191D01*
X0201004Y0253236D01*
X0200984Y0253280D01*
X0200960Y0253322D01*
X0200933Y0253363D01*
X0200903Y0253401D01*
X0200870Y0253436D01*
X0200835Y0253469D01*
X0200797Y0253499D01*
X0200756Y0253526D01*
X0200714Y0253550D01*
X0200670Y0253570D01*
X0200625Y0253587D01*
X0200578Y0253600D01*
X0200531Y0253609D01*
X0200482Y0253615D01*
X0200434Y0253617D01*
X0199611Y0253617D01*
X0200125Y0252588D02*
X0200073Y0252586D01*
X0200020Y0252580D01*
X0199969Y0252571D01*
X0199918Y0252558D01*
X0199868Y0252541D01*
X0199820Y0252520D01*
X0199773Y0252496D01*
X0199728Y0252469D01*
X0199686Y0252438D01*
X0199645Y0252404D01*
X0199607Y0252368D01*
X0199572Y0252329D01*
X0199540Y0252287D01*
X0199511Y0252244D01*
X0199486Y0252198D01*
X0199463Y0252150D01*
X0199445Y0252101D01*
X0199429Y0252051D01*
X0199418Y0252000D01*
X0199410Y0251948D01*
X0199406Y0251895D01*
X0199406Y0251843D01*
X0199410Y0251790D01*
X0199418Y0251738D01*
X0199429Y0251687D01*
X0199445Y0251637D01*
X0199463Y0251588D01*
X0199486Y0251540D01*
X0199511Y0251494D01*
X0199540Y0251451D01*
X0199572Y0251409D01*
X0199607Y0251370D01*
X0199645Y0251334D01*
X0199686Y0251300D01*
X0199728Y0251269D01*
X0199773Y0251242D01*
X0199820Y0251218D01*
X0199868Y0251197D01*
X0199918Y0251180D01*
X0199969Y0251167D01*
X0200020Y0251158D01*
X0200073Y0251152D01*
X0200125Y0251150D01*
X0201050Y0251150D01*
X0197794Y0252178D02*
X0197794Y0253822D01*
X0197792Y0253884D01*
X0197787Y0253946D01*
X0197777Y0254007D01*
X0197764Y0254068D01*
X0197747Y0254128D01*
X0197727Y0254187D01*
X0197703Y0254244D01*
X0197676Y0254300D01*
X0197646Y0254354D01*
X0197612Y0254406D01*
X0197575Y0254456D01*
X0197535Y0254504D01*
X0197493Y0254549D01*
X0197448Y0254591D01*
X0197400Y0254631D01*
X0197350Y0254668D01*
X0197298Y0254702D01*
X0197244Y0254732D01*
X0197188Y0254759D01*
X0197131Y0254783D01*
X0197072Y0254803D01*
X0197012Y0254820D01*
X0196951Y0254833D01*
X0196890Y0254843D01*
X0196828Y0254848D01*
X0196766Y0254850D01*
X0195738Y0254850D01*
X0195738Y0251150D01*
X0196766Y0251150D01*
X0196828Y0251152D01*
X0196890Y0251157D01*
X0196951Y0251167D01*
X0197012Y0251180D01*
X0197072Y0251197D01*
X0197131Y0251217D01*
X0197188Y0251241D01*
X0197244Y0251268D01*
X0197298Y0251298D01*
X0197350Y0251332D01*
X0197400Y0251369D01*
X0197448Y0251409D01*
X0197493Y0251451D01*
X0197535Y0251496D01*
X0197575Y0251544D01*
X0197612Y0251594D01*
X0197646Y0251646D01*
X0197676Y0251700D01*
X0197703Y0251756D01*
X0197727Y0251813D01*
X0197747Y0251872D01*
X0197764Y0251932D01*
X0197777Y0251993D01*
X0197787Y0252054D01*
X0197792Y0252116D01*
X0197794Y0252178D01*
X0192309Y0251356D02*
X0192309Y0251150D01*
X0192103Y0251150D01*
X0192103Y0251356D01*
X0192309Y0251356D01*
X0190383Y0251150D02*
X0190383Y0254233D01*
X0190382Y0254233D02*
X0190384Y0254281D01*
X0190390Y0254330D01*
X0190399Y0254377D01*
X0190412Y0254424D01*
X0190429Y0254469D01*
X0190449Y0254513D01*
X0190473Y0254555D01*
X0190500Y0254596D01*
X0190530Y0254634D01*
X0190563Y0254669D01*
X0190598Y0254702D01*
X0190636Y0254732D01*
X0190677Y0254759D01*
X0190719Y0254783D01*
X0190763Y0254803D01*
X0190808Y0254820D01*
X0190855Y0254833D01*
X0190902Y0254842D01*
X0190951Y0254848D01*
X0190999Y0254850D01*
X0191205Y0254850D01*
X0191205Y0253617D02*
X0189971Y0253617D01*
X0188708Y0252794D02*
X0188708Y0251972D01*
X0188706Y0251916D01*
X0188700Y0251860D01*
X0188691Y0251805D01*
X0188678Y0251750D01*
X0188661Y0251697D01*
X0188640Y0251645D01*
X0188616Y0251594D01*
X0188588Y0251545D01*
X0188558Y0251498D01*
X0188524Y0251453D01*
X0188487Y0251411D01*
X0188447Y0251371D01*
X0188405Y0251334D01*
X0188360Y0251300D01*
X0188313Y0251270D01*
X0188264Y0251242D01*
X0188213Y0251218D01*
X0188161Y0251197D01*
X0188108Y0251180D01*
X0188053Y0251167D01*
X0187998Y0251158D01*
X0187942Y0251152D01*
X0187886Y0251150D01*
X0187830Y0251152D01*
X0187774Y0251158D01*
X0187719Y0251167D01*
X0187664Y0251180D01*
X0187611Y0251197D01*
X0187559Y0251218D01*
X0187508Y0251242D01*
X0187459Y0251270D01*
X0187412Y0251300D01*
X0187367Y0251334D01*
X0187325Y0251371D01*
X0187285Y0251411D01*
X0187248Y0251453D01*
X0187214Y0251498D01*
X0187184Y0251545D01*
X0187156Y0251594D01*
X0187132Y0251645D01*
X0187111Y0251697D01*
X0187094Y0251750D01*
X0187081Y0251805D01*
X0187072Y0251860D01*
X0187066Y0251916D01*
X0187064Y0251972D01*
X0187064Y0252794D01*
X0187066Y0252850D01*
X0187072Y0252906D01*
X0187081Y0252961D01*
X0187094Y0253016D01*
X0187111Y0253069D01*
X0187132Y0253121D01*
X0187156Y0253172D01*
X0187184Y0253221D01*
X0187214Y0253268D01*
X0187248Y0253313D01*
X0187285Y0253355D01*
X0187325Y0253395D01*
X0187367Y0253432D01*
X0187412Y0253466D01*
X0187459Y0253496D01*
X0187508Y0253524D01*
X0187559Y0253548D01*
X0187611Y0253569D01*
X0187664Y0253586D01*
X0187719Y0253599D01*
X0187774Y0253608D01*
X0187830Y0253614D01*
X0187886Y0253616D01*
X0187942Y0253614D01*
X0187998Y0253608D01*
X0188053Y0253599D01*
X0188108Y0253586D01*
X0188161Y0253569D01*
X0188213Y0253548D01*
X0188264Y0253524D01*
X0188313Y0253496D01*
X0188360Y0253466D01*
X0188405Y0253432D01*
X0188447Y0253395D01*
X0188487Y0253355D01*
X0188524Y0253313D01*
X0188558Y0253268D01*
X0188588Y0253221D01*
X0188616Y0253172D01*
X0188640Y0253121D01*
X0188661Y0253069D01*
X0188678Y0253016D01*
X0188691Y0252961D01*
X0188700Y0252906D01*
X0188706Y0252850D01*
X0188708Y0252794D01*
X0185917Y0253206D02*
X0185917Y0253617D01*
X0184684Y0253617D01*
X0184684Y0251150D01*
X0182178Y0252794D02*
X0181150Y0252794D01*
X0182178Y0252794D02*
X0182241Y0252796D01*
X0182304Y0252802D01*
X0182367Y0252812D01*
X0182429Y0252825D01*
X0182490Y0252842D01*
X0182549Y0252863D01*
X0182608Y0252888D01*
X0182664Y0252916D01*
X0182719Y0252948D01*
X0182772Y0252983D01*
X0182822Y0253021D01*
X0182871Y0253062D01*
X0182916Y0253106D01*
X0182959Y0253153D01*
X0182998Y0253202D01*
X0183035Y0253254D01*
X0183068Y0253308D01*
X0183098Y0253364D01*
X0183125Y0253421D01*
X0183148Y0253480D01*
X0183167Y0253541D01*
X0183182Y0253602D01*
X0183194Y0253664D01*
X0183202Y0253727D01*
X0183206Y0253790D01*
X0183206Y0253854D01*
X0183202Y0253917D01*
X0183194Y0253980D01*
X0183182Y0254042D01*
X0183167Y0254103D01*
X0183148Y0254164D01*
X0183125Y0254223D01*
X0183098Y0254280D01*
X0183068Y0254336D01*
X0183035Y0254390D01*
X0182998Y0254442D01*
X0182959Y0254491D01*
X0182916Y0254538D01*
X0182871Y0254582D01*
X0182822Y0254623D01*
X0182772Y0254661D01*
X0182719Y0254696D01*
X0182664Y0254728D01*
X0182608Y0254756D01*
X0182549Y0254781D01*
X0182490Y0254802D01*
X0182429Y0254819D01*
X0182367Y0254832D01*
X0182304Y0254842D01*
X0182241Y0254848D01*
X0182178Y0254850D01*
X0181150Y0254850D01*
X0181150Y0251150D01*
X0170262Y0251150D02*
X0170262Y0253000D01*
X0170262Y0252589D02*
X0169337Y0252589D01*
X0170262Y0253000D02*
X0170260Y0253048D01*
X0170254Y0253097D01*
X0170245Y0253144D01*
X0170232Y0253191D01*
X0170215Y0253236D01*
X0170195Y0253280D01*
X0170171Y0253322D01*
X0170144Y0253363D01*
X0170114Y0253401D01*
X0170081Y0253436D01*
X0170046Y0253469D01*
X0170008Y0253499D01*
X0169967Y0253526D01*
X0169925Y0253550D01*
X0169881Y0253570D01*
X0169836Y0253587D01*
X0169789Y0253600D01*
X0169742Y0253609D01*
X0169693Y0253615D01*
X0169645Y0253617D01*
X0168823Y0253617D01*
X0169337Y0252588D02*
X0169285Y0252586D01*
X0169232Y0252580D01*
X0169181Y0252571D01*
X0169130Y0252558D01*
X0169080Y0252541D01*
X0169032Y0252520D01*
X0168985Y0252496D01*
X0168940Y0252469D01*
X0168898Y0252438D01*
X0168857Y0252404D01*
X0168819Y0252368D01*
X0168784Y0252329D01*
X0168752Y0252287D01*
X0168723Y0252244D01*
X0168698Y0252198D01*
X0168675Y0252150D01*
X0168657Y0252101D01*
X0168641Y0252051D01*
X0168630Y0252000D01*
X0168622Y0251948D01*
X0168618Y0251895D01*
X0168618Y0251843D01*
X0168622Y0251790D01*
X0168630Y0251738D01*
X0168641Y0251687D01*
X0168657Y0251637D01*
X0168675Y0251588D01*
X0168698Y0251540D01*
X0168723Y0251494D01*
X0168752Y0251451D01*
X0168784Y0251409D01*
X0168819Y0251370D01*
X0168857Y0251334D01*
X0168898Y0251300D01*
X0168940Y0251269D01*
X0168985Y0251242D01*
X0169032Y0251218D01*
X0169080Y0251197D01*
X0169130Y0251180D01*
X0169181Y0251167D01*
X0169232Y0251158D01*
X0169285Y0251152D01*
X0169337Y0251150D01*
X0170262Y0251150D01*
X0167040Y0251150D02*
X0167040Y0253000D01*
X0167038Y0253048D01*
X0167032Y0253097D01*
X0167023Y0253144D01*
X0167010Y0253191D01*
X0166993Y0253236D01*
X0166973Y0253280D01*
X0166949Y0253322D01*
X0166922Y0253363D01*
X0166892Y0253401D01*
X0166859Y0253436D01*
X0166824Y0253469D01*
X0166786Y0253499D01*
X0166745Y0253526D01*
X0166703Y0253550D01*
X0166659Y0253570D01*
X0166614Y0253587D01*
X0166567Y0253600D01*
X0166520Y0253609D01*
X0166471Y0253615D01*
X0166423Y0253617D01*
X0165395Y0253617D01*
X0165395Y0251150D01*
X0163662Y0251150D02*
X0163662Y0253000D01*
X0163662Y0252589D02*
X0162737Y0252589D01*
X0163662Y0253000D02*
X0163660Y0253048D01*
X0163654Y0253097D01*
X0163645Y0253144D01*
X0163632Y0253191D01*
X0163615Y0253236D01*
X0163595Y0253280D01*
X0163571Y0253322D01*
X0163544Y0253363D01*
X0163514Y0253401D01*
X0163481Y0253436D01*
X0163446Y0253469D01*
X0163408Y0253499D01*
X0163367Y0253526D01*
X0163325Y0253550D01*
X0163281Y0253570D01*
X0163236Y0253587D01*
X0163189Y0253600D01*
X0163142Y0253609D01*
X0163093Y0253615D01*
X0163045Y0253617D01*
X0162223Y0253617D01*
X0160889Y0253617D02*
X0160889Y0253206D01*
X0160889Y0253617D02*
X0159655Y0253617D01*
X0159655Y0251150D01*
X0157902Y0251150D02*
X0157902Y0253000D01*
X0157902Y0252589D02*
X0156977Y0252589D01*
X0157902Y0253000D02*
X0157900Y0253048D01*
X0157894Y0253097D01*
X0157885Y0253144D01*
X0157872Y0253191D01*
X0157855Y0253236D01*
X0157835Y0253280D01*
X0157811Y0253322D01*
X0157784Y0253363D01*
X0157754Y0253401D01*
X0157721Y0253436D01*
X0157686Y0253469D01*
X0157648Y0253499D01*
X0157607Y0253526D01*
X0157565Y0253550D01*
X0157521Y0253570D01*
X0157476Y0253587D01*
X0157429Y0253600D01*
X0157382Y0253609D01*
X0157333Y0253615D01*
X0157285Y0253617D01*
X0156463Y0253617D01*
X0156977Y0252588D02*
X0156925Y0252586D01*
X0156872Y0252580D01*
X0156821Y0252571D01*
X0156770Y0252558D01*
X0156720Y0252541D01*
X0156672Y0252520D01*
X0156625Y0252496D01*
X0156580Y0252469D01*
X0156538Y0252438D01*
X0156497Y0252404D01*
X0156459Y0252368D01*
X0156424Y0252329D01*
X0156392Y0252287D01*
X0156363Y0252244D01*
X0156338Y0252198D01*
X0156315Y0252150D01*
X0156297Y0252101D01*
X0156281Y0252051D01*
X0156270Y0252000D01*
X0156262Y0251948D01*
X0156258Y0251895D01*
X0156258Y0251843D01*
X0156262Y0251790D01*
X0156270Y0251738D01*
X0156281Y0251687D01*
X0156297Y0251637D01*
X0156315Y0251588D01*
X0156338Y0251540D01*
X0156363Y0251494D01*
X0156392Y0251451D01*
X0156424Y0251409D01*
X0156459Y0251370D01*
X0156497Y0251334D01*
X0156538Y0251300D01*
X0156580Y0251269D01*
X0156625Y0251242D01*
X0156672Y0251218D01*
X0156720Y0251197D01*
X0156770Y0251180D01*
X0156821Y0251167D01*
X0156872Y0251158D01*
X0156925Y0251152D01*
X0156977Y0251150D01*
X0157902Y0251150D01*
X0153909Y0252794D02*
X0152881Y0252794D01*
X0153909Y0252794D02*
X0153972Y0252796D01*
X0154035Y0252802D01*
X0154098Y0252812D01*
X0154160Y0252825D01*
X0154221Y0252842D01*
X0154280Y0252863D01*
X0154339Y0252888D01*
X0154395Y0252916D01*
X0154450Y0252948D01*
X0154503Y0252983D01*
X0154553Y0253021D01*
X0154602Y0253062D01*
X0154647Y0253106D01*
X0154690Y0253153D01*
X0154729Y0253202D01*
X0154766Y0253254D01*
X0154799Y0253308D01*
X0154829Y0253364D01*
X0154856Y0253421D01*
X0154879Y0253480D01*
X0154898Y0253541D01*
X0154913Y0253602D01*
X0154925Y0253664D01*
X0154933Y0253727D01*
X0154937Y0253790D01*
X0154937Y0253854D01*
X0154933Y0253917D01*
X0154925Y0253980D01*
X0154913Y0254042D01*
X0154898Y0254103D01*
X0154879Y0254164D01*
X0154856Y0254223D01*
X0154829Y0254280D01*
X0154799Y0254336D01*
X0154766Y0254390D01*
X0154729Y0254442D01*
X0154690Y0254491D01*
X0154647Y0254538D01*
X0154602Y0254582D01*
X0154553Y0254623D01*
X0154503Y0254661D01*
X0154450Y0254696D01*
X0154395Y0254728D01*
X0154339Y0254756D01*
X0154280Y0254781D01*
X0154221Y0254802D01*
X0154160Y0254819D01*
X0154098Y0254832D01*
X0154035Y0254842D01*
X0153972Y0254848D01*
X0153909Y0254850D01*
X0152881Y0254850D01*
X0152881Y0251150D01*
X0149280Y0251972D02*
X0149280Y0252794D01*
X0149279Y0252794D02*
X0149277Y0252850D01*
X0149271Y0252906D01*
X0149262Y0252961D01*
X0149249Y0253016D01*
X0149232Y0253069D01*
X0149211Y0253121D01*
X0149187Y0253172D01*
X0149159Y0253221D01*
X0149129Y0253268D01*
X0149095Y0253313D01*
X0149058Y0253355D01*
X0149018Y0253395D01*
X0148976Y0253432D01*
X0148931Y0253466D01*
X0148884Y0253496D01*
X0148835Y0253524D01*
X0148784Y0253548D01*
X0148732Y0253569D01*
X0148679Y0253586D01*
X0148624Y0253599D01*
X0148569Y0253608D01*
X0148513Y0253614D01*
X0148457Y0253616D01*
X0148401Y0253614D01*
X0148345Y0253608D01*
X0148290Y0253599D01*
X0148235Y0253586D01*
X0148182Y0253569D01*
X0148130Y0253548D01*
X0148079Y0253524D01*
X0148030Y0253496D01*
X0147983Y0253466D01*
X0147938Y0253432D01*
X0147896Y0253395D01*
X0147856Y0253355D01*
X0147819Y0253313D01*
X0147785Y0253268D01*
X0147755Y0253221D01*
X0147727Y0253172D01*
X0147703Y0253121D01*
X0147682Y0253069D01*
X0147665Y0253016D01*
X0147652Y0252961D01*
X0147643Y0252906D01*
X0147637Y0252850D01*
X0147635Y0252794D01*
X0147635Y0251972D01*
X0147637Y0251916D01*
X0147643Y0251860D01*
X0147652Y0251805D01*
X0147665Y0251750D01*
X0147682Y0251697D01*
X0147703Y0251645D01*
X0147727Y0251594D01*
X0147755Y0251545D01*
X0147785Y0251498D01*
X0147819Y0251453D01*
X0147856Y0251411D01*
X0147896Y0251371D01*
X0147938Y0251334D01*
X0147983Y0251300D01*
X0148030Y0251270D01*
X0148079Y0251242D01*
X0148130Y0251218D01*
X0148182Y0251197D01*
X0148235Y0251180D01*
X0148290Y0251167D01*
X0148345Y0251158D01*
X0148401Y0251152D01*
X0148457Y0251150D01*
X0148513Y0251152D01*
X0148569Y0251158D01*
X0148624Y0251167D01*
X0148679Y0251180D01*
X0148732Y0251197D01*
X0148784Y0251218D01*
X0148835Y0251242D01*
X0148884Y0251270D01*
X0148931Y0251300D01*
X0148976Y0251334D01*
X0149018Y0251371D01*
X0149058Y0251411D01*
X0149095Y0251453D01*
X0149129Y0251498D01*
X0149159Y0251545D01*
X0149187Y0251594D01*
X0149211Y0251645D01*
X0149232Y0251697D01*
X0149249Y0251750D01*
X0149262Y0251805D01*
X0149271Y0251860D01*
X0149277Y0251916D01*
X0149279Y0251972D01*
X0146022Y0251150D02*
X0146022Y0254850D01*
X0146022Y0253617D02*
X0144994Y0253617D01*
X0144946Y0253615D01*
X0144897Y0253609D01*
X0144850Y0253600D01*
X0144803Y0253587D01*
X0144758Y0253570D01*
X0144714Y0253550D01*
X0144672Y0253526D01*
X0144631Y0253499D01*
X0144593Y0253469D01*
X0144558Y0253436D01*
X0144525Y0253401D01*
X0144495Y0253363D01*
X0144468Y0253322D01*
X0144444Y0253280D01*
X0144424Y0253236D01*
X0144407Y0253191D01*
X0144394Y0253144D01*
X0144385Y0253097D01*
X0144379Y0253048D01*
X0144377Y0253000D01*
X0144377Y0251767D01*
X0144379Y0251719D01*
X0144385Y0251670D01*
X0144394Y0251623D01*
X0144407Y0251576D01*
X0144424Y0251531D01*
X0144444Y0251487D01*
X0144468Y0251445D01*
X0144495Y0251404D01*
X0144525Y0251366D01*
X0144558Y0251331D01*
X0144593Y0251298D01*
X0144631Y0251268D01*
X0144672Y0251241D01*
X0144714Y0251217D01*
X0144758Y0251197D01*
X0144803Y0251180D01*
X0144850Y0251167D01*
X0144897Y0251158D01*
X0144946Y0251152D01*
X0144994Y0251150D01*
X0146022Y0251150D01*
X0141018Y0251150D02*
X0141018Y0253617D01*
X0141120Y0254644D02*
X0140915Y0254644D01*
X0140915Y0254850D01*
X0141120Y0254850D01*
X0141120Y0254644D01*
X0139686Y0253617D02*
X0138453Y0253617D01*
X0137160Y0253617D02*
X0137160Y0251150D01*
X0136132Y0251150D01*
X0136084Y0251152D01*
X0136035Y0251158D01*
X0135988Y0251167D01*
X0135941Y0251180D01*
X0135896Y0251197D01*
X0135852Y0251217D01*
X0135810Y0251241D01*
X0135769Y0251268D01*
X0135731Y0251298D01*
X0135696Y0251331D01*
X0135663Y0251366D01*
X0135633Y0251404D01*
X0135606Y0251445D01*
X0135582Y0251487D01*
X0135562Y0251531D01*
X0135545Y0251576D01*
X0135532Y0251623D01*
X0135523Y0251670D01*
X0135517Y0251719D01*
X0135515Y0251767D01*
X0135515Y0253617D01*
X0133938Y0253617D02*
X0133938Y0251150D01*
X0132360Y0251150D02*
X0132360Y0253617D01*
X0130715Y0253617D02*
X0130715Y0251767D01*
X0130717Y0251719D01*
X0130723Y0251670D01*
X0130732Y0251623D01*
X0130745Y0251576D01*
X0130762Y0251531D01*
X0130782Y0251487D01*
X0130806Y0251445D01*
X0130833Y0251404D01*
X0130863Y0251366D01*
X0130896Y0251331D01*
X0130931Y0251298D01*
X0130969Y0251268D01*
X0131010Y0251241D01*
X0131052Y0251217D01*
X0131096Y0251197D01*
X0131141Y0251180D01*
X0131188Y0251167D01*
X0131235Y0251158D01*
X0131284Y0251152D01*
X0131332Y0251150D01*
X0132360Y0251150D01*
X0133835Y0254644D02*
X0134040Y0254644D01*
X0134040Y0254850D01*
X0133835Y0254850D01*
X0133835Y0254644D01*
X0129325Y0254850D02*
X0127270Y0254850D01*
X0128298Y0254850D02*
X0128298Y0251150D01*
X0124080Y0251150D02*
X0123052Y0251150D01*
X0123004Y0251152D01*
X0122955Y0251158D01*
X0122908Y0251167D01*
X0122861Y0251180D01*
X0122816Y0251197D01*
X0122772Y0251217D01*
X0122730Y0251241D01*
X0122689Y0251268D01*
X0122651Y0251298D01*
X0122616Y0251331D01*
X0122583Y0251366D01*
X0122553Y0251404D01*
X0122526Y0251445D01*
X0122502Y0251487D01*
X0122482Y0251531D01*
X0122465Y0251576D01*
X0122452Y0251623D01*
X0122443Y0251670D01*
X0122437Y0251719D01*
X0122435Y0251767D01*
X0122435Y0252794D01*
X0122435Y0252383D02*
X0124080Y0252383D01*
X0124080Y0252794D01*
X0124078Y0252850D01*
X0124072Y0252906D01*
X0124063Y0252961D01*
X0124050Y0253016D01*
X0124033Y0253069D01*
X0124012Y0253121D01*
X0123988Y0253172D01*
X0123960Y0253221D01*
X0123930Y0253268D01*
X0123896Y0253313D01*
X0123859Y0253355D01*
X0123819Y0253395D01*
X0123777Y0253432D01*
X0123732Y0253466D01*
X0123685Y0253496D01*
X0123636Y0253524D01*
X0123585Y0253548D01*
X0123533Y0253569D01*
X0123480Y0253586D01*
X0123425Y0253599D01*
X0123370Y0253608D01*
X0123314Y0253614D01*
X0123258Y0253616D01*
X0123202Y0253614D01*
X0123146Y0253608D01*
X0123091Y0253599D01*
X0123036Y0253586D01*
X0122983Y0253569D01*
X0122931Y0253548D01*
X0122880Y0253524D01*
X0122831Y0253496D01*
X0122784Y0253466D01*
X0122739Y0253432D01*
X0122697Y0253395D01*
X0122657Y0253355D01*
X0122620Y0253313D01*
X0122586Y0253268D01*
X0122556Y0253221D01*
X0122528Y0253172D01*
X0122504Y0253121D01*
X0122483Y0253069D01*
X0122466Y0253016D01*
X0122453Y0252961D01*
X0122444Y0252906D01*
X0122438Y0252850D01*
X0122436Y0252794D01*
X0120822Y0253617D02*
X0119794Y0253617D01*
X0119746Y0253615D01*
X0119697Y0253609D01*
X0119650Y0253600D01*
X0119603Y0253587D01*
X0119558Y0253570D01*
X0119514Y0253550D01*
X0119472Y0253526D01*
X0119431Y0253499D01*
X0119393Y0253469D01*
X0119358Y0253436D01*
X0119325Y0253401D01*
X0119295Y0253363D01*
X0119268Y0253322D01*
X0119244Y0253280D01*
X0119224Y0253236D01*
X0119207Y0253191D01*
X0119194Y0253144D01*
X0119185Y0253097D01*
X0119179Y0253048D01*
X0119177Y0253000D01*
X0119177Y0251767D01*
X0119179Y0251719D01*
X0119185Y0251670D01*
X0119194Y0251623D01*
X0119207Y0251576D01*
X0119224Y0251531D01*
X0119244Y0251487D01*
X0119268Y0251445D01*
X0119295Y0251404D01*
X0119325Y0251366D01*
X0119358Y0251331D01*
X0119393Y0251298D01*
X0119431Y0251268D01*
X0119472Y0251241D01*
X0119514Y0251217D01*
X0119558Y0251197D01*
X0119603Y0251180D01*
X0119650Y0251167D01*
X0119697Y0251158D01*
X0119746Y0251152D01*
X0119794Y0251150D01*
X0120822Y0251150D01*
X0120822Y0254850D01*
X0117582Y0253000D02*
X0117582Y0251150D01*
X0116657Y0251150D01*
X0116605Y0251152D01*
X0116552Y0251158D01*
X0116501Y0251167D01*
X0116450Y0251180D01*
X0116400Y0251197D01*
X0116352Y0251218D01*
X0116305Y0251242D01*
X0116260Y0251269D01*
X0116218Y0251300D01*
X0116177Y0251334D01*
X0116139Y0251370D01*
X0116104Y0251409D01*
X0116072Y0251451D01*
X0116043Y0251494D01*
X0116018Y0251540D01*
X0115995Y0251588D01*
X0115977Y0251637D01*
X0115961Y0251687D01*
X0115950Y0251738D01*
X0115942Y0251790D01*
X0115938Y0251843D01*
X0115938Y0251895D01*
X0115942Y0251948D01*
X0115950Y0252000D01*
X0115961Y0252051D01*
X0115977Y0252101D01*
X0115995Y0252150D01*
X0116018Y0252198D01*
X0116043Y0252244D01*
X0116072Y0252287D01*
X0116104Y0252329D01*
X0116139Y0252368D01*
X0116177Y0252404D01*
X0116218Y0252438D01*
X0116260Y0252469D01*
X0116305Y0252496D01*
X0116352Y0252520D01*
X0116400Y0252541D01*
X0116450Y0252558D01*
X0116501Y0252571D01*
X0116552Y0252580D01*
X0116605Y0252586D01*
X0116657Y0252588D01*
X0116657Y0252589D02*
X0117582Y0252589D01*
X0117582Y0253000D02*
X0117580Y0253048D01*
X0117574Y0253097D01*
X0117565Y0253144D01*
X0117552Y0253191D01*
X0117535Y0253236D01*
X0117515Y0253280D01*
X0117491Y0253322D01*
X0117464Y0253363D01*
X0117434Y0253401D01*
X0117401Y0253436D01*
X0117366Y0253469D01*
X0117328Y0253499D01*
X0117287Y0253526D01*
X0117245Y0253550D01*
X0117201Y0253570D01*
X0117156Y0253587D01*
X0117109Y0253600D01*
X0117062Y0253609D01*
X0117013Y0253615D01*
X0116965Y0253617D01*
X0116143Y0253617D01*
X0114342Y0253617D02*
X0113314Y0253617D01*
X0113266Y0253615D01*
X0113217Y0253609D01*
X0113170Y0253600D01*
X0113123Y0253587D01*
X0113078Y0253570D01*
X0113034Y0253550D01*
X0112992Y0253526D01*
X0112951Y0253499D01*
X0112913Y0253469D01*
X0112878Y0253436D01*
X0112845Y0253401D01*
X0112815Y0253363D01*
X0112788Y0253322D01*
X0112764Y0253280D01*
X0112744Y0253236D01*
X0112727Y0253191D01*
X0112714Y0253144D01*
X0112705Y0253097D01*
X0112699Y0253048D01*
X0112697Y0253000D01*
X0112697Y0251767D01*
X0112699Y0251719D01*
X0112705Y0251670D01*
X0112714Y0251623D01*
X0112727Y0251576D01*
X0112744Y0251531D01*
X0112764Y0251487D01*
X0112788Y0251445D01*
X0112815Y0251404D01*
X0112845Y0251366D01*
X0112878Y0251331D01*
X0112913Y0251298D01*
X0112951Y0251268D01*
X0112992Y0251241D01*
X0113034Y0251217D01*
X0113078Y0251197D01*
X0113123Y0251180D01*
X0113170Y0251167D01*
X0113217Y0251158D01*
X0113266Y0251152D01*
X0113314Y0251150D01*
X0114342Y0251150D01*
X0114342Y0254850D01*
X0111360Y0254850D02*
X0111360Y0254644D01*
X0111155Y0254644D01*
X0111155Y0254850D01*
X0111360Y0254850D01*
X0111258Y0253617D02*
X0111258Y0251150D01*
X0109286Y0251150D02*
X0109331Y0251151D01*
X0109376Y0251156D01*
X0109420Y0251165D01*
X0109463Y0251177D01*
X0109505Y0251193D01*
X0109545Y0251213D01*
X0109584Y0251236D01*
X0109620Y0251261D01*
X0109654Y0251290D01*
X0109686Y0251322D01*
X0109715Y0251356D01*
X0109741Y0251393D01*
X0109764Y0251431D01*
X0109783Y0251472D01*
X0109799Y0251514D01*
X0109812Y0251557D01*
X0109821Y0251601D01*
X0109826Y0251645D01*
X0109827Y0251690D01*
X0109824Y0251735D01*
X0109818Y0251779D01*
X0109808Y0251823D01*
X0109795Y0251865D01*
X0109778Y0251907D01*
X0109757Y0251947D01*
X0109733Y0251985D01*
X0109707Y0252020D01*
X0109677Y0252054D01*
X0109644Y0252085D01*
X0109609Y0252113D01*
X0109572Y0252138D01*
X0109533Y0252159D01*
X0109492Y0252178D01*
X0108464Y0252589D01*
X0108423Y0252608D01*
X0108384Y0252629D01*
X0108347Y0252654D01*
X0108312Y0252682D01*
X0108279Y0252713D01*
X0108249Y0252747D01*
X0108223Y0252782D01*
X0108199Y0252820D01*
X0108178Y0252860D01*
X0108161Y0252902D01*
X0108148Y0252944D01*
X0108138Y0252988D01*
X0108132Y0253032D01*
X0108129Y0253077D01*
X0108130Y0253122D01*
X0108135Y0253166D01*
X0108144Y0253210D01*
X0108157Y0253253D01*
X0108173Y0253295D01*
X0108192Y0253336D01*
X0108215Y0253374D01*
X0108241Y0253411D01*
X0108270Y0253445D01*
X0108302Y0253477D01*
X0108336Y0253506D01*
X0108372Y0253531D01*
X0108411Y0253554D01*
X0108451Y0253574D01*
X0108493Y0253590D01*
X0108536Y0253602D01*
X0108580Y0253611D01*
X0108625Y0253616D01*
X0108670Y0253617D01*
X0108156Y0251355D02*
X0108265Y0251318D01*
X0108375Y0251284D01*
X0108487Y0251254D01*
X0108599Y0251228D01*
X0108712Y0251205D01*
X0108826Y0251186D01*
X0108941Y0251171D01*
X0109056Y0251160D01*
X0109171Y0251153D01*
X0109286Y0251149D01*
X0109594Y0253411D02*
X0109506Y0253449D01*
X0109417Y0253482D01*
X0109327Y0253512D01*
X0109235Y0253539D01*
X0109142Y0253561D01*
X0109049Y0253580D01*
X0108955Y0253595D01*
X0108860Y0253606D01*
X0108765Y0253613D01*
X0108669Y0253617D01*
X0107009Y0253617D02*
X0107009Y0253206D01*
X0107009Y0253617D02*
X0105776Y0253617D01*
X0105776Y0251150D01*
X0104160Y0251150D02*
X0103132Y0251150D01*
X0103084Y0251152D01*
X0103035Y0251158D01*
X0102988Y0251167D01*
X0102941Y0251180D01*
X0102896Y0251197D01*
X0102852Y0251217D01*
X0102810Y0251241D01*
X0102769Y0251268D01*
X0102731Y0251298D01*
X0102696Y0251331D01*
X0102663Y0251366D01*
X0102633Y0251404D01*
X0102606Y0251445D01*
X0102582Y0251487D01*
X0102562Y0251531D01*
X0102545Y0251576D01*
X0102532Y0251623D01*
X0102523Y0251670D01*
X0102517Y0251719D01*
X0102515Y0251767D01*
X0102516Y0251767D02*
X0102516Y0252794D01*
X0102516Y0252383D02*
X0104160Y0252383D01*
X0104160Y0252794D01*
X0104158Y0252850D01*
X0104152Y0252906D01*
X0104143Y0252961D01*
X0104130Y0253016D01*
X0104113Y0253069D01*
X0104092Y0253121D01*
X0104068Y0253172D01*
X0104040Y0253221D01*
X0104010Y0253268D01*
X0103976Y0253313D01*
X0103939Y0253355D01*
X0103899Y0253395D01*
X0103857Y0253432D01*
X0103812Y0253466D01*
X0103765Y0253496D01*
X0103716Y0253524D01*
X0103665Y0253548D01*
X0103613Y0253569D01*
X0103560Y0253586D01*
X0103505Y0253599D01*
X0103450Y0253608D01*
X0103394Y0253614D01*
X0103338Y0253616D01*
X0103282Y0253614D01*
X0103226Y0253608D01*
X0103171Y0253599D01*
X0103116Y0253586D01*
X0103063Y0253569D01*
X0103011Y0253548D01*
X0102960Y0253524D01*
X0102911Y0253496D01*
X0102864Y0253466D01*
X0102819Y0253432D01*
X0102777Y0253395D01*
X0102737Y0253355D01*
X0102700Y0253313D01*
X0102666Y0253268D01*
X0102636Y0253221D01*
X0102608Y0253172D01*
X0102584Y0253121D01*
X0102563Y0253069D01*
X0102546Y0253016D01*
X0102533Y0252961D01*
X0102524Y0252906D01*
X0102518Y0252850D01*
X0102516Y0252794D01*
X0101160Y0253617D02*
X0100338Y0251150D01*
X0099516Y0253617D01*
X0098178Y0253617D02*
X0098178Y0251150D01*
X0096600Y0251150D02*
X0096600Y0253000D01*
X0096598Y0253048D01*
X0096592Y0253097D01*
X0096583Y0253144D01*
X0096570Y0253191D01*
X0096553Y0253236D01*
X0096533Y0253280D01*
X0096509Y0253322D01*
X0096482Y0253363D01*
X0096452Y0253401D01*
X0096419Y0253436D01*
X0096384Y0253469D01*
X0096346Y0253499D01*
X0096305Y0253526D01*
X0096263Y0253550D01*
X0096219Y0253570D01*
X0096174Y0253587D01*
X0096127Y0253600D01*
X0096080Y0253609D01*
X0096031Y0253615D01*
X0095983Y0253617D01*
X0094956Y0253617D01*
X0094956Y0251150D01*
X0093206Y0252178D02*
X0093206Y0254850D01*
X0091150Y0254850D02*
X0091150Y0252178D01*
X0091152Y0252115D01*
X0091158Y0252052D01*
X0091168Y0251989D01*
X0091181Y0251927D01*
X0091198Y0251866D01*
X0091219Y0251807D01*
X0091244Y0251748D01*
X0091272Y0251692D01*
X0091304Y0251637D01*
X0091339Y0251584D01*
X0091377Y0251534D01*
X0091418Y0251485D01*
X0091462Y0251440D01*
X0091509Y0251397D01*
X0091558Y0251358D01*
X0091610Y0251321D01*
X0091664Y0251288D01*
X0091720Y0251258D01*
X0091777Y0251231D01*
X0091836Y0251208D01*
X0091897Y0251189D01*
X0091958Y0251174D01*
X0092020Y0251162D01*
X0092083Y0251154D01*
X0092146Y0251150D01*
X0092210Y0251150D01*
X0092273Y0251154D01*
X0092336Y0251162D01*
X0092398Y0251174D01*
X0092459Y0251189D01*
X0092520Y0251208D01*
X0092579Y0251231D01*
X0092636Y0251258D01*
X0092692Y0251288D01*
X0092746Y0251321D01*
X0092798Y0251358D01*
X0092847Y0251397D01*
X0092894Y0251440D01*
X0092938Y0251485D01*
X0092979Y0251534D01*
X0093017Y0251584D01*
X0093052Y0251637D01*
X0093084Y0251692D01*
X0093112Y0251748D01*
X0093137Y0251807D01*
X0093158Y0251866D01*
X0093175Y0251927D01*
X0093188Y0251989D01*
X0093198Y0252052D01*
X0093204Y0252115D01*
X0093206Y0252178D01*
X0098075Y0254644D02*
X0098281Y0254644D01*
X0098281Y0254850D01*
X0098075Y0254850D01*
X0098075Y0254644D01*
X0097794Y0244850D02*
X0096150Y0244850D01*
X0096150Y0241150D01*
X0097794Y0241150D01*
X0099263Y0241150D02*
X0099263Y0244850D01*
X0101319Y0241150D01*
X0101319Y0244850D01*
X0102973Y0244028D02*
X0102973Y0241972D01*
X0102975Y0241916D01*
X0102981Y0241860D01*
X0102990Y0241805D01*
X0103003Y0241750D01*
X0103020Y0241697D01*
X0103041Y0241645D01*
X0103065Y0241594D01*
X0103093Y0241545D01*
X0103123Y0241498D01*
X0103157Y0241453D01*
X0103194Y0241411D01*
X0103234Y0241371D01*
X0103276Y0241334D01*
X0103321Y0241300D01*
X0103368Y0241270D01*
X0103417Y0241242D01*
X0103468Y0241218D01*
X0103520Y0241197D01*
X0103573Y0241180D01*
X0103628Y0241167D01*
X0103683Y0241158D01*
X0103739Y0241152D01*
X0103795Y0241150D01*
X0104617Y0241150D01*
X0106103Y0241150D02*
X0107131Y0241150D01*
X0107193Y0241152D01*
X0107255Y0241157D01*
X0107316Y0241167D01*
X0107377Y0241180D01*
X0107437Y0241197D01*
X0107496Y0241217D01*
X0107553Y0241241D01*
X0107609Y0241268D01*
X0107663Y0241298D01*
X0107715Y0241332D01*
X0107765Y0241369D01*
X0107813Y0241409D01*
X0107858Y0241451D01*
X0107900Y0241496D01*
X0107940Y0241544D01*
X0107977Y0241594D01*
X0108011Y0241646D01*
X0108041Y0241700D01*
X0108068Y0241756D01*
X0108092Y0241813D01*
X0108112Y0241872D01*
X0108129Y0241932D01*
X0108142Y0241993D01*
X0108152Y0242054D01*
X0108157Y0242116D01*
X0108159Y0242178D01*
X0108159Y0243822D01*
X0108157Y0243884D01*
X0108152Y0243946D01*
X0108142Y0244007D01*
X0108129Y0244068D01*
X0108112Y0244128D01*
X0108092Y0244187D01*
X0108068Y0244244D01*
X0108041Y0244300D01*
X0108011Y0244354D01*
X0107977Y0244406D01*
X0107940Y0244456D01*
X0107900Y0244504D01*
X0107858Y0244549D01*
X0107813Y0244591D01*
X0107765Y0244631D01*
X0107715Y0244668D01*
X0107663Y0244702D01*
X0107609Y0244732D01*
X0107553Y0244759D01*
X0107496Y0244783D01*
X0107437Y0244803D01*
X0107377Y0244820D01*
X0107316Y0244833D01*
X0107255Y0244843D01*
X0107193Y0244848D01*
X0107131Y0244850D01*
X0106103Y0244850D01*
X0106103Y0241150D01*
X0102973Y0244028D02*
X0102975Y0244084D01*
X0102981Y0244140D01*
X0102990Y0244195D01*
X0103003Y0244250D01*
X0103020Y0244303D01*
X0103041Y0244355D01*
X0103065Y0244406D01*
X0103093Y0244455D01*
X0103123Y0244502D01*
X0103157Y0244547D01*
X0103194Y0244589D01*
X0103234Y0244629D01*
X0103276Y0244666D01*
X0103321Y0244700D01*
X0103368Y0244730D01*
X0103417Y0244758D01*
X0103468Y0244782D01*
X0103520Y0244803D01*
X0103573Y0244820D01*
X0103628Y0244833D01*
X0103683Y0244842D01*
X0103739Y0244848D01*
X0103795Y0244850D01*
X0104617Y0244850D01*
X0109995Y0244850D02*
X0109995Y0241150D01*
X0111023Y0241150D01*
X0111086Y0241152D01*
X0111149Y0241158D01*
X0111212Y0241168D01*
X0111274Y0241181D01*
X0111335Y0241198D01*
X0111394Y0241219D01*
X0111453Y0241244D01*
X0111509Y0241272D01*
X0111564Y0241304D01*
X0111617Y0241339D01*
X0111667Y0241377D01*
X0111716Y0241418D01*
X0111761Y0241462D01*
X0111804Y0241509D01*
X0111843Y0241558D01*
X0111880Y0241610D01*
X0111913Y0241664D01*
X0111943Y0241720D01*
X0111970Y0241777D01*
X0111993Y0241836D01*
X0112012Y0241897D01*
X0112027Y0241958D01*
X0112039Y0242020D01*
X0112047Y0242083D01*
X0112051Y0242146D01*
X0112051Y0242210D01*
X0112047Y0242273D01*
X0112039Y0242336D01*
X0112027Y0242398D01*
X0112012Y0242459D01*
X0111993Y0242520D01*
X0111970Y0242579D01*
X0111943Y0242636D01*
X0111913Y0242692D01*
X0111880Y0242746D01*
X0111843Y0242798D01*
X0111804Y0242847D01*
X0111761Y0242894D01*
X0111716Y0242938D01*
X0111667Y0242979D01*
X0111617Y0243017D01*
X0111564Y0243052D01*
X0111509Y0243084D01*
X0111453Y0243112D01*
X0111394Y0243137D01*
X0111335Y0243158D01*
X0111274Y0243175D01*
X0111212Y0243188D01*
X0111149Y0243198D01*
X0111086Y0243204D01*
X0111023Y0243206D01*
X0109995Y0243206D01*
X0111023Y0243206D02*
X0111079Y0243208D01*
X0111135Y0243214D01*
X0111190Y0243223D01*
X0111245Y0243236D01*
X0111298Y0243253D01*
X0111350Y0243274D01*
X0111401Y0243298D01*
X0111450Y0243326D01*
X0111497Y0243356D01*
X0111542Y0243390D01*
X0111584Y0243427D01*
X0111624Y0243467D01*
X0111661Y0243509D01*
X0111695Y0243554D01*
X0111725Y0243601D01*
X0111753Y0243650D01*
X0111777Y0243701D01*
X0111798Y0243753D01*
X0111815Y0243806D01*
X0111828Y0243861D01*
X0111837Y0243916D01*
X0111843Y0243972D01*
X0111845Y0244028D01*
X0111843Y0244084D01*
X0111837Y0244140D01*
X0111828Y0244195D01*
X0111815Y0244250D01*
X0111798Y0244303D01*
X0111777Y0244355D01*
X0111753Y0244406D01*
X0111725Y0244455D01*
X0111695Y0244502D01*
X0111661Y0244547D01*
X0111624Y0244589D01*
X0111584Y0244629D01*
X0111542Y0244666D01*
X0111497Y0244700D01*
X0111450Y0244730D01*
X0111401Y0244758D01*
X0111350Y0244782D01*
X0111298Y0244803D01*
X0111245Y0244820D01*
X0111190Y0244833D01*
X0111135Y0244842D01*
X0111079Y0244848D01*
X0111023Y0244850D01*
X0109995Y0244850D01*
X0110851Y0234850D02*
X0112084Y0231150D01*
X0111776Y0232075D02*
X0109926Y0232075D01*
X0109618Y0231150D02*
X0110851Y0234850D01*
X0108159Y0233822D02*
X0108159Y0232178D01*
X0108157Y0232116D01*
X0108152Y0232054D01*
X0108142Y0231993D01*
X0108129Y0231932D01*
X0108112Y0231872D01*
X0108092Y0231813D01*
X0108068Y0231756D01*
X0108041Y0231700D01*
X0108011Y0231646D01*
X0107977Y0231594D01*
X0107940Y0231544D01*
X0107900Y0231496D01*
X0107858Y0231451D01*
X0107813Y0231409D01*
X0107765Y0231369D01*
X0107715Y0231332D01*
X0107663Y0231298D01*
X0107609Y0231268D01*
X0107553Y0231241D01*
X0107496Y0231217D01*
X0107437Y0231197D01*
X0107377Y0231180D01*
X0107316Y0231167D01*
X0107255Y0231157D01*
X0107193Y0231152D01*
X0107131Y0231150D01*
X0106103Y0231150D01*
X0106103Y0234850D01*
X0107131Y0234850D01*
X0107193Y0234848D01*
X0107255Y0234843D01*
X0107316Y0234833D01*
X0107377Y0234820D01*
X0107437Y0234803D01*
X0107496Y0234783D01*
X0107553Y0234759D01*
X0107609Y0234732D01*
X0107663Y0234702D01*
X0107715Y0234668D01*
X0107765Y0234631D01*
X0107813Y0234591D01*
X0107858Y0234549D01*
X0107900Y0234504D01*
X0107940Y0234456D01*
X0107977Y0234406D01*
X0108011Y0234354D01*
X0108041Y0234300D01*
X0108068Y0234244D01*
X0108092Y0234187D01*
X0108112Y0234128D01*
X0108129Y0234068D01*
X0108142Y0234007D01*
X0108152Y0233946D01*
X0108157Y0233884D01*
X0108159Y0233822D01*
X0104617Y0234850D02*
X0103795Y0234850D01*
X0103739Y0234848D01*
X0103683Y0234842D01*
X0103628Y0234833D01*
X0103573Y0234820D01*
X0103520Y0234803D01*
X0103468Y0234782D01*
X0103417Y0234758D01*
X0103368Y0234730D01*
X0103321Y0234700D01*
X0103276Y0234666D01*
X0103234Y0234629D01*
X0103194Y0234589D01*
X0103157Y0234547D01*
X0103123Y0234502D01*
X0103093Y0234455D01*
X0103065Y0234406D01*
X0103041Y0234355D01*
X0103020Y0234303D01*
X0103003Y0234250D01*
X0102990Y0234195D01*
X0102981Y0234140D01*
X0102975Y0234084D01*
X0102973Y0234028D01*
X0102973Y0231972D01*
X0102975Y0231916D01*
X0102981Y0231860D01*
X0102990Y0231805D01*
X0103003Y0231750D01*
X0103020Y0231697D01*
X0103041Y0231645D01*
X0103065Y0231594D01*
X0103093Y0231545D01*
X0103123Y0231498D01*
X0103157Y0231453D01*
X0103194Y0231411D01*
X0103234Y0231371D01*
X0103276Y0231334D01*
X0103321Y0231300D01*
X0103368Y0231270D01*
X0103417Y0231242D01*
X0103468Y0231218D01*
X0103520Y0231197D01*
X0103573Y0231180D01*
X0103628Y0231167D01*
X0103683Y0231158D01*
X0103739Y0231152D01*
X0103795Y0231150D01*
X0104617Y0231150D01*
X0101319Y0231150D02*
X0101319Y0234850D01*
X0099263Y0234850D02*
X0101319Y0231150D01*
X0099263Y0231150D02*
X0099263Y0234850D01*
X0097794Y0234850D02*
X0096150Y0234850D01*
X0096150Y0231150D01*
X0097794Y0231150D01*
X0097383Y0233206D02*
X0096150Y0233206D01*
X0101150Y0224850D02*
X0102383Y0224850D01*
X0102439Y0224848D01*
X0102495Y0224842D01*
X0102550Y0224833D01*
X0102605Y0224820D01*
X0102658Y0224803D01*
X0102710Y0224782D01*
X0102761Y0224758D01*
X0102810Y0224730D01*
X0102857Y0224700D01*
X0102902Y0224666D01*
X0102944Y0224629D01*
X0102984Y0224589D01*
X0103021Y0224547D01*
X0103055Y0224502D01*
X0103085Y0224455D01*
X0103113Y0224406D01*
X0103137Y0224355D01*
X0103158Y0224303D01*
X0103175Y0224250D01*
X0103188Y0224195D01*
X0103197Y0224140D01*
X0103203Y0224084D01*
X0103205Y0224028D01*
X0103203Y0223972D01*
X0103197Y0223916D01*
X0103188Y0223861D01*
X0103175Y0223806D01*
X0103158Y0223753D01*
X0103137Y0223701D01*
X0103113Y0223650D01*
X0103085Y0223601D01*
X0103055Y0223554D01*
X0103021Y0223509D01*
X0102984Y0223467D01*
X0102944Y0223427D01*
X0102902Y0223390D01*
X0102857Y0223356D01*
X0102810Y0223326D01*
X0102761Y0223298D01*
X0102710Y0223274D01*
X0102658Y0223253D01*
X0102605Y0223236D01*
X0102550Y0223223D01*
X0102495Y0223214D01*
X0102439Y0223208D01*
X0102383Y0223206D01*
X0101561Y0223206D01*
X0102178Y0223206D02*
X0102241Y0223204D01*
X0102304Y0223198D01*
X0102367Y0223188D01*
X0102429Y0223175D01*
X0102490Y0223158D01*
X0102549Y0223137D01*
X0102608Y0223112D01*
X0102664Y0223084D01*
X0102719Y0223052D01*
X0102772Y0223017D01*
X0102822Y0222979D01*
X0102871Y0222938D01*
X0102916Y0222894D01*
X0102959Y0222847D01*
X0102998Y0222798D01*
X0103035Y0222746D01*
X0103068Y0222692D01*
X0103098Y0222636D01*
X0103125Y0222579D01*
X0103148Y0222520D01*
X0103167Y0222459D01*
X0103182Y0222398D01*
X0103194Y0222336D01*
X0103202Y0222273D01*
X0103206Y0222210D01*
X0103206Y0222146D01*
X0103202Y0222083D01*
X0103194Y0222020D01*
X0103182Y0221958D01*
X0103167Y0221897D01*
X0103148Y0221836D01*
X0103125Y0221777D01*
X0103098Y0221720D01*
X0103068Y0221664D01*
X0103035Y0221610D01*
X0102998Y0221558D01*
X0102959Y0221509D01*
X0102916Y0221462D01*
X0102871Y0221418D01*
X0102822Y0221377D01*
X0102772Y0221339D01*
X0102719Y0221304D01*
X0102664Y0221272D01*
X0102608Y0221244D01*
X0102549Y0221219D01*
X0102490Y0221198D01*
X0102429Y0221181D01*
X0102367Y0221168D01*
X0102304Y0221158D01*
X0102241Y0221152D01*
X0102178Y0221150D01*
X0101150Y0221150D01*
X0105778Y0221150D02*
X0104544Y0224850D01*
X0107011Y0224850D02*
X0105778Y0221150D01*
X0108350Y0221150D02*
X0109378Y0221150D01*
X0109441Y0221152D01*
X0109504Y0221158D01*
X0109567Y0221168D01*
X0109629Y0221181D01*
X0109690Y0221198D01*
X0109749Y0221219D01*
X0109808Y0221244D01*
X0109864Y0221272D01*
X0109919Y0221304D01*
X0109972Y0221339D01*
X0110022Y0221377D01*
X0110071Y0221418D01*
X0110116Y0221462D01*
X0110159Y0221509D01*
X0110198Y0221558D01*
X0110235Y0221610D01*
X0110268Y0221664D01*
X0110298Y0221720D01*
X0110325Y0221777D01*
X0110348Y0221836D01*
X0110367Y0221897D01*
X0110382Y0221958D01*
X0110394Y0222020D01*
X0110402Y0222083D01*
X0110406Y0222146D01*
X0110406Y0222210D01*
X0110402Y0222273D01*
X0110394Y0222336D01*
X0110382Y0222398D01*
X0110367Y0222459D01*
X0110348Y0222520D01*
X0110325Y0222579D01*
X0110298Y0222636D01*
X0110268Y0222692D01*
X0110235Y0222746D01*
X0110198Y0222798D01*
X0110159Y0222847D01*
X0110116Y0222894D01*
X0110071Y0222938D01*
X0110022Y0222979D01*
X0109972Y0223017D01*
X0109919Y0223052D01*
X0109864Y0223084D01*
X0109808Y0223112D01*
X0109749Y0223137D01*
X0109690Y0223158D01*
X0109629Y0223175D01*
X0109567Y0223188D01*
X0109504Y0223198D01*
X0109441Y0223204D01*
X0109378Y0223206D01*
X0109583Y0223206D02*
X0108761Y0223206D01*
X0109583Y0223206D02*
X0109639Y0223208D01*
X0109695Y0223214D01*
X0109750Y0223223D01*
X0109805Y0223236D01*
X0109858Y0223253D01*
X0109910Y0223274D01*
X0109961Y0223298D01*
X0110010Y0223326D01*
X0110057Y0223356D01*
X0110102Y0223390D01*
X0110144Y0223427D01*
X0110184Y0223467D01*
X0110221Y0223509D01*
X0110255Y0223554D01*
X0110285Y0223601D01*
X0110313Y0223650D01*
X0110337Y0223701D01*
X0110358Y0223753D01*
X0110375Y0223806D01*
X0110388Y0223861D01*
X0110397Y0223916D01*
X0110403Y0223972D01*
X0110405Y0224028D01*
X0110403Y0224084D01*
X0110397Y0224140D01*
X0110388Y0224195D01*
X0110375Y0224250D01*
X0110358Y0224303D01*
X0110337Y0224355D01*
X0110313Y0224406D01*
X0110285Y0224455D01*
X0110255Y0224502D01*
X0110221Y0224547D01*
X0110184Y0224589D01*
X0110144Y0224629D01*
X0110102Y0224666D01*
X0110057Y0224700D01*
X0110010Y0224730D01*
X0109961Y0224758D01*
X0109910Y0224782D01*
X0109858Y0224803D01*
X0109805Y0224820D01*
X0109750Y0224833D01*
X0109695Y0224842D01*
X0109639Y0224848D01*
X0109583Y0224850D01*
X0108350Y0224850D01*
X0108830Y0214850D02*
X0109858Y0214850D01*
X0109920Y0214848D01*
X0109982Y0214843D01*
X0110043Y0214833D01*
X0110104Y0214820D01*
X0110164Y0214803D01*
X0110223Y0214783D01*
X0110280Y0214759D01*
X0110336Y0214732D01*
X0110390Y0214702D01*
X0110442Y0214668D01*
X0110492Y0214631D01*
X0110540Y0214591D01*
X0110585Y0214549D01*
X0110627Y0214504D01*
X0110667Y0214456D01*
X0110704Y0214406D01*
X0110738Y0214354D01*
X0110768Y0214300D01*
X0110795Y0214244D01*
X0110819Y0214187D01*
X0110839Y0214128D01*
X0110856Y0214068D01*
X0110869Y0214007D01*
X0110879Y0213946D01*
X0110884Y0213884D01*
X0110886Y0213822D01*
X0110886Y0212178D01*
X0110884Y0212116D01*
X0110879Y0212054D01*
X0110869Y0211993D01*
X0110856Y0211932D01*
X0110839Y0211872D01*
X0110819Y0211813D01*
X0110795Y0211756D01*
X0110768Y0211700D01*
X0110738Y0211646D01*
X0110704Y0211594D01*
X0110667Y0211544D01*
X0110627Y0211496D01*
X0110585Y0211451D01*
X0110540Y0211409D01*
X0110492Y0211369D01*
X0110442Y0211332D01*
X0110390Y0211298D01*
X0110336Y0211268D01*
X0110280Y0211241D01*
X0110223Y0211217D01*
X0110164Y0211197D01*
X0110104Y0211180D01*
X0110043Y0211167D01*
X0109982Y0211157D01*
X0109920Y0211152D01*
X0109858Y0211150D01*
X0108830Y0211150D01*
X0108830Y0214850D01*
X0107046Y0214850D02*
X0107046Y0211150D01*
X0104990Y0214850D01*
X0104990Y0211150D01*
X0103206Y0211150D02*
X0101972Y0211150D01*
X0101916Y0211152D01*
X0101860Y0211158D01*
X0101805Y0211167D01*
X0101750Y0211180D01*
X0101697Y0211197D01*
X0101645Y0211218D01*
X0101594Y0211242D01*
X0101545Y0211270D01*
X0101498Y0211300D01*
X0101453Y0211334D01*
X0101411Y0211371D01*
X0101371Y0211411D01*
X0101334Y0211453D01*
X0101300Y0211498D01*
X0101270Y0211545D01*
X0101242Y0211594D01*
X0101218Y0211645D01*
X0101197Y0211697D01*
X0101180Y0211750D01*
X0101167Y0211805D01*
X0101158Y0211860D01*
X0101152Y0211916D01*
X0101150Y0211972D01*
X0101150Y0214028D01*
X0101152Y0214084D01*
X0101158Y0214140D01*
X0101167Y0214195D01*
X0101180Y0214250D01*
X0101197Y0214303D01*
X0101218Y0214355D01*
X0101242Y0214406D01*
X0101270Y0214455D01*
X0101300Y0214502D01*
X0101334Y0214547D01*
X0101371Y0214589D01*
X0101411Y0214629D01*
X0101453Y0214666D01*
X0101498Y0214700D01*
X0101545Y0214730D01*
X0101594Y0214758D01*
X0101645Y0214782D01*
X0101697Y0214803D01*
X0101750Y0214820D01*
X0101805Y0214833D01*
X0101860Y0214842D01*
X0101916Y0214848D01*
X0101972Y0214850D01*
X0103206Y0214850D01*
X0103206Y0213206D02*
X0103206Y0211150D01*
X0103206Y0213206D02*
X0102589Y0213206D01*
X0097383Y0243206D02*
X0096150Y0243206D01*
X0138864Y0251767D02*
X0138864Y0254850D01*
X0138863Y0251767D02*
X0138865Y0251719D01*
X0138871Y0251670D01*
X0138880Y0251623D01*
X0138893Y0251576D01*
X0138910Y0251531D01*
X0138930Y0251487D01*
X0138954Y0251445D01*
X0138981Y0251404D01*
X0139011Y0251366D01*
X0139044Y0251331D01*
X0139079Y0251298D01*
X0139117Y0251268D01*
X0139158Y0251241D01*
X0139200Y0251217D01*
X0139244Y0251197D01*
X0139289Y0251180D01*
X0139336Y0251167D01*
X0139383Y0251158D01*
X0139432Y0251152D01*
X0139480Y0251150D01*
X0139686Y0251150D01*
X0162737Y0251150D02*
X0163662Y0251150D01*
X0162737Y0251150D02*
X0162685Y0251152D01*
X0162632Y0251158D01*
X0162581Y0251167D01*
X0162530Y0251180D01*
X0162480Y0251197D01*
X0162432Y0251218D01*
X0162385Y0251242D01*
X0162340Y0251269D01*
X0162298Y0251300D01*
X0162257Y0251334D01*
X0162219Y0251370D01*
X0162184Y0251409D01*
X0162152Y0251451D01*
X0162123Y0251494D01*
X0162098Y0251540D01*
X0162075Y0251588D01*
X0162057Y0251637D01*
X0162041Y0251687D01*
X0162030Y0251738D01*
X0162022Y0251790D01*
X0162018Y0251843D01*
X0162018Y0251895D01*
X0162022Y0251948D01*
X0162030Y0252000D01*
X0162041Y0252051D01*
X0162057Y0252101D01*
X0162075Y0252150D01*
X0162098Y0252198D01*
X0162123Y0252244D01*
X0162152Y0252287D01*
X0162184Y0252329D01*
X0162219Y0252368D01*
X0162257Y0252404D01*
X0162298Y0252438D01*
X0162340Y0252469D01*
X0162385Y0252496D01*
X0162432Y0252520D01*
X0162480Y0252541D01*
X0162530Y0252558D01*
X0162581Y0252571D01*
X0162632Y0252580D01*
X0162685Y0252586D01*
X0162737Y0252588D01*
X0217663Y0254644D02*
X0217869Y0254644D01*
X0217869Y0254850D01*
X0217663Y0254850D01*
X0217663Y0254644D01*
X0226150Y0234850D02*
X0227794Y0234850D01*
X0229263Y0234850D02*
X0231319Y0231150D01*
X0231319Y0234850D01*
X0232973Y0234028D02*
X0232973Y0231972D01*
X0232975Y0231916D01*
X0232981Y0231860D01*
X0232990Y0231805D01*
X0233003Y0231750D01*
X0233020Y0231697D01*
X0233041Y0231645D01*
X0233065Y0231594D01*
X0233093Y0231545D01*
X0233123Y0231498D01*
X0233157Y0231453D01*
X0233194Y0231411D01*
X0233234Y0231371D01*
X0233276Y0231334D01*
X0233321Y0231300D01*
X0233368Y0231270D01*
X0233417Y0231242D01*
X0233468Y0231218D01*
X0233520Y0231197D01*
X0233573Y0231180D01*
X0233628Y0231167D01*
X0233683Y0231158D01*
X0233739Y0231152D01*
X0233795Y0231150D01*
X0234617Y0231150D01*
X0236110Y0231150D02*
X0236110Y0234850D01*
X0237754Y0234850D01*
X0237343Y0233206D02*
X0236110Y0233206D01*
X0236110Y0231150D02*
X0237754Y0231150D01*
X0238897Y0231150D02*
X0240131Y0234850D01*
X0241364Y0231150D01*
X0241056Y0232075D02*
X0239206Y0232075D01*
X0234617Y0234850D02*
X0233795Y0234850D01*
X0233739Y0234848D01*
X0233683Y0234842D01*
X0233628Y0234833D01*
X0233573Y0234820D01*
X0233520Y0234803D01*
X0233468Y0234782D01*
X0233417Y0234758D01*
X0233368Y0234730D01*
X0233321Y0234700D01*
X0233276Y0234666D01*
X0233234Y0234629D01*
X0233194Y0234589D01*
X0233157Y0234547D01*
X0233123Y0234502D01*
X0233093Y0234455D01*
X0233065Y0234406D01*
X0233041Y0234355D01*
X0233020Y0234303D01*
X0233003Y0234250D01*
X0232990Y0234195D01*
X0232981Y0234140D01*
X0232975Y0234084D01*
X0232973Y0234028D01*
X0229263Y0234850D02*
X0229263Y0231150D01*
X0227794Y0231150D02*
X0226150Y0231150D01*
X0226150Y0234850D01*
X0226150Y0233206D02*
X0227383Y0233206D01*
X0253423Y0254644D02*
X0253629Y0254644D01*
X0253629Y0254850D01*
X0253423Y0254850D01*
X0253423Y0254644D01*
X0271150Y0254850D02*
X0273206Y0254850D01*
X0272178Y0254850D02*
X0272178Y0251150D01*
X0274630Y0252178D02*
X0274630Y0254850D01*
X0276686Y0254850D02*
X0276686Y0252178D01*
X0276684Y0252115D01*
X0276678Y0252052D01*
X0276668Y0251989D01*
X0276655Y0251927D01*
X0276638Y0251866D01*
X0276617Y0251807D01*
X0276592Y0251748D01*
X0276564Y0251692D01*
X0276532Y0251637D01*
X0276497Y0251584D01*
X0276459Y0251534D01*
X0276418Y0251485D01*
X0276374Y0251440D01*
X0276327Y0251397D01*
X0276278Y0251358D01*
X0276226Y0251321D01*
X0276172Y0251288D01*
X0276116Y0251258D01*
X0276059Y0251231D01*
X0276000Y0251208D01*
X0275939Y0251189D01*
X0275878Y0251174D01*
X0275816Y0251162D01*
X0275753Y0251154D01*
X0275690Y0251150D01*
X0275626Y0251150D01*
X0275563Y0251154D01*
X0275500Y0251162D01*
X0275438Y0251174D01*
X0275377Y0251189D01*
X0275316Y0251208D01*
X0275257Y0251231D01*
X0275200Y0251258D01*
X0275144Y0251288D01*
X0275090Y0251321D01*
X0275038Y0251358D01*
X0274989Y0251397D01*
X0274942Y0251440D01*
X0274898Y0251485D01*
X0274857Y0251534D01*
X0274819Y0251584D01*
X0274784Y0251637D01*
X0274752Y0251692D01*
X0274724Y0251748D01*
X0274699Y0251807D01*
X0274678Y0251866D01*
X0274661Y0251927D01*
X0274648Y0251989D01*
X0274638Y0252052D01*
X0274632Y0252115D01*
X0274630Y0252178D01*
X0278247Y0251150D02*
X0279069Y0251150D01*
X0278658Y0251150D02*
X0278658Y0254850D01*
X0278247Y0254850D02*
X0279069Y0254850D01*
X0280630Y0254850D02*
X0280630Y0252178D01*
X0280632Y0252115D01*
X0280638Y0252052D01*
X0280648Y0251989D01*
X0280661Y0251927D01*
X0280678Y0251866D01*
X0280699Y0251807D01*
X0280724Y0251748D01*
X0280752Y0251692D01*
X0280784Y0251637D01*
X0280819Y0251584D01*
X0280857Y0251534D01*
X0280898Y0251485D01*
X0280942Y0251440D01*
X0280989Y0251397D01*
X0281038Y0251358D01*
X0281090Y0251321D01*
X0281144Y0251288D01*
X0281200Y0251258D01*
X0281257Y0251231D01*
X0281316Y0251208D01*
X0281377Y0251189D01*
X0281438Y0251174D01*
X0281500Y0251162D01*
X0281563Y0251154D01*
X0281626Y0251150D01*
X0281690Y0251150D01*
X0281753Y0251154D01*
X0281816Y0251162D01*
X0281878Y0251174D01*
X0281939Y0251189D01*
X0282000Y0251208D01*
X0282059Y0251231D01*
X0282116Y0251258D01*
X0282172Y0251288D01*
X0282226Y0251321D01*
X0282278Y0251358D01*
X0282327Y0251397D01*
X0282374Y0251440D01*
X0282418Y0251485D01*
X0282459Y0251534D01*
X0282497Y0251584D01*
X0282532Y0251637D01*
X0282564Y0251692D01*
X0282592Y0251748D01*
X0282617Y0251807D01*
X0282638Y0251866D01*
X0282655Y0251927D01*
X0282668Y0251989D01*
X0282678Y0252052D01*
X0282684Y0252115D01*
X0282686Y0252178D01*
X0282686Y0254850D01*
X0284470Y0254850D02*
X0286526Y0251150D01*
X0286526Y0254850D01*
X0284470Y0254850D02*
X0284470Y0251150D01*
X0287984Y0251150D02*
X0289218Y0254850D01*
X0290451Y0251150D01*
X0290143Y0252075D02*
X0288293Y0252075D01*
X0291550Y0254850D02*
X0293605Y0254850D01*
X0292578Y0254850D02*
X0292578Y0251150D01*
X0294910Y0252178D02*
X0294910Y0253822D01*
X0294912Y0253885D01*
X0294918Y0253948D01*
X0294928Y0254011D01*
X0294941Y0254073D01*
X0294958Y0254134D01*
X0294979Y0254193D01*
X0295004Y0254252D01*
X0295032Y0254308D01*
X0295064Y0254363D01*
X0295099Y0254416D01*
X0295137Y0254466D01*
X0295178Y0254515D01*
X0295222Y0254560D01*
X0295269Y0254603D01*
X0295318Y0254642D01*
X0295370Y0254679D01*
X0295424Y0254712D01*
X0295480Y0254742D01*
X0295537Y0254769D01*
X0295596Y0254792D01*
X0295657Y0254811D01*
X0295718Y0254826D01*
X0295780Y0254838D01*
X0295843Y0254846D01*
X0295906Y0254850D01*
X0295970Y0254850D01*
X0296033Y0254846D01*
X0296096Y0254838D01*
X0296158Y0254826D01*
X0296219Y0254811D01*
X0296280Y0254792D01*
X0296339Y0254769D01*
X0296396Y0254742D01*
X0296452Y0254712D01*
X0296506Y0254679D01*
X0296558Y0254642D01*
X0296607Y0254603D01*
X0296654Y0254560D01*
X0296698Y0254515D01*
X0296739Y0254466D01*
X0296777Y0254416D01*
X0296812Y0254363D01*
X0296844Y0254308D01*
X0296872Y0254252D01*
X0296897Y0254193D01*
X0296918Y0254134D01*
X0296935Y0254073D01*
X0296948Y0254011D01*
X0296958Y0253948D01*
X0296964Y0253885D01*
X0296966Y0253822D01*
X0296965Y0253822D02*
X0296965Y0252178D01*
X0296966Y0252178D02*
X0296964Y0252115D01*
X0296958Y0252052D01*
X0296948Y0251989D01*
X0296935Y0251927D01*
X0296918Y0251866D01*
X0296897Y0251807D01*
X0296872Y0251748D01*
X0296844Y0251692D01*
X0296812Y0251637D01*
X0296777Y0251584D01*
X0296739Y0251534D01*
X0296698Y0251485D01*
X0296654Y0251440D01*
X0296607Y0251397D01*
X0296558Y0251358D01*
X0296506Y0251321D01*
X0296452Y0251288D01*
X0296396Y0251258D01*
X0296339Y0251231D01*
X0296280Y0251208D01*
X0296219Y0251189D01*
X0296158Y0251174D01*
X0296096Y0251162D01*
X0296033Y0251154D01*
X0295970Y0251150D01*
X0295906Y0251150D01*
X0295843Y0251154D01*
X0295780Y0251162D01*
X0295718Y0251174D01*
X0295657Y0251189D01*
X0295596Y0251208D01*
X0295537Y0251231D01*
X0295480Y0251258D01*
X0295424Y0251288D01*
X0295370Y0251321D01*
X0295318Y0251358D01*
X0295269Y0251397D01*
X0295222Y0251440D01*
X0295178Y0251485D01*
X0295137Y0251534D01*
X0295099Y0251584D01*
X0295064Y0251637D01*
X0295032Y0251692D01*
X0295004Y0251748D01*
X0294979Y0251807D01*
X0294958Y0251866D01*
X0294941Y0251927D01*
X0294928Y0251989D01*
X0294918Y0252052D01*
X0294912Y0252115D01*
X0294910Y0252178D01*
X0298652Y0252794D02*
X0299680Y0252794D01*
X0299886Y0252794D02*
X0300708Y0251150D01*
X0298652Y0251150D02*
X0298652Y0254850D01*
X0299680Y0254850D01*
X0299743Y0254848D01*
X0299806Y0254842D01*
X0299869Y0254832D01*
X0299931Y0254819D01*
X0299992Y0254802D01*
X0300051Y0254781D01*
X0300110Y0254756D01*
X0300166Y0254728D01*
X0300221Y0254696D01*
X0300274Y0254661D01*
X0300324Y0254623D01*
X0300373Y0254582D01*
X0300418Y0254538D01*
X0300461Y0254491D01*
X0300500Y0254442D01*
X0300537Y0254390D01*
X0300570Y0254336D01*
X0300600Y0254280D01*
X0300627Y0254223D01*
X0300650Y0254164D01*
X0300669Y0254103D01*
X0300684Y0254042D01*
X0300696Y0253980D01*
X0300704Y0253917D01*
X0300708Y0253854D01*
X0300708Y0253790D01*
X0300704Y0253727D01*
X0300696Y0253664D01*
X0300684Y0253602D01*
X0300669Y0253541D01*
X0300650Y0253480D01*
X0300627Y0253421D01*
X0300600Y0253364D01*
X0300570Y0253308D01*
X0300537Y0253254D01*
X0300500Y0253202D01*
X0300461Y0253153D01*
X0300418Y0253106D01*
X0300373Y0253062D01*
X0300324Y0253021D01*
X0300274Y0252983D01*
X0300221Y0252948D01*
X0300166Y0252916D01*
X0300110Y0252888D01*
X0300051Y0252863D01*
X0299992Y0252842D01*
X0299931Y0252825D01*
X0299869Y0252812D01*
X0299806Y0252802D01*
X0299743Y0252796D01*
X0299680Y0252794D01*
X0282150Y0227178D02*
X0282972Y0226150D01*
X0293178Y0205886D02*
X0294822Y0205886D01*
X0294884Y0205884D01*
X0294946Y0205879D01*
X0295007Y0205869D01*
X0295068Y0205856D01*
X0295128Y0205839D01*
X0295187Y0205819D01*
X0295244Y0205795D01*
X0295300Y0205768D01*
X0295354Y0205738D01*
X0295406Y0205704D01*
X0295456Y0205667D01*
X0295504Y0205627D01*
X0295549Y0205585D01*
X0295591Y0205540D01*
X0295631Y0205492D01*
X0295668Y0205442D01*
X0295702Y0205390D01*
X0295732Y0205336D01*
X0295759Y0205280D01*
X0295783Y0205223D01*
X0295803Y0205164D01*
X0295820Y0205104D01*
X0295833Y0205043D01*
X0295843Y0204982D01*
X0295848Y0204920D01*
X0295850Y0204858D01*
X0295850Y0203830D01*
X0292150Y0203830D01*
X0292150Y0204858D01*
X0292152Y0204920D01*
X0292157Y0204982D01*
X0292167Y0205043D01*
X0292180Y0205104D01*
X0292197Y0205164D01*
X0292217Y0205223D01*
X0292241Y0205280D01*
X0292268Y0205336D01*
X0292298Y0205390D01*
X0292332Y0205442D01*
X0292369Y0205492D01*
X0292409Y0205540D01*
X0292451Y0205585D01*
X0292496Y0205627D01*
X0292544Y0205667D01*
X0292594Y0205704D01*
X0292646Y0205738D01*
X0292700Y0205768D01*
X0292756Y0205795D01*
X0292813Y0205819D01*
X0292872Y0205839D01*
X0292932Y0205856D01*
X0292993Y0205869D01*
X0293054Y0205879D01*
X0293116Y0205884D01*
X0293178Y0205886D01*
X0292150Y0202046D02*
X0295850Y0202046D01*
X0292150Y0199990D01*
X0295850Y0199990D01*
X0295850Y0198206D02*
X0295850Y0196972D01*
X0295848Y0196916D01*
X0295842Y0196860D01*
X0295833Y0196805D01*
X0295820Y0196750D01*
X0295803Y0196697D01*
X0295782Y0196645D01*
X0295758Y0196594D01*
X0295730Y0196545D01*
X0295700Y0196498D01*
X0295666Y0196453D01*
X0295629Y0196411D01*
X0295589Y0196371D01*
X0295547Y0196334D01*
X0295502Y0196300D01*
X0295455Y0196270D01*
X0295406Y0196242D01*
X0295355Y0196218D01*
X0295303Y0196197D01*
X0295250Y0196180D01*
X0295195Y0196167D01*
X0295140Y0196158D01*
X0295084Y0196152D01*
X0295028Y0196150D01*
X0292972Y0196150D01*
X0292916Y0196152D01*
X0292860Y0196158D01*
X0292805Y0196167D01*
X0292750Y0196180D01*
X0292697Y0196197D01*
X0292645Y0196218D01*
X0292594Y0196242D01*
X0292545Y0196270D01*
X0292498Y0196300D01*
X0292453Y0196334D01*
X0292411Y0196371D01*
X0292371Y0196411D01*
X0292334Y0196453D01*
X0292300Y0196498D01*
X0292270Y0196545D01*
X0292242Y0196594D01*
X0292218Y0196644D01*
X0292197Y0196697D01*
X0292180Y0196750D01*
X0292167Y0196805D01*
X0292158Y0196860D01*
X0292152Y0196916D01*
X0292150Y0196972D01*
X0292150Y0198206D01*
X0293794Y0198206D02*
X0295850Y0198206D01*
X0293794Y0198206D02*
X0293794Y0197589D01*
X0294527Y0089850D02*
X0295349Y0089850D01*
X0294938Y0089850D02*
X0294938Y0086150D01*
X0294527Y0086150D02*
X0295349Y0086150D01*
X0296910Y0086972D02*
X0296910Y0089028D01*
X0296912Y0089084D01*
X0296918Y0089140D01*
X0296927Y0089195D01*
X0296940Y0089250D01*
X0296957Y0089303D01*
X0296978Y0089355D01*
X0297002Y0089406D01*
X0297030Y0089455D01*
X0297060Y0089502D01*
X0297094Y0089547D01*
X0297131Y0089589D01*
X0297171Y0089629D01*
X0297213Y0089666D01*
X0297258Y0089700D01*
X0297305Y0089730D01*
X0297354Y0089758D01*
X0297405Y0089782D01*
X0297457Y0089803D01*
X0297510Y0089820D01*
X0297565Y0089833D01*
X0297620Y0089842D01*
X0297676Y0089848D01*
X0297732Y0089850D01*
X0298966Y0089850D01*
X0298966Y0088206D02*
X0298966Y0086150D01*
X0297732Y0086150D01*
X0297676Y0086152D01*
X0297620Y0086158D01*
X0297565Y0086167D01*
X0297510Y0086180D01*
X0297457Y0086197D01*
X0297405Y0086218D01*
X0297354Y0086242D01*
X0297305Y0086270D01*
X0297258Y0086300D01*
X0297213Y0086334D01*
X0297171Y0086371D01*
X0297131Y0086411D01*
X0297094Y0086453D01*
X0297060Y0086498D01*
X0297030Y0086545D01*
X0297002Y0086594D01*
X0296978Y0086645D01*
X0296957Y0086697D01*
X0296940Y0086750D01*
X0296927Y0086805D01*
X0296918Y0086860D01*
X0296912Y0086916D01*
X0296910Y0086972D01*
X0298349Y0088206D02*
X0298966Y0088206D01*
X0292794Y0087692D02*
X0291664Y0088308D01*
X0292075Y0089850D02*
X0292151Y0089848D01*
X0292227Y0089842D01*
X0292303Y0089833D01*
X0292378Y0089820D01*
X0292453Y0089803D01*
X0292526Y0089782D01*
X0292599Y0089758D01*
X0292670Y0089731D01*
X0292739Y0089699D01*
X0292808Y0089665D01*
X0292874Y0089627D01*
X0292938Y0089586D01*
X0293000Y0089542D01*
X0291664Y0088309D02*
X0291618Y0088338D01*
X0291575Y0088370D01*
X0291533Y0088404D01*
X0291494Y0088442D01*
X0291457Y0088481D01*
X0291423Y0088523D01*
X0291391Y0088568D01*
X0291363Y0088614D01*
X0291338Y0088662D01*
X0291315Y0088711D01*
X0291297Y0088762D01*
X0291281Y0088814D01*
X0291269Y0088866D01*
X0291260Y0088920D01*
X0291255Y0088974D01*
X0291253Y0089028D01*
X0291255Y0089084D01*
X0291261Y0089140D01*
X0291270Y0089195D01*
X0291283Y0089250D01*
X0291300Y0089303D01*
X0291321Y0089355D01*
X0291345Y0089406D01*
X0291373Y0089455D01*
X0291403Y0089502D01*
X0291437Y0089547D01*
X0291474Y0089589D01*
X0291514Y0089629D01*
X0291556Y0089666D01*
X0291601Y0089700D01*
X0291648Y0089730D01*
X0291697Y0089758D01*
X0291748Y0089782D01*
X0291800Y0089803D01*
X0291853Y0089820D01*
X0291908Y0089833D01*
X0291963Y0089842D01*
X0292019Y0089848D01*
X0292075Y0089850D01*
X0291150Y0086664D02*
X0291208Y0086608D01*
X0291268Y0086555D01*
X0291331Y0086504D01*
X0291397Y0086457D01*
X0291464Y0086413D01*
X0291534Y0086372D01*
X0291605Y0086334D01*
X0291678Y0086300D01*
X0291752Y0086269D01*
X0291828Y0086241D01*
X0291905Y0086217D01*
X0291983Y0086197D01*
X0292062Y0086180D01*
X0292142Y0086167D01*
X0292222Y0086157D01*
X0292302Y0086152D01*
X0292383Y0086150D01*
X0292439Y0086152D01*
X0292495Y0086158D01*
X0292550Y0086167D01*
X0292605Y0086180D01*
X0292658Y0086197D01*
X0292710Y0086218D01*
X0292761Y0086242D01*
X0292810Y0086270D01*
X0292857Y0086300D01*
X0292902Y0086334D01*
X0292944Y0086371D01*
X0292984Y0086411D01*
X0293021Y0086453D01*
X0293055Y0086498D01*
X0293085Y0086545D01*
X0293113Y0086594D01*
X0293137Y0086645D01*
X0293158Y0086697D01*
X0293175Y0086750D01*
X0293188Y0086805D01*
X0293197Y0086860D01*
X0293203Y0086916D01*
X0293205Y0086972D01*
X0293203Y0087026D01*
X0293198Y0087080D01*
X0293189Y0087134D01*
X0293177Y0087186D01*
X0293161Y0087238D01*
X0293143Y0087289D01*
X0293120Y0087338D01*
X0293095Y0087386D01*
X0293067Y0087432D01*
X0293035Y0087477D01*
X0293001Y0087519D01*
X0292964Y0087558D01*
X0292925Y0087596D01*
X0292883Y0087630D01*
X0292840Y0087662D01*
X0292794Y0087691D01*
X0270611Y0079850D02*
X0269378Y0076150D01*
X0268144Y0079850D01*
X0266497Y0078206D02*
X0264750Y0076150D01*
X0266806Y0076150D01*
X0264751Y0079028D02*
X0264774Y0079092D01*
X0264800Y0079155D01*
X0264830Y0079216D01*
X0264863Y0079275D01*
X0264900Y0079332D01*
X0264940Y0079387D01*
X0264983Y0079439D01*
X0265029Y0079489D01*
X0265077Y0079537D01*
X0265129Y0079581D01*
X0265182Y0079623D01*
X0265238Y0079661D01*
X0265296Y0079696D01*
X0265356Y0079728D01*
X0265418Y0079756D01*
X0265481Y0079781D01*
X0265546Y0079802D01*
X0265612Y0079819D01*
X0265678Y0079833D01*
X0265745Y0079842D01*
X0265813Y0079848D01*
X0265881Y0079850D01*
X0265939Y0079848D01*
X0265997Y0079843D01*
X0266054Y0079834D01*
X0266111Y0079821D01*
X0266167Y0079805D01*
X0266222Y0079785D01*
X0266275Y0079762D01*
X0266327Y0079736D01*
X0266377Y0079706D01*
X0266425Y0079673D01*
X0266471Y0079638D01*
X0266514Y0079599D01*
X0266555Y0079558D01*
X0266594Y0079515D01*
X0266629Y0079469D01*
X0266662Y0079421D01*
X0266692Y0079371D01*
X0266718Y0079319D01*
X0266741Y0079266D01*
X0266761Y0079211D01*
X0266777Y0079155D01*
X0266790Y0079098D01*
X0266799Y0079041D01*
X0266804Y0078983D01*
X0266806Y0078925D01*
X0266804Y0078863D01*
X0266798Y0078801D01*
X0266789Y0078740D01*
X0266775Y0078680D01*
X0266758Y0078620D01*
X0266737Y0078562D01*
X0266713Y0078505D01*
X0266685Y0078450D01*
X0266654Y0078396D01*
X0266619Y0078345D01*
X0266582Y0078296D01*
X0266541Y0078249D01*
X0266498Y0078205D01*
X0263206Y0076150D02*
X0261150Y0076150D01*
X0262178Y0076150D02*
X0262178Y0079850D01*
X0261150Y0079028D01*
X0262046Y0069850D02*
X0262046Y0066150D01*
X0259990Y0069850D01*
X0259990Y0066150D01*
X0258206Y0066150D02*
X0256972Y0066150D01*
X0256916Y0066152D01*
X0256860Y0066158D01*
X0256805Y0066167D01*
X0256750Y0066180D01*
X0256697Y0066197D01*
X0256645Y0066218D01*
X0256594Y0066242D01*
X0256545Y0066270D01*
X0256498Y0066300D01*
X0256453Y0066334D01*
X0256411Y0066371D01*
X0256371Y0066411D01*
X0256334Y0066453D01*
X0256300Y0066498D01*
X0256270Y0066545D01*
X0256242Y0066594D01*
X0256218Y0066645D01*
X0256197Y0066697D01*
X0256180Y0066750D01*
X0256167Y0066805D01*
X0256158Y0066860D01*
X0256152Y0066916D01*
X0256150Y0066972D01*
X0256150Y0069028D01*
X0256152Y0069084D01*
X0256158Y0069140D01*
X0256167Y0069195D01*
X0256180Y0069250D01*
X0256197Y0069303D01*
X0256218Y0069355D01*
X0256242Y0069406D01*
X0256270Y0069455D01*
X0256300Y0069502D01*
X0256334Y0069547D01*
X0256371Y0069589D01*
X0256411Y0069629D01*
X0256453Y0069666D01*
X0256498Y0069700D01*
X0256545Y0069730D01*
X0256594Y0069758D01*
X0256645Y0069782D01*
X0256697Y0069803D01*
X0256750Y0069820D01*
X0256805Y0069833D01*
X0256860Y0069842D01*
X0256916Y0069848D01*
X0256972Y0069850D01*
X0258206Y0069850D01*
X0258206Y0068206D02*
X0258206Y0066150D01*
X0258206Y0068206D02*
X0257589Y0068206D01*
X0263830Y0069850D02*
X0263830Y0066150D01*
X0264858Y0066150D01*
X0264920Y0066152D01*
X0264982Y0066157D01*
X0265043Y0066167D01*
X0265104Y0066180D01*
X0265164Y0066197D01*
X0265223Y0066217D01*
X0265280Y0066241D01*
X0265336Y0066268D01*
X0265390Y0066298D01*
X0265442Y0066332D01*
X0265492Y0066369D01*
X0265540Y0066409D01*
X0265585Y0066451D01*
X0265627Y0066496D01*
X0265667Y0066544D01*
X0265704Y0066594D01*
X0265738Y0066646D01*
X0265768Y0066700D01*
X0265795Y0066756D01*
X0265819Y0066813D01*
X0265839Y0066872D01*
X0265856Y0066932D01*
X0265869Y0066993D01*
X0265879Y0067054D01*
X0265884Y0067116D01*
X0265886Y0067178D01*
X0265886Y0068822D01*
X0265884Y0068884D01*
X0265879Y0068946D01*
X0265869Y0069007D01*
X0265856Y0069068D01*
X0265839Y0069128D01*
X0265819Y0069187D01*
X0265795Y0069244D01*
X0265768Y0069300D01*
X0265738Y0069354D01*
X0265704Y0069406D01*
X0265667Y0069456D01*
X0265627Y0069504D01*
X0265585Y0069549D01*
X0265540Y0069591D01*
X0265492Y0069631D01*
X0265442Y0069668D01*
X0265390Y0069702D01*
X0265336Y0069732D01*
X0265280Y0069759D01*
X0265223Y0069783D01*
X0265164Y0069803D01*
X0265104Y0069820D01*
X0265043Y0069833D01*
X0264982Y0069843D01*
X0264920Y0069848D01*
X0264858Y0069850D01*
X0263830Y0069850D01*
D11*
X0271000Y0068500D02*
X0271000Y0063500D01*
X0273500Y0061000D01*
X0288500Y0061000D01*
X0291000Y0063500D01*
X0291000Y0068500D01*
X0288500Y0071000D01*
X0273500Y0071000D01*
X0271000Y0073500D01*
X0271000Y0078500D01*
X0273500Y0081000D01*
X0288500Y0081000D01*
X0291000Y0083500D01*
X0291000Y0088500D01*
X0288500Y0091000D01*
X0273500Y0091000D01*
X0271000Y0088500D01*
X0271000Y0083500D01*
X0273500Y0081000D01*
X0273500Y0071000D02*
X0271000Y0068500D01*
X0288500Y0071000D02*
X0291000Y0073500D01*
X0291000Y0078500D01*
X0288500Y0081000D01*
X0292319Y0068500D02*
X0292319Y0063500D01*
X0288500Y0191000D02*
X0283500Y0191000D01*
X0281000Y0193500D01*
X0278500Y0191000D01*
X0273500Y0191000D01*
X0271000Y0193500D01*
X0271000Y0198500D01*
X0273500Y0201000D01*
X0278500Y0201000D01*
X0281000Y0198500D01*
X0283500Y0201000D01*
X0288500Y0201000D01*
X0291000Y0198500D01*
X0291000Y0193500D01*
X0288500Y0191000D01*
X0288500Y0211000D02*
X0283500Y0211000D01*
X0281000Y0213500D01*
X0278500Y0211000D01*
X0273500Y0211000D01*
X0271000Y0213500D01*
X0268500Y0211000D01*
X0263500Y0211000D01*
X0261000Y0213500D01*
X0261000Y0218500D01*
X0263500Y0221000D01*
X0268500Y0221000D01*
X0271000Y0218500D01*
X0273500Y0221000D01*
X0278500Y0221000D01*
X0281000Y0218500D01*
X0283500Y0221000D01*
X0288500Y0221000D01*
X0291000Y0218500D01*
X0291000Y0213500D01*
X0288500Y0211000D01*
X0256000Y0208500D02*
X0253500Y0206000D01*
X0248500Y0206000D01*
X0246000Y0208500D01*
X0246000Y0213500D01*
X0248500Y0216000D01*
X0246000Y0218500D01*
X0246000Y0223500D01*
X0248500Y0226000D01*
X0246000Y0228500D01*
X0246000Y0233500D01*
X0248500Y0236000D01*
X0246000Y0238500D01*
X0246000Y0243500D01*
X0248500Y0246000D01*
X0253500Y0246000D01*
X0256000Y0243500D01*
X0256000Y0238500D01*
X0253500Y0236000D01*
X0256000Y0233500D01*
X0256000Y0228500D01*
X0253500Y0226000D01*
X0256000Y0223500D01*
X0256000Y0218500D01*
X0253500Y0216000D01*
X0256000Y0213500D01*
X0256000Y0208500D01*
X0126000Y0208500D02*
X0123500Y0206000D01*
X0118500Y0206000D01*
X0116000Y0208500D01*
X0116000Y0213500D01*
X0118500Y0216000D01*
X0116000Y0218500D01*
X0116000Y0223500D01*
X0118500Y0226000D01*
X0116000Y0228500D01*
X0116000Y0233500D01*
X0118500Y0236000D01*
X0116000Y0238500D01*
X0116000Y0243500D01*
X0118500Y0246000D01*
X0123500Y0246000D01*
X0126000Y0243500D01*
X0126000Y0238500D01*
X0123500Y0236000D01*
X0126000Y0233500D01*
X0126000Y0228500D01*
X0123500Y0226000D01*
X0126000Y0223500D01*
X0126000Y0218500D01*
X0123500Y0216000D01*
X0126000Y0213500D01*
X0126000Y0208500D01*
X0123500Y0176000D02*
X0118500Y0176000D01*
X0116000Y0173500D01*
X0116000Y0168500D01*
X0118500Y0166000D01*
X0116000Y0163500D01*
X0116000Y0158500D01*
X0118500Y0156000D01*
X0116000Y0153500D01*
X0116000Y0148500D01*
X0118500Y0146000D01*
X0116000Y0143500D01*
X0116000Y0138500D01*
X0118500Y0136000D01*
X0116000Y0133500D01*
X0116000Y0128500D01*
X0118500Y0126000D01*
X0116000Y0123500D01*
X0116000Y0118500D01*
X0118500Y0116000D01*
X0116000Y0113500D01*
X0116000Y0108500D01*
X0118500Y0106000D01*
X0116000Y0103500D01*
X0116000Y0098500D01*
X0118500Y0096000D01*
X0123500Y0096000D01*
X0126000Y0098500D01*
X0126000Y0103500D01*
X0123500Y0106000D01*
X0126000Y0108500D01*
X0126000Y0113500D01*
X0123500Y0116000D01*
X0126000Y0118500D01*
X0126000Y0123500D01*
X0123500Y0126000D01*
X0126000Y0128500D01*
X0126000Y0133500D01*
X0123500Y0136000D01*
X0126000Y0138500D01*
X0126000Y0143500D01*
X0123500Y0146000D01*
X0126000Y0148500D01*
X0126000Y0153500D01*
X0123500Y0156000D01*
X0126000Y0158500D01*
X0126000Y0163500D01*
X0123500Y0166000D01*
X0126000Y0168500D01*
X0126000Y0173500D01*
X0123500Y0176000D01*
X0111000Y0117000D02*
X0111000Y0116000D01*
X0114000Y0116000D01*
X0114000Y0096000D01*
X0111000Y0096000D01*
X0111000Y0095000D01*
X0111000Y0096000D02*
X0108000Y0096000D01*
X0108000Y0116000D01*
X0111000Y0116000D01*
X0104000Y0116000D02*
X0104000Y0096000D01*
X0101000Y0096000D01*
X0101000Y0095000D01*
X0101000Y0096000D02*
X0098000Y0096000D01*
X0098000Y0116000D01*
X0101000Y0116000D01*
X0101000Y0117000D01*
X0101000Y0116000D02*
X0104000Y0116000D01*
X0103500Y0086000D02*
X0108500Y0086000D01*
X0111000Y0083500D01*
X0113500Y0086000D01*
X0118500Y0086000D01*
X0121000Y0083500D01*
X0121000Y0078500D01*
X0118500Y0076000D01*
X0121000Y0073500D01*
X0121000Y0068500D01*
X0118500Y0066000D01*
X0113500Y0066000D01*
X0111000Y0068500D01*
X0111000Y0073500D01*
X0113500Y0076000D01*
X0111000Y0078500D01*
X0111000Y0083500D01*
X0111000Y0078500D01*
X0108500Y0076000D01*
X0111000Y0073500D01*
X0111000Y0068500D01*
X0108500Y0066000D01*
X0103500Y0066000D01*
X0101000Y0068500D01*
X0101000Y0073500D01*
X0103500Y0076000D01*
X0101000Y0078500D01*
X0101000Y0083500D01*
X0103500Y0086000D01*
D12*
X0161000Y0121000D02*
X0161000Y0181000D01*
X0211000Y0181000D01*
X0211000Y0121000D01*
X0161000Y0121000D01*
X0271000Y0136000D02*
X0271000Y0096000D01*
X0291000Y0096000D01*
X0291000Y0136000D01*
X0271000Y0136000D01*
X0271000Y0141000D02*
X0291000Y0141000D01*
X0291000Y0181000D01*
X0271000Y0181000D01*
X0271000Y0141000D01*
M02*
